<svg xml:space="preserve" style="enable-background:new 0 0 680.3 680.3;" viewBox="0 0 680.3 680.3" y="0px" x="0px" xmlns:xlink="http://www.w3.org/1999/xlink" xmlns="http://www.w3.org/2000/svg" id="图层_1" version="1.1">
<style type="text/css">
	.st0{fill:url(#SVGID_1_);}
	.st1{fill:#E6E9F5;}
	.st2{fill:#ECEEF1;}
	.st3{fill:#D6DBE3;}
	.st4{opacity:0.8;fill:url(#SVGID_2_);}
	.st5{opacity:0.8;fill:url(#SVGID_3_);}
	.st6{fill:url(#SVGID_4_);}
	.st7{fill:url(#SVGID_5_);}
	.st8{fill:url(#SVGID_6_);}
	.st9{fill:url(#SVGID_7_);}
	.st10{fill:url(#SVGID_8_);}
	.st11{fill:url(#SVGID_9_);}
	.st12{fill:url(#SVGID_10_);}
	.st13{fill:url(#SVGID_11_);}
	.st14{fill:url(#SVGID_12_);}
	.st15{fill:url(#SVGID_13_);}
	.st16{fill:url(#SVGID_14_);}
	.st17{fill:url(#SVGID_15_);}
</style>
<g id="没有内容">
	<g id="背景_4_">
		<linearGradient y2="403.2385" x2="344.9104" y1="557.5386" x1="344.9104" gradientUnits="userSpaceOnUse" id="SVGID_1_">
			<stop style="stop-color:#F7F7F7;stop-opacity:0" offset="0"></stop>
			<stop style="stop-color:#C8C9C9;stop-opacity:0.2835" offset="1"></stop>
		</linearGradient>
		<path d="M75.8,484.4c0,0,25.6-81.8,112.4-81.2c86.8,0.6,138,38.1,179,36.3c41-1.8,85.1-19.9,127.9-18.4
			c42.8,1.4,48.5,18.2,77.4,27.1c22,6.8,31.2,1.7,38.9,14.6c7.7,12.9,8.6,47-30.7,53.5c-39.3,6.4-163,51-296.8,39.3
			S60.2,514.7,75.8,484.4z" class="st0"></path>
		<ellipse ry="36" rx="240.4" cy="505.9" cx="342.7" class="st1"></ellipse>
		<path d="M151.4,362.9c0,0-0.9,7.4,1.6,10.8c0.9,1.2,5.9,3.7,6.3,9.7c0.3,5.9-2.1,16.8-17.7,17.4
			c-14.4,0.6-33.1-4.3-27.8-25.8c3.4-11.2,14-8.9,12.9-27.9c-0.2-13,6.4-26.4,10.9-25.8c4.1,0.5,4.4,6.9,7.3,12.1
			C146.8,337,152.1,341.4,151.4,362.9z" class="st2"></path>
		<path d="M136.1,418.8c0,1.4,2.6,1.8,2.6-1c-0.1-2.7-0.2-10.7-0.6-14.9c-0.1-1.2-0.8-3.8-0.7-4.5
			c0.3-1.6,2.4-6.7,2.9-8.3c0.5-1.6,3.1-11.2,2.3-22.6c-0.7-10.4-1.4-10.4-2.5-10.3s0,6.1,0.2,9.9c0.2,3.4,0.3,8.1-0.2,12.7
			c-0.6,5.1-1.9,10-3.4,14.7c-0.2,0.5-1.4,2.3-2.9-0.6c-1.5-2.9-8.7-13.1-4.6-22.9c1.3-3-0.6-2.6-2.1,0.3c-1.1,2.1-1.9,5.7-1.4,8.9
			c1.3,7.4,5.9,15.1,6.6,16.1c0.9,1.4,2.6,3.5,2.9,5C135.9,404.5,136.1,418.8,136.1,418.8z" class="st3"></path>
		<path d="M569,390.9c0,0-0.9,7.4,1.6,10.8c0.9,1.2,5.9,3.7,6.3,9.7c0.3,5.9-2.1,16.8-17.7,17.4
			c-14.4,0.6-33.1-4.3-27.8-25.8c3.4-11.2,14-8.9,12.9-27.9c-0.2-13,6.4-26.4,10.9-25.8c4.1,0.5,4.4,6.9,7.3,12.1
			C564.4,365,569.7,369.4,569,390.9z" class="st2"></path>
		<path d="M554.7,446.8c0,1.4,2.6,1.8,2.6-1c-0.1-2.7-0.2-10.7-0.6-14.9c-0.1-1.2-0.8-3.8-0.7-4.5
			c0.3-1.6,2.4-6.7,2.9-8.3c0.5-1.6,3.1-11.2,2.3-22.6c-0.7-10.4-1.4-10.4-2.5-10.3c-1.1,0.1,0,6.1,0.2,9.9
			c0.2,3.4,0.3,8.1-0.2,12.7c-0.6,5.1-1.9,10-3.4,14.7c-0.2,0.5-1.4,2.3-2.9-0.6c-1.5-2.9-8.7-13.1-4.6-22.9c1.3-3-0.6-2.6-2.1,0.3
			c-1.1,2.1-1.9,5.7-1.4,8.9c1.3,7.4,5.9,15.1,6.6,16.1c0.9,1.4,2.6,3.5,2.9,5C554.4,432.5,554.7,446.8,554.7,446.8z" class="st3"></path>
		<linearGradient y2="395.3851" x2="545.4699" y1="376.5339" x1="552.3312" gradientUnits="userSpaceOnUse" id="SVGID_2_">
			<stop style="stop-color:#9FD8F4;stop-opacity:0.6" offset="0"></stop>
			<stop style="stop-color:#84BCE5;stop-opacity:0.726" offset="0.315"></stop>
			<stop style="stop-color:#4478BD" offset="1"></stop>
		</linearGradient>
		<circle r="10" cy="386" cx="548.9" class="st4"></circle>
		<linearGradient y2="264.9116" x2="496.767" y1="240.6818" x1="505.5859" gradientUnits="userSpaceOnUse" id="SVGID_3_">
			<stop style="stop-color:#9FD8F4;stop-opacity:0.6" offset="0"></stop>
			<stop style="stop-color:#84BCE5;stop-opacity:0.726" offset="0.315"></stop>
			<stop style="stop-color:#4478BD" offset="1"></stop>
		</linearGradient>
		<circle r="12.9" cy="252.8" cx="501.2" class="st5"></circle>
		<linearGradient y2="445.1427" x2="106.6207" y1="411.2523" x1="118.9557" gradientUnits="userSpaceOnUse" id="SVGID_4_">
			<stop style="stop-color:#CAE9F8" offset="0"></stop>
			<stop style="stop-color:#A8CAE9" offset="0.4085"></stop>
			<stop style="stop-color:#6F98CF" offset="1"></stop>
		</linearGradient>
		<circle r="18" cy="428.2" cx="112.8" class="st6"></circle>
	</g>
	<g id="箱子">
		
			<linearGradient gradientTransform="matrix(1 0 0 -1 0 681.2126)" y2="328.3603" x2="327.0158" y1="328.3603" x1="213.2158" gradientUnits="userSpaceOnUse" id="SVGID_5_">
			<stop style="stop-color:#9FD8F4" offset="0"></stop>
			<stop style="stop-color:#84BCE5" offset="0.2611"></stop>
			<stop style="stop-color:#4477BC" offset="0.8357"></stop>
			<stop style="stop-color:#2E65B0" offset="1"></stop>
		</linearGradient>
		<polygon points="213.2,428.4 327,428.4 327,277.3 213.2,307.1" class="st7"></polygon>
		
			<linearGradient gradientTransform="matrix(1 0 0 -1 0 681.2126)" y2="353.7753" x2="464.3058" y1="353.7753" x1="327.0158" gradientUnits="userSpaceOnUse" id="SVGID_6_">
			<stop style="stop-color:#8DC6EB" offset="0"></stop>
			<stop style="stop-color:#6196CF" offset="0.5457"></stop>
			<stop style="stop-color:#396EB6" offset="1"></stop>
		</linearGradient>
		<polygon points="464.3,377.6 327,377.6 327,277.3 464.3,308.6" class="st8"></polygon>
		
			<linearGradient gradientTransform="matrix(1 0 0 -1 0 681.2126)" y2="374.0903" x2="193.4708" y1="309.3903" x1="193.4708" gradientUnits="userSpaceOnUse" id="SVGID_7_">
			<stop style="stop-color:#9FD8F4" offset="0"></stop>
			<stop style="stop-color:#84BCE5" offset="0.2611"></stop>
			<stop style="stop-color:#4477BC" offset="0.8357"></stop>
			<stop style="stop-color:#2E65B0" offset="1"></stop>
		</linearGradient>
		<polygon points="213.2,307.1 173.7,354.2 213.2,371.8" class="st9"></polygon>
		
			<linearGradient gradientTransform="matrix(1 0 0 -1 0 681.2126)" y2="268.3917" x2="361.102" y1="296.8689" x1="199.5996" gradientUnits="userSpaceOnUse" id="SVGID_8_">
			<stop style="stop-color:#D3EDF9" offset="0"></stop>
			<stop style="stop-color:#C2DEF2" offset="0.198"></stop>
			<stop style="stop-color:#92B6DF" offset="0.5975"></stop>
			<stop style="stop-color:#588CC9" offset="1"></stop>
		</linearGradient>
		<polygon points="347.5,490 213.2,435.6 213.2,307.1 347.5,341.3" class="st10"></polygon>
		
			<linearGradient gradientTransform="matrix(1 0 0 -1 0 681.2126)" y2="355.0629" x2="479.013" y1="222.5819" x1="321.1283" gradientUnits="userSpaceOnUse" id="SVGID_9_">
			<stop style="stop-color:#9FD9F6" offset="0"></stop>
			<stop style="stop-color:#85BCE7" offset="0.3267"></stop>
			<stop style="stop-color:#4C7CBF" offset="1"></stop>
		</linearGradient>
		<polygon points="347.5,490 464.3,433.7 464.3,308.6 347.5,341.3" class="st11"></polygon>
		
			<linearGradient gradientTransform="matrix(1 0 0 -1 0 681.2126)" y2="323.3853" x2="347.4858" y1="323.3853" x1="503.8658" gradientUnits="userSpaceOnUse" id="SVGID_10_">
			<stop style="stop-color:#EAF6FD" offset="5.586592e-02"></stop>
			<stop style="stop-color:#8FB7E1" offset="0.9274"></stop>
		</linearGradient>
		<polygon points="464.3,308.6 503.9,361.6 389.3,407 347.5,341.3" class="st12"></polygon>
		
			<linearGradient gradientTransform="matrix(1 0 0 -1 0 681.2126)" y2="321.4103" x2="347.4858" y1="321.4103" x1="177.7158" gradientUnits="userSpaceOnUse" id="SVGID_11_">
			<stop style="stop-color:#EAF6FD" offset="0"></stop>
			<stop style="stop-color:#E2F1FB" offset="0.1729"></stop>
			<stop style="stop-color:#CCE0F4" offset="0.4549"></stop>
			<stop style="stop-color:#A6C6E8" offset="0.8087"></stop>
			<stop style="stop-color:#8CB6E1" offset="1"></stop>
		</linearGradient>
		<polygon points="213.2,307.1 177.7,366.5 317.1,412.5 347.5,341.3" class="st13"></polygon>
	</g>
	<g id="发送">
		<linearGradient y2="150.7236" x2="364.4352" y1="338.4424" x1="364.4352" gradientUnits="userSpaceOnUse" id="SVGID_12_">
			<stop style="stop-color:#EAF6FD" offset="0"></stop>
			<stop style="stop-color:#E2F1FB" offset="0.3023"></stop>
			<stop style="stop-color:#CCE0F4" offset="0.7938"></stop>
			<stop style="stop-color:#C0D8F0" offset="1"></stop>
		</linearGradient>
		<path d="M417.1,153.5c-0.4,0-0.8-0.2-0.9-0.6c-0.2-0.5,0-1.1,0.5-1.3c1.2-0.5,1.9-0.8,1.9-0.8
			c0.5-0.2,1.1,0.1,1.3,0.6c0.2,0.5,0,1.1-0.6,1.3c0,0-0.6,0.3-1.8,0.8C417.4,153.5,417.2,153.5,417.1,153.5z M348.2,333.2
			c-0.4,0-0.8-0.3-0.9-0.6c-0.5-1.3-0.9-2.6-1.1-4c-0.1-0.5,0.3-1.1,0.8-1.2c0.5-0.1,1.1,0.3,1.2,0.8c0.2,1.3,0.6,2.5,1,3.7
			c0.2,0.5-0.1,1.1-0.6,1.3C348.5,333.2,348.4,333.2,348.2,333.2z M361.7,325.5C361.6,325.5,361.6,325.5,361.7,325.5
			c-1.4,0-2.8-0.1-4.1-0.3c-0.5-0.1-1-0.5-0.9-1.1s0.5-1,1.1-0.9c1.3,0.1,2.6,0.2,3.9,0.3c0.5,0,1,0.5,1,1
			C362.6,325.1,362.2,325.5,361.7,325.5z M365.7,325.4c-0.5,0-1-0.4-1-1c0-0.5,0.4-1,0.9-1c1.3-0.1,2.6-0.2,3.9-0.4
			c0.5-0.1,1,0.3,1.1,0.9s-0.3,1-0.9,1.1C368.4,325.2,367,325.4,365.7,325.4C365.7,325.4,365.7,325.4,365.7,325.4z M346.7,325.4
			c-0.5,0-1-0.4-1-1c0-0.2,0-0.5,0-0.7c0-0.4,0-0.9,0-1.3c0,0,0,0,0,0c-1.3-0.5-2.5-1-3.8-1.5c-0.5-0.2-0.7-0.8-0.5-1.3
			c0.2-0.5,0.8-0.7,1.3-0.5c1,0.5,2.1,0.9,3.2,1.3c0,0,0,0,0,0c0.1-0.5,0.6-0.9,1.1-0.9c0.5,0.1,0.9,0.6,0.9,1.1
			c-0.1,1.1-0.2,2.1-0.2,3.2c0,0.2,0,0.4,0,0.6C347.7,324.9,347.3,325.3,346.7,325.4C346.7,325.4,346.7,325.4,346.7,325.4z
			 M353.7,324.6c-0.1,0-0.1,0-0.2,0c-1.1-0.2-2.2-0.5-3.2-0.8l-0.7-0.2c-0.5-0.2-0.8-0.7-0.7-1.2c0.2-0.5,0.7-0.8,1.2-0.7l0.7,0.2
			c1,0.3,2,0.5,3.1,0.8c0.5,0.1,0.9,0.6,0.8,1.2C354.6,324.3,354.2,324.6,353.7,324.6z M373.6,324.4c-0.5,0-0.9-0.3-1-0.8
			c-0.1-0.5,0.2-1.1,0.8-1.2c1.3-0.3,2.6-0.5,3.8-0.9c0.5-0.1,1.1,0.2,1.2,0.7s-0.2,1.1-0.7,1.2c-1.3,0.4-2.6,0.7-4,0.9
			C373.7,324.4,373.7,324.4,373.6,324.4z M381.3,322.4c-0.4,0-0.8-0.3-1-0.7c-0.2-0.5,0.1-1.1,0.6-1.3c1.2-0.4,2.5-0.9,3.7-1.4
			c0.5-0.2,1.1,0,1.3,0.5s0,1.1-0.5,1.3c-1.2,0.5-2.5,1-3.8,1.4C381.5,322.3,381.4,322.4,381.3,322.4z M388.7,319.3
			c-0.4,0-0.7-0.2-0.9-0.5c-0.3-0.5,0-1.1,0.4-1.3c1.2-0.6,2.3-1.2,3.4-1.9c0.5-0.3,1.1-0.1,1.4,0.3s0.1,1.1-0.3,1.4
			c-1.1,0.7-2.3,1.4-3.6,2C389,319.2,388.8,319.3,388.7,319.3z M338.8,319.1c-0.2,0-0.3,0-0.5-0.1c-1.2-0.6-2.4-1.3-3.5-2
			c-0.5-0.3-0.6-0.9-0.3-1.4c0.3-0.5,0.9-0.6,1.4-0.3c1.1,0.7,2.2,1.4,3.4,2c0.5,0.3,0.7,0.9,0.4,1.4
			C339.5,319,339.1,319.1,338.8,319.1z M347.7,317.5c-0.1,0-0.2,0-0.3,0c-0.5-0.1-0.9-0.7-0.7-1.2c0.4-1.3,0.8-2.6,1.3-3.9
			c0.2-0.5,0.8-0.8,1.3-0.5c0.5,0.2,0.8,0.8,0.5,1.3c-0.5,1.2-0.9,2.5-1.2,3.7C348.6,317.2,348.1,317.5,347.7,317.5z M395.5,315.1
			c-0.3,0-0.6-0.1-0.8-0.4c-0.3-0.4-0.2-1.1,0.2-1.4c1.1-0.8,2.1-1.6,3-2.5c0.4-0.4,1-0.4,1.4,0c0.4,0.4,0.4,1,0,1.4
			c-1,0.9-2,1.8-3.2,2.6C395.9,315.1,395.7,315.1,395.5,315.1z M332,314.9c-0.2,0-0.4-0.1-0.6-0.2c-1.1-0.8-2.2-1.7-3.2-2.5
			c-0.4-0.4-0.5-1-0.1-1.4s1-0.5,1.4-0.1c1,0.9,2,1.7,3.1,2.5c0.4,0.3,0.5,1,0.2,1.4C332.6,314.7,332.3,314.9,332,314.9z M350.7,310
			c-0.2,0-0.3,0-0.5-0.1c-0.5-0.3-0.7-0.9-0.4-1.4c0.6-1.2,1.4-2.4,2.1-3.5c0.3-0.5,0.9-0.6,1.4-0.3c0.5,0.3,0.6,0.9,0.3,1.4
			c-0.8,1.1-1.4,2.2-2,3.3C351.4,309.9,351,310,350.7,310z M326,309.6c-0.3,0-0.5-0.1-0.7-0.3c-1-1-1.9-2-2.8-3
			c-0.4-0.4-0.3-1,0.1-1.4c0.4-0.4,1-0.3,1.4,0.1c0.9,1,1.7,2,2.6,2.9c0.4,0.4,0.4,1,0,1.4C326.5,309.5,326.2,309.6,326,309.6z
			 M401.3,309.6c-0.2,0-0.4-0.1-0.6-0.2c-0.4-0.3-0.5-1-0.2-1.4c0.1-0.2,0.2-0.3,0.4-0.5c0.6-0.9,1.2-1.8,1.8-2.8
			c0.3-0.5,0.9-0.6,1.4-0.4c0.5,0.3,0.6,0.9,0.4,1.4c-0.5,1-1.2,2-1.9,2.9c-0.1,0.2-0.3,0.4-0.4,0.5
			C401.9,309.5,401.6,309.6,401.3,309.6z M320.8,303.6c-0.3,0-0.6-0.1-0.8-0.4c-0.8-1.1-1.6-2.2-2.3-3.4c-0.3-0.5-0.1-1.1,0.3-1.4
			s1.1-0.1,1.4,0.3c0.7,1.1,1.4,2.2,2.2,3.3c0.3,0.5,0.2,1.1-0.2,1.4C321.2,303.5,321,303.6,320.8,303.6z M355.2,303.5
			c-0.2,0-0.5-0.1-0.6-0.2c-0.4-0.4-0.5-1-0.1-1.4c0.9-1,1.8-2,2.8-3c0.4-0.4,1-0.4,1.4,0s0.4,1,0,1.4c-1,0.9-1.9,1.9-2.7,2.8
			C355.8,303.4,355.5,303.5,355.2,303.5z M405.1,302.6c-0.1,0-0.2,0-0.3-0.1c-0.5-0.2-0.8-0.8-0.6-1.3c0.5-1.3,0.7-2.5,0.9-3.6
			c0-0.5,0.5-1,1.1-0.9c0.5,0,1,0.5,0.9,1.1c-0.1,1.3-0.5,2.7-1,4.1C405.9,302.4,405.5,302.6,405.1,302.6z M360.9,297.9
			c-0.3,0-0.6-0.1-0.8-0.4c-0.4-0.4-0.3-1.1,0.1-1.4c1-0.9,2.1-1.7,3.2-2.5c0.5-0.3,1.1-0.2,1.4,0.2c0.3,0.5,0.2,1.1-0.2,1.4
			c-1.1,0.8-2.1,1.6-3.1,2.4C361.4,297.8,361.2,297.9,360.9,297.9z M316.6,296.8c-0.4,0-0.7-0.2-0.9-0.5c-0.6-1.2-1.2-2.4-1.8-3.7
			c-0.2-0.5,0-1.1,0.5-1.3c0.5-0.2,1.1,0,1.3,0.5c0.5,1.2,1.1,2.4,1.7,3.5c0.3,0.5,0.1,1.1-0.4,1.4
			C316.9,296.7,316.7,296.8,316.6,296.8z M405.8,294.8c-0.5,0-0.9-0.3-1-0.8c-0.3-1.2-0.8-2.3-1.5-3.3c-0.3-0.5-0.2-1.1,0.2-1.4
			c0.5-0.3,1.1-0.2,1.4,0.2c0.9,1.2,1.5,2.5,1.8,4c0.1,0.5-0.2,1.1-0.7,1.2C405.9,294.8,405.9,294.8,405.8,294.8z M367.5,293.3
			c-0.3,0-0.7-0.2-0.9-0.5c-0.3-0.5-0.1-1.1,0.3-1.4c1.1-0.7,2.3-1.4,3.5-2c0.5-0.3,1.1-0.1,1.4,0.4c0.3,0.5,0.1,1.1-0.4,1.4
			c-1.2,0.6-2.3,1.3-3.4,1.9C367.8,293.2,367.6,293.3,367.5,293.3z M374.5,289.5c-0.4,0-0.8-0.2-0.9-0.6c-0.2-0.5,0-1.1,0.5-1.3
			c1.3-0.5,2.5-1.1,3.8-1.5c0.5-0.2,1.1,0.1,1.3,0.6c0.2,0.5-0.1,1.1-0.6,1.3c-1.2,0.4-2.4,0.9-3.6,1.5
			C374.8,289.5,374.7,289.5,374.5,289.5z M313.3,289.5c-0.4,0-0.8-0.3-0.9-0.7c-0.5-1.3-0.9-2.6-1.3-3.9c-0.1-0.5,0.2-1.1,0.7-1.2
			c0.5-0.1,1.1,0.2,1.2,0.7c0.4,1.3,0.8,2.5,1.2,3.7c0.2,0.5-0.1,1.1-0.6,1.3C313.6,289.5,313.4,289.5,313.3,289.5z M401.3,288.4
			c-0.2,0-0.4-0.1-0.6-0.2c-1-0.7-2.1-1.3-3.3-1.8c-0.5-0.2-0.8-0.8-0.6-1.3c0.2-0.5,0.8-0.8,1.3-0.6c1.4,0.5,2.6,1.2,3.7,2
			c0.5,0.3,0.6,0.9,0.2,1.4C401.9,288.2,401.6,288.4,401.3,288.4z M382.1,286.8c-0.4,0-0.8-0.3-1-0.7c-0.1-0.5,0.2-1.1,0.7-1.2
			c1.4-0.4,2.7-0.7,4-0.9c0.5-0.1,1.1,0.3,1.2,0.8c0.1,0.5-0.3,1.1-0.8,1.2c-1.2,0.2-2.5,0.5-3.8,0.9
			C382.2,286.8,382.1,286.8,382.1,286.8z M393.9,285.5c0,0-0.1,0-0.1,0c-0.7-0.1-1.5-0.1-2.3-0.1c-0.5,0-1,0-1.5,0
			c-0.5,0-1-0.4-1.1-0.9c0-0.5,0.4-1,0.9-1.1c0.6,0,1.1,0,1.7,0c0,0,0,0,0,0c0.9,0,1.7,0,2.5,0.1c0.5,0.1,0.9,0.6,0.9,1.1
			C394.8,285.1,394.4,285.5,393.9,285.5z M311.1,281.8c-0.5,0-0.9-0.3-1-0.8c-0.3-1.3-0.5-2.7-0.7-4c-0.1-0.5,0.3-1,0.9-1.1
			c0.5-0.1,1,0.3,1.1,0.9c0.2,1.3,0.4,2.6,0.7,3.9c0.1,0.5-0.2,1.1-0.8,1.2C311.3,281.8,311.2,281.8,311.1,281.8z M310,273.9
			c-0.5,0-1-0.4-1-0.9c-0.1-1.2-0.1-2.4-0.1-3.6v-0.4c0-0.5,0.5-1,1-1c0.5,0,1,0.5,1,1v0.4c0,1.1,0,2.3,0.1,3.5
			C311.1,273.3,310.7,273.8,310,273.9C310.1,273.9,310.1,273.9,310,273.9z M310.1,265.9C310.1,265.9,310.1,265.9,310.1,265.9
			c-0.6,0-1-0.5-1-1.1c0.1-1.3,0.3-2.5,0.5-3.7l0-0.2l0.1-0.4c0.2-0.5,0.8-0.8,1.3-0.6c0.5,0.2,0.8,0.8,0.6,1.3l-0.1,0.3
			c-0.2,1-0.3,2.2-0.5,3.4C311.1,265.5,310.6,265.9,310.1,265.9z M312.1,258.2c-0.1,0-0.2,0-0.4-0.1c-0.5-0.2-0.8-0.8-0.6-1.3
			c0.5-1.3,1-2.5,1.5-3.7c0.2-0.5,0.8-0.8,1.3-0.5s0.8,0.8,0.5,1.3c-0.5,1.2-1,2.5-1.5,3.7C312.9,257.9,312.5,258.2,312.1,258.2z
			 M315.1,250.8c-0.1,0-0.3,0-0.4-0.1c-0.5-0.2-0.7-0.8-0.5-1.3c0.5-1.2,1.1-2.4,1.7-3.7c0.2-0.5,0.8-0.7,1.3-0.5
			c0.5,0.2,0.7,0.8,0.5,1.3c-0.6,1.2-1.1,2.4-1.6,3.6C315.9,250.5,315.5,250.8,315.1,250.8z M318.5,243.5c-0.1,0-0.3,0-0.5-0.1
			c-0.5-0.3-0.7-0.9-0.4-1.3c0.6-1.2,1.2-2.4,1.9-3.6c0.3-0.5,0.9-0.7,1.4-0.4c0.5,0.3,0.7,0.9,0.4,1.4c-0.6,1.2-1.2,2.3-1.8,3.5
			C319.2,243.3,318.9,243.5,318.5,243.5z M322.3,236.5c-0.2,0-0.3,0-0.5-0.1c-0.5-0.3-0.6-0.9-0.4-1.4c0.7-1.2,1.3-2.3,2-3.5
			c0.3-0.5,0.9-0.6,1.4-0.3c0.5,0.3,0.6,0.9,0.3,1.4c-0.7,1.1-1.4,2.3-2,3.4C323,236.3,322.6,236.5,322.3,236.5z M326.4,229.6
			c-0.2,0-0.4-0.1-0.5-0.2c-0.5-0.3-0.6-0.9-0.3-1.4c0.7-1.1,1.5-2.3,2.2-3.4c0.3-0.5,0.9-0.6,1.4-0.3c0.5,0.3,0.6,0.9,0.3,1.4
			c-0.7,1.1-1.5,2.2-2.2,3.3C327.1,229.5,326.7,229.6,326.4,229.6z M330.8,223c-0.2,0-0.4-0.1-0.6-0.2c-0.5-0.3-0.6-0.9-0.2-1.4
			c0.8-1.1,1.6-2.2,2.4-3.3c0.3-0.4,1-0.5,1.4-0.2c0.4,0.3,0.5,0.9,0.2,1.4c-0.8,1.1-1.6,2.1-2.3,3.2
			C331.5,222.8,331.2,223,330.8,223z M335.6,216.5c-0.2,0-0.4-0.1-0.6-0.2c-0.4-0.3-0.5-1-0.2-1.4c0.8-1.1,1.6-2.1,2.5-3.2
			c0.4-0.4,1-0.5,1.4-0.1s0.5,1,0.1,1.4c-0.8,1-1.6,2.1-2.5,3.1C336.2,216.4,335.9,216.5,335.6,216.5z M340.6,210.3
			c-0.2,0-0.5-0.1-0.6-0.2c-0.4-0.4-0.5-1-0.1-1.4c0.9-1,1.8-2,2.6-3c0.4-0.4,1-0.4,1.4-0.1c0.4,0.4,0.5,1,0.1,1.4
			c-0.9,1-1.7,2-2.6,3C341.2,210.2,340.9,210.3,340.6,210.3z M345.9,204.3c-0.2,0-0.5-0.1-0.7-0.3c-0.4-0.4-0.4-1-0.1-1.4
			c0.9-1,1.8-2,2.8-2.9c0.4-0.4,1-0.4,1.4,0c0.4,0.4,0.4,1,0,1.4c-0.9,0.9-1.8,1.9-2.7,2.9C346.4,204.2,346.2,204.3,345.9,204.3z
			 M351.4,198.5c-0.3,0-0.5-0.1-0.7-0.3c-0.4-0.4-0.4-1,0-1.4c1-0.9,1.9-1.9,2.9-2.8c0.4-0.4,1-0.4,1.4,0s0.4,1,0,1.4
			c-1,0.9-1.9,1.8-2.8,2.8C352,198.4,351.7,198.5,351.4,198.5z M357.2,193c-0.3,0-0.5-0.1-0.7-0.3c-0.4-0.4-0.4-1,0.1-1.4
			c1-0.9,2-1.8,3-2.7c0.4-0.4,1-0.3,1.4,0.1s0.3,1-0.1,1.4c-1,0.9-2,1.8-3,2.7C357.7,192.9,357.5,193,357.2,193z M363.2,187.7
			c-0.3,0-0.6-0.1-0.8-0.4c-0.4-0.4-0.3-1.1,0.1-1.4c1-0.9,2-1.7,3.1-2.6c0.4-0.4,1.1-0.3,1.4,0.1s0.3,1.1-0.1,1.4
			c-1,0.8-2,1.7-3,2.6C363.7,187.6,363.4,187.7,363.2,187.7z M369.4,182.6c-0.3,0-0.6-0.1-0.8-0.4c-0.3-0.4-0.3-1.1,0.2-1.4
			c1.1-0.8,2.1-1.7,3.2-2.5c0.4-0.3,1.1-0.3,1.4,0.2c0.3,0.4,0.3,1.1-0.2,1.4c-1,0.8-2.1,1.6-3.1,2.4
			C369.8,182.5,369.6,182.6,369.4,182.6z M375.7,177.7c-0.3,0-0.6-0.1-0.8-0.4c-0.3-0.4-0.2-1.1,0.2-1.4c1.1-0.8,2.2-1.6,3.3-2.4
			c0.5-0.3,1.1-0.2,1.4,0.2c0.3,0.4,0.2,1.1-0.2,1.4c-1.1,0.8-2.1,1.5-3.2,2.3C376.1,177.6,375.9,177.7,375.7,177.7z M382.2,173.1
			c-0.3,0-0.6-0.1-0.8-0.4c-0.3-0.5-0.2-1.1,0.3-1.4c1.1-0.8,2.2-1.5,3.3-2.2c0.5-0.3,1.1-0.2,1.4,0.3c0.3,0.5,0.2,1.1-0.3,1.4
			c-1.1,0.7-2.2,1.5-3.3,2.2C382.6,173,382.4,173.1,382.2,173.1z M388.9,168.7c-0.3,0-0.6-0.2-0.8-0.5c-0.3-0.5-0.2-1.1,0.3-1.4
			c1.2-0.7,2.3-1.4,3.4-2.1c0.5-0.3,1.1-0.1,1.4,0.3c0.3,0.5,0.1,1.1-0.3,1.4c-1.1,0.7-2.2,1.4-3.4,2.1
			C389.3,168.6,389.1,168.7,388.9,168.7z M395.8,164.5c-0.3,0-0.7-0.2-0.9-0.5c-0.3-0.5-0.1-1.1,0.4-1.4c1.2-0.7,2.4-1.4,3.5-2
			c0.5-0.3,1.1-0.1,1.4,0.4c0.3,0.5,0.1,1.1-0.4,1.4c-1.1,0.6-2.3,1.3-3.5,2C396.1,164.4,395.9,164.5,395.8,164.5z M402.7,160.5
			c-0.4,0-0.7-0.2-0.9-0.5c-0.3-0.5-0.1-1.1,0.4-1.4c1.2-0.7,2.4-1.3,3.6-1.9c0.5-0.3,1.1-0.1,1.4,0.4c0.3,0.5,0.1,1.1-0.4,1.4
			c-1.1,0.6-2.3,1.2-3.5,1.9C403.1,160.5,402.9,160.5,402.7,160.5z M409.8,156.9c-0.4,0-0.7-0.2-0.9-0.6c-0.2-0.5,0-1.1,0.5-1.3
			c1.3-0.7,2.6-1.2,3.6-1.7c0.5-0.2,1.1,0,1.3,0.5c0.2,0.5,0,1.1-0.5,1.3c-1.1,0.5-2.3,1.1-3.6,1.7
			C410.1,156.8,410,156.9,409.8,156.9z M351.1,338.4c-0.3,0-0.6-0.1-0.8-0.4c0,0-0.5-0.6-1.2-1.8c-0.3-0.5-0.1-1.1,0.3-1.4
			c0.5-0.3,1.1-0.1,1.4,0.3c0.6,1,1,1.5,1,1.5c0.4,0.4,0.3,1-0.1,1.4C351.6,338.4,351.4,338.4,351.1,338.4z" class="st14"></path>
		<linearGradient y2="135.3924" x2="480.0758" y1="135.3924" x1="404.1658" gradientUnits="userSpaceOnUse" id="SVGID_13_">
			<stop style="stop-color:#EAF6FD" offset="0"></stop>
			<stop style="stop-color:#E2F1FB" offset="0.1758"></stop>
			<stop style="stop-color:#CCE0F4" offset="0.4626"></stop>
			<stop style="stop-color:#A6C6E8" offset="0.8224"></stop>
			<stop style="stop-color:#8FB7E1" offset="1"></stop>
		</linearGradient>
		<polygon points="404.2,125.7 480.1,113 456.4,157.8" class="st15"></polygon>
		
			<linearGradient gradientTransform="matrix(1 0 0 -1 0 681.2126)" y2="557.4003" x2="442.8508" y1="523.4402" x1="442.8508" gradientUnits="userSpaceOnUse" id="SVGID_14_">
			<stop style="stop-color:#EAF6FD" offset="0"></stop>
			<stop style="stop-color:#8FB7E1" offset="1"></stop>
		</linearGradient>
		<polygon points="461.7,123.8 433.1,142.8 429.4,157.8 424,137.9" class="st16"></polygon>
		<linearGradient y2="150.1924" x2="443.1758" y1="150.1924" x1="429.4058" gradientUnits="userSpaceOnUse" id="SVGID_15_">
			<stop style="stop-color:#EAF6FD" offset="0"></stop>
			<stop style="stop-color:#E4F3FC" offset="1"></stop>
		</linearGradient>
		<polygon points="443.2,149.7 429.4,157.8 432.9,142.6" class="st17"></polygon>
	</g>
</g>
</svg>
