<svg xml:space="preserve" style="enable-background:new 0 0 680.31 680.31;" viewBox="0 0 680.31 680.31" y="0px" x="0px" xmlns:xlink="http://www.w3.org/1999/xlink" xmlns="http://www.w3.org/2000/svg" id="图层_1" version="1.1">
<style type="text/css">
	.st0{fill:url(#SVGID_1_);}
	.st1{opacity:0.9;fill:#E7EBF6;}
	.st2{fill:#ECEEF1;}
	.st3{fill:#D6DBE3;}
	.st4{opacity:0.8;fill:url(#SVGID_2_);}
	.st5{opacity:0.8;fill:url(#SVGID_3_);}
	.st6{fill:url(#SVGID_4_);}
	.st7{fill:url(#SVGID_5_);}
	.st8{fill:url(#SVGID_6_);}
	.st9{fill:url(#SVGID_7_);}
	.st10{fill:url(#SVGID_8_);}
	.st11{fill:url(#SVGID_9_);}
	.st12{fill:url(#SVGID_10_);}
	.st13{fill:url(#SVGID_11_);}
	.st14{fill:url(#SVGID_12_);}
	.st15{fill:url(#SVGID_13_);}
	.st16{fill:#FFFFFF;}
</style>
<g id="图片加载失败">
	<g id="背景_16_">
		<linearGradient y2="349.0302" x2="344.753" y1="503.3304" x1="344.753" gradientUnits="userSpaceOnUse" id="SVGID_1_">
			<stop style="stop-color:#F7F7F7;stop-opacity:0" offset="0"></stop>
			<stop style="stop-color:#C8C9C9;stop-opacity:0.2835" offset="1"></stop>
		</linearGradient>
		<path d="M75.68,430.22c0,0,25.58-81.77,112.42-81.18s138,38.09,179.05,36.33c41.04-1.76,85.06-19.89,127.89-18.44
			c42.83,1.45,48.49,18.15,77.42,27.08c21.95,6.77,31.18,1.73,38.91,14.62s8.58,47.05-30.68,53.49s-162.99,50.98-296.82,39.26
			C150.03,489.66,60.05,460.52,75.68,430.22z" class="st0"></path>
		<ellipse ry="36" rx="240.44" cy="451.69" cx="342.51" class="st1"></ellipse>
		<path d="M151.23,308.69c0,0-0.89,7.44,1.56,10.78c0.87,1.19,5.94,3.71,6.26,9.67c0.32,5.93-2.15,16.78-17.7,17.44
			c-14.37,0.62-33.11-4.33-27.78-25.78c3.39-11.17,14-8.9,12.92-27.92c-0.24-12.97,6.37-26.39,10.86-25.82
			c4.15,0.52,4.35,6.94,7.26,12.07C146.65,282.76,151.93,287.23,151.23,308.69z" class="st2"></path>
		<path d="M135.98,364.55c0,1.44,2.63,1.76,2.56-0.97c-0.07-2.73-0.16-10.74-0.62-14.89c-0.13-1.21-0.78-3.84-0.67-4.5
			c0.28-1.64,2.44-6.67,2.93-8.26c0.5-1.64,3.11-11.2,2.29-22.62c-0.74-10.4-1.41-10.38-2.52-10.31c-1.11,0.08-0.01,6.15,0.22,9.85
			c0.21,3.42,0.31,8.07-0.23,12.71c-0.6,5.12-1.85,10-3.42,14.68c-0.18,0.54-1.41,2.29-2.89-0.59c-1.48-2.88-8.71-13.08-4.56-22.89
			c1.27-3-0.64-2.57-2.15,0.27c-1.11,2.08-1.94,5.72-1.41,8.87c1.26,7.43,5.93,15.13,6.59,16.08c0.94,1.36,2.6,3.5,2.91,5
			C135.7,350.33,135.98,364.55,135.98,364.55z" class="st3"></path>
		<path d="M568.81,336.69c0,0-0.89,7.44,1.56,10.78c0.87,1.19,5.94,3.71,6.26,9.67c0.32,5.93-2.15,16.78-17.7,17.44
			c-14.37,0.62-33.11-4.33-27.78-25.78c3.39-11.17,14-8.9,12.92-27.92c-0.24-12.97,6.37-26.39,10.86-25.82
			c4.15,0.52,4.35,6.94,7.26,12.07C564.23,310.76,569.51,315.23,568.81,336.69z" class="st2"></path>
		<path d="M554.56,392.55c0,1.44,2.63,1.76,2.56-0.97c-0.07-2.73-0.16-10.74-0.62-14.89c-0.13-1.21-0.78-3.84-0.67-4.5
			c0.28-1.64,2.44-6.67,2.93-8.26c0.5-1.64,3.11-11.2,2.29-22.62c-0.74-10.4-1.41-10.38-2.52-10.31c-1.11,0.08-0.01,6.15,0.22,9.85
			c0.21,3.42,0.31,8.07-0.23,12.71c-0.6,5.12-1.85,10-3.42,14.68c-0.18,0.54-1.41,2.29-2.89-0.59c-1.48-2.88-8.71-13.08-4.56-22.89
			c1.27-3-0.64-2.57-2.15,0.27c-1.11,2.08-1.94,5.72-1.41,8.87c1.26,7.43,5.93,15.13,6.59,16.08c0.94,1.36,2.6,3.5,2.91,5
			C554.28,378.33,554.56,392.55,554.56,392.55z" class="st3"></path>
		<linearGradient y2="210.7033" x2="140.876" y1="186.4736" x1="149.6949" gradientUnits="userSpaceOnUse" id="SVGID_2_">
			<stop style="stop-color:#9FD8F4;stop-opacity:0.6" offset="0"></stop>
			<stop style="stop-color:#84BCE5;stop-opacity:0.726" offset="0.315"></stop>
			<stop style="stop-color:#4478BD" offset="1"></stop>
		</linearGradient>
		<circle r="12.89" cy="198.59" cx="145.29" class="st4"></circle>
		<linearGradient y2="341.1769" x2="94.942" y1="322.3257" x1="101.8033" gradientUnits="userSpaceOnUse" id="SVGID_3_">
			<stop style="stop-color:#9FD8F4;stop-opacity:0.6" offset="0"></stop>
			<stop style="stop-color:#84BCE5;stop-opacity:0.726" offset="0.315"></stop>
			<stop style="stop-color:#4478BD" offset="1"></stop>
		</linearGradient>
		<circle r="10.03" cy="331.75" cx="98.37" class="st5"></circle>
		<linearGradient y2="390.9345" x2="528.3598" y1="357.0441" x1="540.6949" gradientUnits="userSpaceOnUse" id="SVGID_4_">
			<stop style="stop-color:#CAE9F8" offset="0"></stop>
			<stop style="stop-color:#A8CAE9" offset="0.4085"></stop>
			<stop style="stop-color:#6F98CF" offset="1"></stop>
		</linearGradient>
		<circle r="18.03" cy="373.99" cx="534.53" class="st6"></circle>
	</g>
	<g>
		
			<linearGradient gradientTransform="matrix(-0.9363 -0.1823 0.1848 -0.9492 3566.2046 1093.2876)" y2="76.0761" x2="3305.5059" y1="299.0688" x1="3502.1387" gradientUnits="userSpaceOnUse" id="SVGID_5_">
			<stop style="stop-color:#9FD8F4" offset="0"></stop>
			<stop style="stop-color:#84BCE5" offset="0.2611"></stop>
			<stop style="stop-color:#4477BC" offset="0.8357"></stop>
			<stop style="stop-color:#2E65B0" offset="1"></stop>
		</linearGradient>
		<path d="M513.91,222.84L475.83,418.4c-1.54,7.93-9.13,13.12-16.95,11.59l-129.06-25.14L314.9,335.8l56-82.28
			l-26.33-77.17l3.41-8.69L497.55,198C508.84,200.29,516.14,211.38,513.91,222.84z" class="st7"></path>
		<linearGradient y2="302.5366" x2="505.5206" y1="302.5366" x1="312.7816" gradientUnits="userSpaceOnUse" id="SVGID_6_">
			<stop style="stop-color:#EAF6FD" offset="0"></stop>
			<stop style="stop-color:#E2F1FB" offset="0"></stop>
			<stop style="stop-color:#DEEEFA" offset="0"></stop>
			<stop style="stop-color:#DAEBF8" offset="0.033"></stop>
			<stop style="stop-color:#BDD6EF" offset="0.2879"></stop>
			<stop style="stop-color:#A8C8E9" offset="0.5378"></stop>
			<stop style="stop-color:#9ABFE5" offset="0.7786"></stop>
			<stop style="stop-color:#96BCE4" offset="1"></stop>
		</linearGradient>
		<path d="M505.25,223.18l-37.81,194.17c-1.48,7.62-8.78,12.6-16.29,11.14l-124.04-24.16l-14.33-66.38l53.83-79.08
			l-22.03-82.53l149.86,30.41C501.9,208.27,506.73,215.6,505.25,223.18z" class="st8"></path>
		
			<linearGradient gradientTransform="matrix(-0.9363 -0.1823 0.1848 -0.9492 3566.2046 1093.2876)" y2="57.4931" x2="3494.3721" y1="250.3869" x1="3664.4639" gradientUnits="userSpaceOnUse" id="SVGID_7_">
			<stop style="stop-color:#9FD8F4" offset="0"></stop>
			<stop style="stop-color:#84BCE5" offset="0.2611"></stop>
			<stop style="stop-color:#4477BC" offset="0.8357"></stop>
			<stop style="stop-color:#2E65B0" offset="1"></stop>
		</linearGradient>
		<path d="M280.62,172.04l-78.35,4.91c-7.42,0.47-13.18,6.76-13.08,14.28l9,209.11c0.11,8.72,7.97,15.18,16.43,13.52
			l87.72-10.57l6.03-7.8l-26.2-57.7l38.38-82.41L280.62,172.04z" class="st9"></path>
		
			<linearGradient gradientTransform="matrix(-0.9363 -0.1823 0.1848 -0.9492 3566.2046 1093.2876)" y2="26.7057" x2="3545.0186" y1="272.068" x1="3593.4536" gradientUnits="userSpaceOnUse" id="SVGID_8_">
			<stop style="stop-color:#EAF6FD" offset="0"></stop>
			<stop style="stop-color:#E2F1FB" offset="0"></stop>
			<stop style="stop-color:#DEEEFA" offset="0"></stop>
			<stop style="stop-color:#DAEBF8" offset="0.033"></stop>
			<stop style="stop-color:#BDD6EF" offset="0.2879"></stop>
			<stop style="stop-color:#A8C8E9" offset="0.5378"></stop>
			<stop style="stop-color:#9ABFE5" offset="0.7786"></stop>
			<stop style="stop-color:#96BCE4" offset="1"></stop>
		</linearGradient>
		<path d="M274.6,179.84l-72.18,4.5c-7.42,0.47-13.18,6.76-13.08,14.28l2.84,209.52c0.11,8.72,7.97,15.18,16.43,13.52
			l93.74-18.36l-26.2-57.7l38.38-82.41L274.6,179.84z" class="st10"></path>
		
			<linearGradient gradientTransform="matrix(-0.9363 -0.1823 0.1848 -0.9492 3566.2046 1093.2876)" y2="77.4593" x2="3403.0715" y1="212.6732" x1="3429.759" gradientUnits="userSpaceOnUse" id="SVGID_9_">
			<stop style="stop-color:#9FD8F4" offset="0"></stop>
			<stop style="stop-color:#90C9EC" offset="0.1992"></stop>
			<stop style="stop-color:#6CA2D6" offset="0.5996"></stop>
			<stop style="stop-color:#4478BD" offset="1"></stop>
		</linearGradient>
		<path d="M402.15,386.08l68.94,12.75l4.58-23.53l-65.66-101.24c-5.61-8.65-17.29-10.67-25.49-4.4l-52.06,39.78
			l-19.69,28.51L402.15,386.08z" class="st11"></path>
		
			<linearGradient gradientTransform="matrix(-0.9363 -0.1823 0.1848 -0.9492 3566.2046 1093.2876)" y2="78.8696" x2="3551.7124" y1="124.9755" x1="3592.3687" gradientUnits="userSpaceOnUse" id="SVGID_10_">
			<stop style="stop-color:#9FD8F4" offset="0"></stop>
			<stop style="stop-color:#84BCE5" offset="0.2611"></stop>
			<stop style="stop-color:#4477BC" offset="0.8357"></stop>
			<stop style="stop-color:#2E65B0" offset="1"></stop>
		</linearGradient>
		<path d="M280.57,322.24l8.94-5.32l3.92-8.71L282,298.84c-6.84-5.61-16.82-4.89-22.85,1.66l-67.5,73.15l0.29,16.28
			l30.06,0.66L280.57,322.24z" class="st12"></path>
		
			<linearGradient gradientTransform="matrix(-0.9363 -0.1823 0.1848 -0.9492 3566.2046 1093.2876)" y2="59.1804" x2="3411.6597" y1="202.5824" x1="3411.6597" gradientUnits="userSpaceOnUse" id="SVGID_11_">
			<stop style="stop-color:#EAF1F9" offset="0"></stop>
			<stop style="stop-color:#FEFFFF" offset="0.5247"></stop>
			<stop style="stop-color:#E8EEF8" offset="1"></stop>
		</linearGradient>
		<path d="M312.77,337.95l0.49-0.72l75.75-58.51c4.87-3.76,11.84-2.55,15.16,2.63l68.8,107.61l-5.52,28.36
			c-1.48,7.62-8.78,12.6-16.29,11.14l-124.04-24.16L312.77,337.95z" class="st13"></path>
		
			<linearGradient gradientTransform="matrix(-0.9363 -0.1823 0.1848 -0.9492 3566.2046 1093.2876)" y2="17.0923" x2="3554.9797" y1="149.0123" x1="3554.9797" gradientUnits="userSpaceOnUse" id="SVGID_12_">
			<stop style="stop-color:#EAF6FD" offset="0"></stop>
			<stop style="stop-color:#E2F1FB" offset="0.3918"></stop>
			<stop style="stop-color:#CDE1F4" offset="1"></stop>
		</linearGradient>
		<path d="M191.93,389.91l72.97-81c3.87-4.3,10.42-4.68,14.71-0.84l9.89,8.85l-13.36,28.69l26.2,57.71l-93.74,18.36
			c-8.46,1.66-16.32-4.81-16.43-13.52L191.93,389.91z" class="st14"></path>
		
			<linearGradient gradientTransform="matrix(0.9544 -2.447360e-03 2.447360e-03 -0.9665 78.0616 761.3735)" y2="556.1736" x2="158.4886" y1="514.1901" x1="201.0026" gradientUnits="userSpaceOnUse" id="SVGID_13_">
			<stop style="stop-color:#9FD8F4" offset="0"></stop>
			<stop style="stop-color:#84BCE5" offset="0.2611"></stop>
			<stop style="stop-color:#4477BC" offset="0.8357"></stop>
			<stop style="stop-color:#2E65B0" offset="1"></stop>
		</linearGradient>
		<path d="M222.95,238.23c3.05-15.66,18.04-25.91,33.49-22.9c15.44,3.01,25.49,18.14,22.45,33.8
			c-3.05,15.66-18.04,25.91-33.49,22.9C229.95,269.02,219.9,253.89,222.95,238.23z" class="st15"></path>
		
			<ellipse ry="26" rx="26.36" cy="246.19" cx="248.42" class="st16" transform="matrix(0.1911 -0.9816 0.9816 0.1911 -40.6979 442.9856)"></ellipse>
	</g>
</g>
</svg>
