<svg xml:space="preserve" style="enable-background:new 0 0 680.31 680.31;" viewBox="0 0 680.31 680.31" y="0px" x="0px" xmlns:xlink="http://www.w3.org/1999/xlink" xmlns="http://www.w3.org/2000/svg" id="图层_1" version="1.1">
<style type="text/css">
	.st0{fill:url(#SVGID_1_);}
	.st1{fill:#E6E9F5;}
	.st2{fill:#ECEEF1;}
	.st3{fill:#D6DBE3;}
	.st4{opacity:0.8;fill:url(#SVGID_2_);}
	.st5{opacity:0.8;fill:url(#SVGID_3_);}
	.st6{fill:url(#SVGID_4_);}
	.st7{fill:url(#SVGID_5_);}
	.st8{fill:url(#SVGID_6_);}
	.st9{fill:url(#SVGID_7_);}
	.st10{fill:url(#SVGID_8_);}
</style>
<g id="没有权限">
	<g id="背景_10_">
		<linearGradient y2="371.0047" x2="344.9104" y1="525.3049" x1="344.9104" gradientUnits="userSpaceOnUse" id="SVGID_1_">
			<stop style="stop-color:#F7F7F7;stop-opacity:0" offset="0"></stop>
			<stop style="stop-color:#C8C9C9;stop-opacity:0.2835" offset="1"></stop>
		</linearGradient>
		<path d="M75.83,452.19c0,0,25.58-81.77,112.42-81.18s138,38.09,179.05,36.33c41.04-1.76,85.06-19.89,127.89-18.44
			c42.83,1.45,48.49,18.15,77.42,27.08c21.95,6.77,31.18,1.73,38.91,14.62c7.73,12.89,8.58,47.05-30.68,53.49
			c-39.26,6.45-162.99,50.98-296.82,39.26C150.19,511.63,60.21,482.5,75.83,452.19z" class="st0"></path>
		<ellipse ry="36" rx="240.44" cy="473.67" cx="342.67" class="st1"></ellipse>
		<path d="M151.38,330.67c0,0-0.89,7.44,1.56,10.78c0.87,1.19,5.94,3.71,6.26,9.67c0.32,5.93-2.15,16.78-17.7,17.44
			c-14.37,0.62-33.11-4.33-27.78-25.78c3.39-11.17,14-8.9,12.92-27.92c-0.24-12.97,6.37-26.39,10.86-25.82
			c4.15,0.52,4.35,6.94,7.26,12.07C146.8,304.73,152.09,309.21,151.38,330.67z" class="st2"></path>
		<path d="M136.14,386.52c0,1.44,2.63,1.76,2.56-0.97c-0.07-2.73-0.16-10.74-0.62-14.89c-0.13-1.21-0.78-3.84-0.67-4.5
			c0.28-1.64,2.44-6.67,2.93-8.26c0.5-1.64,3.11-11.2,2.29-22.62c-0.74-10.4-1.41-10.38-2.52-10.31c-1.11,0.08-0.01,6.15,0.22,9.85
			c0.21,3.42,0.31,8.07-0.23,12.71c-0.6,5.12-1.85,10-3.42,14.68c-0.18,0.54-1.41,2.29-2.89-0.59c-1.48-2.88-8.71-13.08-4.56-22.89
			c1.27-3-0.64-2.57-2.15,0.27c-1.11,2.08-1.94,5.72-1.41,8.87c1.26,7.43,5.93,15.13,6.59,16.08c0.94,1.36,2.6,3.5,2.91,5
			C135.86,372.31,136.14,386.52,136.14,386.52z" class="st3"></path>
		<path d="M568.96,358.67c0,0-0.89,7.44,1.56,10.78c0.87,1.19,5.94,3.71,6.26,9.67c0.32,5.93-2.15,16.78-17.7,17.44
			c-14.37,0.62-33.11-4.33-27.78-25.78c3.39-11.17,14-8.9,12.92-27.92c-0.24-12.97,6.37-26.39,10.86-25.82
			c4.15,0.52,4.35,6.94,7.26,12.07C564.38,332.73,569.67,337.21,568.96,358.67z" class="st2"></path>
		<path d="M554.72,414.52c0,1.44,2.63,1.76,2.56-0.97c-0.07-2.73-0.16-10.74-0.62-14.89c-0.13-1.21-0.78-3.84-0.67-4.5
			c0.28-1.64,2.44-6.67,2.93-8.26c0.5-1.64,3.11-11.2,2.29-22.62c-0.74-10.4-1.41-10.38-2.52-10.31c-1.11,0.08-0.01,6.15,0.22,9.85
			c0.21,3.42,0.31,8.07-0.23,12.71c-0.6,5.12-1.85,10-3.42,14.68c-0.18,0.54-1.41,2.29-2.89-0.59c-1.48-2.88-8.71-13.08-4.56-22.89
			c1.27-3-0.64-2.57-2.15,0.27c-1.11,2.08-1.94,5.72-1.41,8.87c1.26,7.43,5.93,15.13,6.59,16.08c0.94,1.36,2.6,3.5,2.91,5
			C554.44,400.31,554.72,414.52,554.72,414.52z" class="st3"></path>
		<linearGradient y2="363.1513" x2="545.4699" y1="344.3002" x1="552.3312" gradientUnits="userSpaceOnUse" id="SVGID_2_">
			<stop style="stop-color:#9FD8F4;stop-opacity:0.6" offset="0"></stop>
			<stop style="stop-color:#84BCE5;stop-opacity:0.726" offset="0.315"></stop>
			<stop style="stop-color:#4478BD" offset="1"></stop>
		</linearGradient>
		<circle r="10.03" cy="353.73" cx="548.9" class="st4"></circle>
		<linearGradient y2="232.6778" x2="496.767" y1="208.448" x1="505.5859" gradientUnits="userSpaceOnUse" id="SVGID_3_">
			<stop style="stop-color:#9FD8F4;stop-opacity:0.6" offset="0"></stop>
			<stop style="stop-color:#84BCE5;stop-opacity:0.726" offset="0.315"></stop>
			<stop style="stop-color:#4478BD" offset="1"></stop>
		</linearGradient>
		<circle r="12.89" cy="220.56" cx="501.18" class="st5"></circle>
		<linearGradient y2="412.909" x2="106.6207" y1="379.0186" x1="118.9557" gradientUnits="userSpaceOnUse" id="SVGID_4_">
			<stop style="stop-color:#CAE9F8" offset="0"></stop>
			<stop style="stop-color:#A8CAE9" offset="0.4085"></stop>
			<stop style="stop-color:#6F98CF" offset="1"></stop>
		</linearGradient>
		<circle r="18.03" cy="395.96" cx="112.79" class="st6"></circle>
	</g>
	<g>
		
			<linearGradient gradientTransform="matrix(1 0 0 -1 0 682)" y2="381.0448" x2="471.2302" y1="381.0448" x1="206.1002" gradientUnits="userSpaceOnUse" id="SVGID_5_">
			<stop style="stop-color:#CAE3F4" offset="0.1004"></stop>
			<stop style="stop-color:#B8D4ED" offset="0.3075"></stop>
			<stop style="stop-color:#88AEDB" offset="0.7225"></stop>
			<stop style="stop-color:#6294CE" offset="1"></stop>
		</linearGradient>
		<path d="M463.94,206.18c-35.12-4.43-47.1-33.75-49.37-48.6c-0.5-3.27-3-5.86-6.24-6.51
			c-29.16-5.82-65.44-5.1-69.65-4.99c-4.2-0.11-40.49-0.83-69.65,4.99c-3.24,0.65-5.74,3.24-6.24,6.51
			c-2.27,14.85-14.25,44.17-49.37,48.6c-3.94,0.5-6.92,3.81-6.93,7.79c-0.04,36.72-0.39,24.92-0.39,55.52
			c0,32.46,9.78,98.56,36.76,124.38c26.12,24.99,54.56,43.62,93.84,61.58l0,0c1.21,0.62,2.64,0.63,3.86,0.04l0.07-0.04
			c39.27-17.96,67.72-36.59,93.84-61.58c26.99-25.81,36.76-91.91,36.76-124.38c0-30.6-0.35-18.8-0.39-55.52
			C470.86,210,467.88,206.68,463.94,206.18z" class="st7"></path>
		
			<linearGradient gradientTransform="matrix(1 0 0 -1 0 682)" y2="381.0443" x2="448.4501" y1="381.0443" x1="228.8801" gradientUnits="userSpaceOnUse" id="SVGID_6_">
			<stop style="stop-color:#ACD7F3" offset="0"></stop>
			<stop style="stop-color:#9BC6EA" offset="0.1798"></stop>
			<stop style="stop-color:#6F9BD2" offset="0.5425"></stop>
			<stop style="stop-color:#2C64B0" offset="1"></stop>
		</linearGradient>
		<path d="M442.42,222.47c-29.08-3.67-39.01-27.95-40.89-40.25c-0.41-2.71-2.48-4.85-5.17-5.39
			c-24.15-4.82-54.2-4.22-57.68-4.13c-3.48-0.09-33.53-0.69-57.68,4.13c-2.69,0.54-4.75,2.68-5.17,5.39
			c-1.88,12.3-11.8,36.58-40.89,40.25c-3.27,0.41-5.73,3.16-5.74,6.45c-0.03,30.41-0.32,20.64-0.32,45.98
			c0,26.88,8.1,81.63,30.45,103c21.63,20.69,45.19,36.12,77.71,51l0,0c1,0.51,2.18,0.52,3.19,0.03l0.06-0.03
			c32.53-14.87,56.08-30.3,77.71-51c22.35-21.38,30.45-76.12,30.45-103c0-25.34-0.29-15.57-0.32-45.98
			C448.15,225.63,445.68,222.88,442.42,222.47z" class="st8"></path>
		
			<linearGradient gradientTransform="matrix(1 0 0 -1 0 682)" y2="369.4688" x2="380.4702" y1="369.4688" x1="296.9001" gradientUnits="userSpaceOnUse" id="SVGID_7_">
			<stop style="stop-color:#FFFFFF" offset="0.0554"></stop>
			<stop style="stop-color:#DBE6F4" offset="1"></stop>
		</linearGradient>
		<path d="M373.99,278.5h-70.61c-3.58,0-6.48,2.9-6.48,6.48v55.11c0,3.58,2.9,6.48,6.48,6.48h70.61
			c3.58,0,6.48-2.9,6.48-6.48v-55.11C380.47,281.4,377.57,278.5,373.99,278.5z M342.66,311.8l0.86,19.26h-9.98l0.83-19.34
			c-2.34-1.43-3.91-3.99-3.91-6.94c0-4.49,3.64-8.12,8.12-8.12c4.49,0,8.12,3.64,8.12,8.12C346.7,307.78,345.07,310.39,342.66,311.8
			z" class="st9"></path>
		<g>
			
				<linearGradient gradientTransform="matrix(1 0 0 -1 0 682)" y2="432.1339" x2="372.9802" y1="432.1339" x1="304.4001" gradientUnits="userSpaceOnUse" id="SVGID_8_">
				<stop style="stop-color:#FFFFFF" offset="0.0554"></stop>
				<stop style="stop-color:#DBE6F4" offset="1"></stop>
			</linearGradient>
			<path d="M372.97,270.68h-14.42v-7.33c0-10.95-8.91-19.87-19.87-19.87c-10.95,0-19.86,8.91-19.86,19.87v7.33H304.4
				v-7.33c0-18.91,15.38-34.29,34.29-34.29s34.29,15.38,34.29,34.29v7.33H372.97z" class="st10"></path>
		</g>
	</g>
</g>
</svg>
