<svg viewBox="0 0 240 240" xmlns:xlink="http://www.w3.org/1999/xlink" xmlns="http://www.w3.org/2000/svg"><defs><style>.f70256db-8c0d-4726-aa81-d7e81211214f{fill:url(#b007d301-fa61-4314-b429-ded92d9415df);}.bdef9936-97f7-4f43-a330-3fa724aafefc{fill:url(#be2cd07f-28a5-4514-b4fb-b4f10728a9b7);}.f705475b-3096-4511-8dc0-b2753e58189b{fill:url(#bb23799f-5666-4d5a-a3ed-b4d22d857919);}.b47de318-47ef-4340-a011-b281a4e144e0{fill:url(#bc9fb5c3-48c8-4367-9562-a4c3e2b2d647);}.a603716e-7144-4fc0-82f6-ae1eedf2bf17{fill:url(#b3edbcd2-f133-44c5-88b4-802d501a6133);}.b1b65373-46d2-4ec3-afda-6f7c575010bc{fill:url(#a0bf7c3c-1611-4b38-8e24-ab1686b41212);}.a7dac4d0-3987-4618-8950-3bf2a471b5bd{fill:url(#bf2ff7cd-9bae-46e8-921c-c9a5e8f49555);}.b48a9a08-5823-4302-90b4-dbe5e5c51ae6,.f2aaf359-de5a-4009-9966-a1cc35192bfa,.f952e088-d19c-4100-af00-3f2be765b2cd{fill:none;}.f2aaf359-de5a-4009-9966-a1cc35192bfa,.f952e088-d19c-4100-af00-3f2be765b2cd{stroke:#f2f6fa;}.b48a9a08-5823-4302-90b4-dbe5e5c51ae6,.f952e088-d19c-4100-af00-3f2be765b2cd{stroke-miterlimit:10;}.f2aaf359-de5a-4009-9966-a1cc35192bfa{stroke-linecap:round;stroke-linejoin:round;stroke-width:2px;}.e1d04f03-201d-471b-916c-2875fc0be651{fill:#f2f2f2;}.fff286d5-c1c3-4229-bc47-3762f0080a5a{fill:#dfdfdf;}.b48a9a08-5823-4302-90b4-dbe5e5c51ae6{stroke:#f2f2f2;}.a01f0c00-07f9-4f4a-ace4-4b22b4bbda7f{fill:url(#a009fa03-ff54-402d-88b6-12de0190d933);}.a7af1648-1954-446e-8b80-d4c85e8600da{fill:url(#b334999d-5b86-4954-a906-84dca4ca7321);}.aab1a20c-93a9-4ec3-97e1-c4f9b1b5dbb0{fill:url(#afbfa225-aaf5-4e06-b1d0-dd8d89eec3f8);}.ba23eb02-bbfb-4d64-915e-76f6828290ab{fill:url(#ff4441a6-fdee-4ddf-aeb9-11bdceec04d1);}.b44d0be3-945f-40c5-b85b-e1b845201e99{fill:url(#fb44d604-d5cd-4628-84c3-e584381b7de0);}.ea603258-7abb-421f-9895-fae675caf5bb{fill:url(#e0ec1ff0-1066-4e14-aa59-077e340b8ea7);}.bec31076-00f2-45d7-80ee-31019fb14e7d{fill:url(#bed7357b-e2b6-4c9c-b4d3-934b567ba505);}.b2243ace-7554-49b7-8b6a-fbffad17ee4e{fill:url(#ba66a63b-d8fb-436c-be47-ff50aedd8bff);}.ec790b3c-a434-4a87-bc4b-665dbd5752ed{fill:#fef2e3;}.bb3c1379-e979-4b00-b09e-fb003705952a{fill:#769bdd;}.a8dbf222-e00b-4f9c-957f-6bb16b2bf7d3{fill:#45487a;}.f3953d66-b749-4a8f-b023-059279a4c4f2{fill:#8faded;}.fcdd3e67-66d3-4a9e-97e0-06ae72cd28f5{fill:#fda268;}.b3d3e55d-98ba-4915-9cd3-638d59062ba2{fill:url(#bab89364-9435-4146-9356-9fb1d234de33);}.bd4bc1fc-b78c-419a-9dec-80648711ff4c{fill:#222b55;}</style><linearGradient gradientUnits="userSpaceOnUse" y2="85.58" x2="90.56" y1="85.58" x1="27.82" id="b007d301-fa61-4314-b429-ded92d9415df"><stop stop-opacity="0" stop-color="#f2f6fa" offset="0"></stop><stop stop-opacity="0.5" stop-color="#e6e6e6" offset="0.7"></stop></linearGradient><linearGradient gradientUnits="userSpaceOnUse" y2="-1.63" x2="180.08" y1="106.66" x1="119.13" id="be2cd07f-28a5-4514-b4fb-b4f10728a9b7"><stop stop-color="#fff" offset="0"></stop><stop stop-color="#94c4ff" offset="1"></stop></linearGradient><linearGradient xlink:href="#b007d301-fa61-4314-b429-ded92d9415df" gradientTransform="translate(349.61 -338.66) rotate(-42.67)" y2="150.2" x2="-541.21" y1="150.2" x1="-562.14" id="bb23799f-5666-4d5a-a3ed-b4d22d857919"></linearGradient><linearGradient xlink:href="#b007d301-fa61-4314-b429-ded92d9415df" y2="138.53" x2="222.23" y1="138.53" x1="186.4" id="bc9fb5c3-48c8-4367-9562-a4c3e2b2d647"></linearGradient><linearGradient gradientUnits="userSpaceOnUse" y2="62.85" x2="120" y1="297.85" x1="120" id="b3edbcd2-f133-44c5-88b4-802d501a6133"><stop stop-opacity="0.9" stop-color="#f4f4f4" offset="0.01"></stop><stop stop-opacity="0.7" stop-color="#dfdfdf" offset="0.78"></stop></linearGradient><linearGradient xlink:href="#b007d301-fa61-4314-b429-ded92d9415df" y2="35.95" x2="193.02" y1="35.95" x1="156.51" id="a0bf7c3c-1611-4b38-8e24-ab1686b41212"></linearGradient><linearGradient gradientUnits="userSpaceOnUse" y2="129.76" x2="131.75" y1="218.04" x1="147.09" id="bf2ff7cd-9bae-46e8-921c-c9a5e8f49555"><stop stop-opacity="0" stop-color="#dfdfdf" offset="0.2"></stop><stop stop-color="#ccc" offset="0.83"></stop></linearGradient><linearGradient xlink:href="#be2cd07f-28a5-4514-b4fb-b4f10728a9b7" y2="-1.17" x2="165.12" y1="118.03" x1="130.01" id="a009fa03-ff54-402d-88b6-12de0190d933"></linearGradient><linearGradient gradientUnits="userSpaceOnUse" y2="123.32" x2="178.01" y1="123.32" x1="76.09" id="b334999d-5b86-4954-a906-84dca4ca7321"><stop stop-color="#eaeaea" offset="0"></stop><stop stop-color="#fff" offset="0.74"></stop></linearGradient><linearGradient gradientUnits="userSpaceOnUse" y2="109.24" x2="155.58" y1="109.24" x1="98.52" id="afbfa225-aaf5-4e06-b1d0-dd8d89eec3f8"><stop stop-color="#dfdfdf" offset="0"></stop><stop stop-color="#e7e7e7" offset="0.32"></stop><stop stop-color="#e4e4e4" offset="1"></stop></linearGradient><linearGradient xlink:href="#afbfa225-aaf5-4e06-b1d0-dd8d89eec3f8" y2="121.37" x2="126.92" y1="121.37" x1="98.52" id="ff4441a6-fdee-4ddf-aeb9-11bdceec04d1"></linearGradient><linearGradient gradientUnits="userSpaceOnUse" y2="141.2" x2="188.29" y1="117.85" x1="67.63" id="fb44d604-d5cd-4628-84c3-e584381b7de0"><stop stop-color="#fff" offset="0"></stop><stop stop-color="#e4e4e4" offset="0.34"></stop><stop stop-color="#d3d3d3" offset="0.81"></stop></linearGradient><linearGradient gradientUnits="userSpaceOnUse" y2="129.14" x2="186.74" y1="129.14" x1="64.07" id="e0ec1ff0-1066-4e14-aa59-077e340b8ea7"><stop stop-color="#e7e7e7" offset="0"></stop><stop stop-color="#e6e6e6" offset="0.45"></stop><stop stop-color="#ccc" offset="1"></stop></linearGradient><linearGradient gradientUnits="userSpaceOnUse" y2="149.36" x2="186.76" y1="149.36" x1="65.47" id="bed7357b-e2b6-4c9c-b4d3-934b567ba505"><stop stop-color="#f2f2f2" offset="0.01"></stop><stop stop-color="#dfdfdf" offset="1"></stop></linearGradient><linearGradient gradientUnits="userSpaceOnUse" gradientTransform="matrix(0, 0.29, -0.29, 0, 487.57, 642.37)" y2="1068.49" x2="-1613.78" y1="973.11" x1="-1570.91" id="ba66a63b-d8fb-436c-be47-ff50aedd8bff"><stop stop-opacity="0.6" stop-color="#ccc" offset="0"></stop><stop stop-opacity="0" stop-color="#dfdfdf" offset="1"></stop></linearGradient><linearGradient gradientUnits="userSpaceOnUse" y2="158.79" x2="198.44" y1="158.79" x1="172.26" id="bab89364-9435-4146-9356-9fb1d234de33"><stop stop-color="#ff9084" offset="0.21"></stop><stop stop-color="#ffc8ae" offset="0.83"></stop></linearGradient></defs><title>缺省页2号博学堂后台</title><g id="fdec2189-d0d0-40e2-9991-8f37ab2279e1"><path d="M27.86,95.19C29,90.83,33.7,77.61,45.15,85.67c0,0,6.41-21.19,25.67-4.53,0,0,9.78-6.14,14.6,6,0,0,6,2.51,5,7.55L28.87,96.41A1,1,0,0,1,27.86,95.19Z" class="f70256db-8c0d-4726-aa81-d7e81211214f"></path><path d="M66,90.52l53.5-31.44a13.83,13.83,0,0,1,14.06,0l52.76,31.4a3.36,3.36,0,0,1,1.39,1.36,7.11,7.11,0,0,1,.58,2.3H64.07Z" class="bdef9936-97f7-4f43-a330-3fa724aafefc"></path><path d="M44.44,158.52c-4.32-2.87-9.82-8.88-9.94-13.13a2.48,2.48,0,0,1,1.71,1.08s9.68,12.69,5,2.19c-2.19-4.95-5-9.89-6.48-14.75C32,125,39,124.75,44,135.09c.67,1.36,4.74,12.13,6.95,11.65a.81.81,0,0,0,.52-.6c.66-1.86.12-5,2.26-5.14,1.87-.1,4.44,2.35,6.11,4.62,3.39,4.59,5.43,11.35,1.75,13.4s-11.42,3.28-17.06-.47Z" class="f705475b-3096-4511-8dc0-b2753e58189b"></path><path d="M210,131.34s-13.31,15.49-12.88,29.81h4.3S202.94,143.88,210,131.34Zm10.68-20.71c-2.95,3.7-4.84,8.94-3.07,13.63,1.22,3.23,4.9,3.25,4.64,7.74a14.49,14.49,0,0,1-2.25,6.29,47.68,47.68,0,0,1-7.61,10,8.77,8.77,0,0,1,3.3,8.12,14.62,14.62,0,0,1-4.17,8.1,5.76,5.76,0,0,1-2.47,1.77,6.19,6.19,0,0,1-2.84,0A49.16,49.16,0,0,1,192.9,162c-2.62-1.24-5.29-2.94-6.18-5.66-1-3.11.6-4.1,2.37-5.08l.46-.25a6,6,0,0,0,2.35-1.94c1.3-2.12,1.33-5,1.79-7.33.67-3.49-.32-9.85,4.06-11.22,1.69-.53,3.53-.41,5.23-1,3.68-1.17,5.2-4.62,6.67-8.11l.27-.64a21,21,0,0,1,3-5.5C214.81,113.19,219.41,112.13,220.64,110.63Z" class="b47de318-47ef-4340-a011-b281a4e144e0"></path><path d="M237.5,191.31c-16-24-44.43-51.95-117.5-46-91.26,7.44-111.92,35-116.35,44.36a5.34,5.34,0,0,0-1.15,3.14c0,12.43,52.61,22.5,117.5,22.5s117.5-10.07,117.5-22.5a4.66,4.66,0,0,0-.27-1.5Z" class="a603716e-7144-4fc0-82f6-ae1eedf2bf17"></path><path d="M156.51,41.57s3.08-8.64,8.23-5.35c0,0,5.89-11,16.73-2.88,0,0,5.1-1.48,7.81,4.49,0,0,2.68-.45,3.74,1.54Z" class="b1b65373-46d2-4ec3-afda-6f7c575010bc"></path><path d="M63.89,162.88s11.73,36.93,79.58,42.79l73.21-10.86S193.25,169.87,179.12,165C147.4,154.16,63.89,162.88,63.89,162.88Z" class="a7dac4d0-3987-4618-8950-3bf2a471b5bd"></path><circle r="5" cy="72.28" cx="195.37" class="f952e088-d19c-4100-af00-3f2be765b2cd"></circle><line y2="24.69" x2="78.96" y1="31.76" x1="71.89" class="f2aaf359-de5a-4009-9966-a1cc35192bfa"></line><line y2="24.69" x2="71.89" y1="31.76" x1="78.96" class="f2aaf359-de5a-4009-9966-a1cc35192bfa"></line><path d="M28.88,164.74s-10.47-10.32-4.58-8.69,8.51,8.14,8.51,8.14-2.62-11.4,3.28-10.86,1.31,10.32,1.31,10.32S34.12,171.8,28.88,164.74Z" class="e1d04f03-201d-471b-916c-2875fc0be651"></path><path d="M208,160.31s4-14,6-14,5,14,5,14S215,165.31,208,160.31Z" class="fff286d5-c1c3-4229-bc47-3762f0080a5a"></path><rect rx="1" height="10" width="2" y="159.31" x="212.5" class="fff286d5-c1c3-4229-bc47-3762f0080a5a"></rect><path d="M217.39,174.23s2.26-7.92,3.39-7.92,2.83,7.92,2.83,7.92S221.35,177.05,217.39,174.23Z" class="fff286d5-c1c3-4229-bc47-3762f0080a5a"></path><rect rx="0.57" height="5.65" width="1.13" y="173.66" x="219.93" class="fff286d5-c1c3-4229-bc47-3762f0080a5a"></rect><path d="M181.84,47.58c1,8.19-7.94,12.73-9.75,8.07s8-4.18,6.11,1.92-9.69,2.68-9.69,2.68" class="b48a9a08-5823-4302-90b4-dbe5e5c51ae6"></path><path d="M68.44,94.18h119.9a0,0,0,0,1,0,0v69.21a4.37,4.37,0,0,1-4.37,4.37H68.44a4.37,4.37,0,0,1-4.37-4.37V98.54A4.37,4.37,0,0,1,68.44,94.18Z" class="a01f0c00-07f9-4f4a-ace4-4b22b4bbda7f"></path><rect height="66.17" width="101.92" y="90.23" x="76.09" class="a7af1648-1954-446e-8b80-d4c85e8600da"></rect><rect rx="2.08" height="4.17" width="57.06" y="107.15" x="98.52" class="aab1a20c-93a9-4ec3-97e1-c4f9b1b5dbb0"></rect><rect rx="1.65" height="4.17" width="28.41" y="119.29" x="98.52" class="ba23eb02-bbfb-4d64-915e-76f6828290ab"></rect><path d="M65.68,167c14.76-7.47,126.21-64.28,120.69-76.37,0,0,1.4.22,2,3.6v70.87a2.7,2.7,0,0,1-2.7,2.71H65.88A.43.43,0,0,1,65.68,167Z" class="b44d0be3-945f-40c5-b85b-e1b845201e99"></path><path d="M186.47,166.81c-15.78-8-125.92-64.27-120.43-76.29,0,0-1.4.28-2,3.66v71.71a1.87,1.87,0,0,0,1.87,1.87h120.3A.5.5,0,0,0,186.47,166.81Z" class="ea603258-7abb-421f-9895-fae675caf5bb"></path><path d="M65.73,166.78,126.2,131l60.21,35.49a.7.7,0,0,1-.35,1.3H66A.53.53,0,0,1,65.73,166.78Z" class="bec31076-00f2-45d7-80ee-31019fb14e7d"></path><ellipse transform="translate(2.21 355.07) rotate(-86.89)" ry="15.26" rx="4.68" cy="176.37" cx="188.56" class="b2243ace-7554-49b7-8b6a-fbffad17ee4e"></ellipse><path d="M177.09,171.78c.15-.72,2.29-4.36,2.45-4.82s-.89-5.17-1.61-8.48,1.14-9.26,1.14-9.26a12.39,12.39,0,0,0,3.5-.52,1.48,1.48,0,0,0,1.05-1.32c.07-1.13,0-2.42,0-2.42l4.22.09a10.17,10.17,0,0,0,.07,2.65,1.15,1.15,0,0,0,.87,1c1.51.38,2.57.23,4.2,1,0,0,0,.18-.06.5l0,0a58.24,58.24,0,0,0-.44,6c0,2.76-1.72,9.61-2,10.92l0,.26c1.12,1.84,2.72,4.5,2.72,4.5S176.93,172.51,177.09,171.78Z" class="ec790b3c-a434-4a87-bc4b-665dbd5752ed"></path><path d="M171.71,175.29a32.78,32.78,0,0,0,9.47,4.85s4.49.08,9.58,0,9.79-6,9.79-6-4.13-.05-5.26-1a19.8,19.8,0,0,1-2.66-2.88c-.67-.84-1.32-1.73-1.89-2.54,0,0-1.17,1.1-5.91,1s-5.91-.62-5.91-.62-.56.66-1.3,1.5c-.89,1-2,2.28-2.78,3Z" class="bb3c1379-e979-4b00-b09e-fb003705952a"></path><path d="M171.18,175.14c1.18,1,4.69,2.15,8,3.05.93.25,1.84.48,2.69.68s2.29.73,3.94,1.3a7,7,0,0,0,4.51.22c1.15-.2,2.45.61,4.16,0s1.28-4,1.28-4a4.9,4.9,0,0,0-4.35.61,5.85,5.85,0,0,1-3.57.88,1.27,1.27,0,0,1-.52-.24,41.72,41.72,0,0,1-4.21-3c-.88-.7-1.89-1.54-3-2.52-2.15-1.88-4-4.35-6.16-4.81-3.66-.78-5,.65-5,.65S168.07,172.45,171.18,175.14Z" class="a8dbf222-e00b-4f9c-957f-6bb16b2bf7d3"></path><path d="M186.13,175.8s-8.32-7.44-10.92-8.37-5.65-.55-6.2.2a5.15,5.15,0,0,0-.16,4.07c.51,1.62,1.72,4.18,4.53,4.9s9.78,3.07,9.78,3.07l3.33-1.77Z" class="f3953d66-b749-4a8f-b023-059279a4c4f2"></path><path d="M176.84,177.19s.07,2.93,1.15,3.28c1.48.48,2.64-.29,3.86-.07a7.24,7.24,0,0,0,4.67-.32c1.63-.57,3.16-1.06,4-1.32l1.28-.35c3.27-.92,7-2.16,8.17-3.27,2.88-2.69,1.78-7.46,1.78-7.46s-.94-1.2-4.32-.42c-2,.46-4,2.42-6,4.29-.83.78-1.61,1.5-2.32,2.14-2.49,2.26-4.2,3.66-4.2,3.66h0a1.37,1.37,0,0,1-.53.25,5.62,5.62,0,0,1-3.56-.24C179.24,176.84,177.44,176.78,176.84,177.19Z" class="a8dbf222-e00b-4f9c-957f-6bb16b2bf7d3"></path><path d="M187.78,146s-.83,1.93-2.2,1.81-1.93-1.85-1.93-1.85Z" class="ec790b3c-a434-4a87-bc4b-665dbd5752ed"></path><path d="M184.74,167c0,.26.11.46.25.46s.25-.2.25-.46-.11-.45-.25-.45S184.74,166.72,184.74,167Z" class="fcdd3e67-66d3-4a9e-97e0-06ae72cd28f5"></path><path d="M162.84,161.5s5.75,5.73,8.8,5.36c1.38-.16,2.92-1.74,4.48-3.53.13-.16.38-.6.51-.76a72.88,72.88,0,0,0,5.27-7.35l.32-2.17.53-3.52a5.54,5.54,0,0,0-3.41-.23c-.61.24-1.16-.14-1.42.16-.64.72-3.39,7.86-5.31,11.35-.73,1.33-1.3,2.23-1.51,2.22a27.12,27.12,0,0,1-7.56-2.86l-.66,1.25Z" class="ec790b3c-a434-4a87-bc4b-665dbd5752ed"></path><path d="M163.12,161.8a11.6,11.6,0,0,1-2.72,1c-.62,0-2.69-.47-2.69-.47s.19-.46,1.19-.43,1.78-1.39,2.45-1.64a3.05,3.05,0,0,1,2.19-.05Z" class="ec790b3c-a434-4a87-bc4b-665dbd5752ed"></path><path d="M163.12,160.05a7.41,7.41,0,0,0-2.1-.32,5.88,5.88,0,0,1-1.77.6c-.31,0-.12.26,0,.33a11.44,11.44,0,0,0,2,.3Z" class="ec790b3c-a434-4a87-bc4b-665dbd5752ed"></path><path d="M160.39,162.44c-.09,0-2.52.53-2.52.53s.08-.68.41-.68S160.39,162.44,160.39,162.44Z" class="ec790b3c-a434-4a87-bc4b-665dbd5752ed"></path><path d="M183.69,145.56c1,1.17.95,2.93,4.18.61a6.11,6.11,0,0,0,1.75-3.23,12.15,12.15,0,0,0,.23-2.67,3.6,3.6,0,0,0-2.56-3c-3-.56-4.18,1.3-4.4,2.79C182.41,143.26,182.67,144.37,183.69,145.56Z" class="ec790b3c-a434-4a87-bc4b-665dbd5752ed"></path><path d="M186.88,144.62a1.41,1.41,0,0,1-1,.53c-.56-.05-.71,0-1-.18a1.79,1.79,0,0,1-.42-.66A6.16,6.16,0,0,1,186.88,144.62Z" class="ec790b3c-a434-4a87-bc4b-665dbd5752ed"></path><path d="M184.9,177.36s-.74-1.11.92-2.42,9-7.09,10.76-7.64,4.38-.62,5.23.13.95,5.54-.63,7.29-11.34,5.06-12.47,5.33a3.74,3.74,0,0,1-1.87-.08Z" class="f3953d66-b749-4a8f-b023-059279a4c4f2"></path><path d="M190.36,156.64s.74,1.12,1.78,2.61c.88,1.28,2,2.82,3,4.16.16.21.33.41.49.6,2.1,2.37,4.43,2.73,4.43.69a1.5,1.5,0,0,0,0-.2,9.53,9.53,0,0,0-.79-2.21h0c-.27-.57-.58-1.2-.92-1.85-1.28-2.44-3-5.29-4.08-7.08a4.7,4.7,0,0,1-.62-2.29l-1.11,1.68Z" class="ec790b3c-a434-4a87-bc4b-665dbd5752ed"></path><path d="M193.92,149.88c-1.48-1.1-5.15-1.22-5.15-1.22s-.54,4.36-3.32,4c-1.53-.19-1.81-.21-2.55-1.14a4.78,4.78,0,0,1-.78-2.12.19.19,0,0,0,0-.07,2.74,2.74,0,0,1,0-.64l-.88.24c-.34.08-1.18.08-1.51.14-.14,0-.24-.05-.38,0-.4.16-.9,0-1.2.23h0l-.09.07a2,2,0,0,0-.44.34c-.63.72-3.39,7.86-5.31,11.35l.11.18a5.29,5.29,0,0,0,1.34,1.51,5.09,5.09,0,0,0,1,.6,6,6,0,0,0,1.06.36l.1,0c.22-.24.42-.49.63-.74.63-.78,1.24-1.6,1.81-2.4a.11.11,0,0,0,0,.05c0,.56-.15,2.06,0,4.9s0,2.53,0,2.53l.23.15.45-.09c.06,0,.47.13,1.12.26a26.18,26.18,0,0,0,5.71.52,17.37,17.37,0,0,0,4-.53q.42-.1.84-.24l.31-.11h0s.56.05.81-.88a5.1,5.1,0,0,0,.07-1.66c0-.49,0-1.76.11-3,.11-1.56.25-3.1.25-3.1l.09.15c.78,1.16,1.69,2.43,2.64,3.59l.25.29a4.86,4.86,0,0,0,2-1.12h0a4.31,4.31,0,0,0,1.18-1.85,2.26,2.26,0,0,0,.11-.48h0C196.55,156.37,194.62,150.39,193.92,149.88Z" class="b3d3e55d-98ba-4915-9cd3-638d59062ba2"></path><path d="M199.81,163.68c-.27-.81-2.05-.53-3.35-.13-1.11.34-5.68,4.41-7,5.62l-.18,0a2.34,2.34,0,0,0-.46,0c-.48,0-1,.14-1.48.14s0,.26.41.37c-.4.18-.74.4-.82.68a4.38,4.38,0,0,0-.3,1.4c0,.26.43,1,.64.82s.15-.34.31-.61a1.71,1.71,0,0,1,.84-.62,2.89,2.89,0,0,0,1.07-.5,1.58,1.58,0,0,0,.38-.48,78.28,78.28,0,0,0,9.75-4.11.89.89,0,0,0,.53-.74A5.18,5.18,0,0,0,199.81,163.68Z" class="ec790b3c-a434-4a87-bc4b-665dbd5752ed"></path><path d="M190.28,137.43a2.94,2.94,0,0,0-1.67-2.26,4.19,4.19,0,0,0-2.8-.52,5.23,5.23,0,0,0-2.11.67,3.88,3.88,0,0,0-1.77,3.2c0,.65-.08,1.3-.07,2h0a1.67,1.67,0,0,1,.62.75.32.32,0,0,0,.38.24.31.31,0,0,0,.3-.33,3.81,3.81,0,0,1,0-.59c.12-1.06.66-1.51,1.63-1.36a3.69,3.69,0,0,1,.45.11,3.27,3.27,0,0,0,1.16.18,8.4,8.4,0,0,1,1.58-.11.84.84,0,0,1,.84.8,6.76,6.76,0,0,1,0,1.49c0,.19-.06.39.21.44s.42,0,.53-.24a.91.91,0,0,1,.49-.58s0-.07,0-.11A22.24,22.24,0,0,0,190.28,137.43Z" class="bd4bc1fc-b78c-419a-9dec-80648711ff4c"></path></g></svg>