<svg xml:space="preserve" style="enable-background:new 0 0 680.3 680.3;" viewBox="0 0 680.3 680.3" y="0px" x="0px" xmlns:xlink="http://www.w3.org/1999/xlink" xmlns="http://www.w3.org/2000/svg" id="图层_1" version="1.1">
<style type="text/css">
	.st0{fill:url(#SVGID_1_);}
	.st1{fill:url(#SVGID_2_);}
	.st2{fill:url(#SVGID_3_);}
	.st3{fill:url(#SVGID_4_);}
	.st4{fill:url(#SVGID_5_);}
	.st5{fill:#E6E9F5;}
	.st6{fill:#ECEEF1;}
	.st7{fill:#D6DBE3;}
	.st8{opacity:0.8;fill:url(#SVGID_6_);}
	.st9{opacity:0.8;fill:url(#SVGID_7_);}
	.st10{fill:url(#SVGID_8_);}
	.st11{fill:#638CC8;}
	.st12{fill:#2D64AF;}
	.st13{fill:url(#SVGID_9_);}
	.st14{opacity:0.9;fill:url(#SVGID_10_);}
</style>
<g>
	<g id="背景_2_">
		<linearGradient y2="183.1421" x2="451.2876" y1="439.994" x1="451.2876" gradientUnits="userSpaceOnUse" id="SVGID_1_">
			<stop style="stop-color:#F0F5FB;stop-opacity:0.1" offset="0"></stop>
			<stop style="stop-color:#F0F5FB" offset="1"></stop>
		</linearGradient>
		<rect height="256.9" width="78" class="st0" y="183.1" x="412.3"></rect>
		<linearGradient y2="127.1421" x2="297.5839" y1="439.994" x1="297.5839" gradientUnits="userSpaceOnUse" id="SVGID_2_">
			<stop style="stop-color:#F0F5FB;stop-opacity:0.1" offset="0"></stop>
			<stop style="stop-color:#F0F5FB" offset="1"></stop>
		</linearGradient>
		<path d="M336.6,440h-78V183h3l36-55.9l36,55.9h3V440z M322.1,227.6h-49v5.4h49V227.6z M322.1,254.3h-49v5.4h49V254.3z
			 M322.1,200.9h-49v5.4h49V200.9z M322.1,307.6h-49v5.4h49V307.6z M322.1,334.3h-49v5.4h49V334.3z M322.1,281h-49v5.4h49V281z" class="st1"></path>
		<linearGradient y2="202.2903" x2="226.1755" y1="228.6977" x1="226.1755" gradientUnits="userSpaceOnUse" id="SVGID_3_">
			<stop style="stop-color:#F0F5FB;stop-opacity:0.2" offset="0"></stop>
			<stop style="stop-color:#F0F5FB" offset="1"></stop>
		</linearGradient>
		<rect height="26.4" width="59.3" class="st2" y="202.3" x="196.5"></rect>
		<linearGradient y2="232.6236" x2="216.8232" y1="439.994" x1="216.8232" gradientUnits="userSpaceOnUse" id="SVGID_4_">
			<stop style="stop-color:#F0F5FB;stop-opacity:0.1" offset="0"></stop>
			<stop style="stop-color:#F0F5FB" offset="1"></stop>
		</linearGradient>
		<rect height="207.4" width="78" class="st3" y="232.6" x="177.8"></rect>
		<linearGradient y2="389.1088" x2="344.9104" y1="543.4089" x1="344.9104" gradientUnits="userSpaceOnUse" id="SVGID_5_">
			<stop style="stop-color:#F7F7F7;stop-opacity:0" offset="0"></stop>
			<stop style="stop-color:#C8C9C9;stop-opacity:0.2835" offset="1"></stop>
		</linearGradient>
		<path d="M75.8,470.3c0,0,25.6-81.8,112.4-81.2s138,38.1,179,36.3c41-1.8,85.1-19.9,127.9-18.4
			c42.8,1.4,48.5,18.2,77.4,27.1c22,6.8,31.2,1.7,38.9,14.6c7.7,12.9,8.6,47-30.7,53.5c-39.3,6.4-163,51-296.8,39.3
			S60.2,500.6,75.8,470.3z" class="st4"></path>
		<ellipse ry="36" rx="240.4" cy="491.8" cx="342.7" class="st5"></ellipse>
		<path d="M151.4,348.8c0,0-0.9,7.4,1.6,10.8c0.9,1.2,5.9,3.7,6.3,9.7c0.3,5.9-2.1,16.8-17.7,17.4
			c-14.4,0.6-33.1-4.3-27.8-25.8c3.4-11.2,14-8.9,12.9-27.9c-0.2-13,6.4-26.4,10.9-25.8c4.1,0.5,4.4,6.9,7.3,12.1
			C146.8,322.8,152.1,327.3,151.4,348.8z" class="st6"></path>
		<path d="M136.1,404.6c0,1.4,2.6,1.8,2.6-1c-0.1-2.7-0.2-10.7-0.6-14.9c-0.1-1.2-0.8-3.8-0.7-4.5
			c0.3-1.6,2.4-6.7,2.9-8.3c0.5-1.6,3.1-11.2,2.3-22.6c-0.7-10.4-1.4-10.4-2.5-10.3c-1.1,0.1,0,6.1,0.2,9.9
			c0.2,3.4,0.3,8.1-0.2,12.7c-0.6,5.1-1.9,10-3.4,14.7c-0.2,0.5-1.4,2.3-2.9-0.6c-1.5-2.9-8.7-13.1-4.6-22.9c1.3-3-0.6-2.6-2.1,0.3
			c-1.1,2.1-1.9,5.7-1.4,8.9c1.3,7.4,5.9,15.1,6.6,16.1c0.9,1.4,2.6,3.5,2.9,5C135.9,390.4,136.1,404.6,136.1,404.6z" class="st7"></path>
		<path d="M569,376.8c0,0-0.9,7.4,1.6,10.8c0.9,1.2,5.9,3.7,6.3,9.7c0.3,5.9-2.1,16.8-17.7,17.4
			c-14.4,0.6-33.1-4.3-27.8-25.8c3.4-11.2,14-8.9,12.9-27.9c-0.2-13,6.4-26.4,10.9-25.8c4.1,0.5,4.4,6.9,7.3,12.1
			C564.4,350.8,569.7,355.3,569,376.8z" class="st6"></path>
		<path d="M554.7,432.6c0,1.4,2.6,1.8,2.6-1c-0.1-2.7-0.2-10.7-0.6-14.9c-0.1-1.2-0.8-3.8-0.7-4.5
			c0.3-1.6,2.4-6.7,2.9-8.3c0.5-1.6,3.1-11.2,2.3-22.6c-0.7-10.4-1.4-10.4-2.5-10.3c-1.1,0.1,0,6.1,0.2,9.9
			c0.2,3.4,0.3,8.1-0.2,12.7c-0.6,5.1-1.9,10-3.4,14.7c-0.2,0.5-1.4,2.3-2.9-0.6c-1.5-2.9-8.7-13.1-4.6-22.9c1.3-3-0.6-2.6-2.1,0.3
			c-1.1,2.1-1.9,5.7-1.4,8.9c1.3,7.4,5.9,15.1,6.6,16.1c0.9,1.4,2.6,3.5,2.9,5C554.4,418.4,554.7,432.6,554.7,432.6z" class="st7"></path>
		<linearGradient y2="381.2554" x2="545.4699" y1="362.4042" x1="552.3312" gradientUnits="userSpaceOnUse" id="SVGID_6_">
			<stop style="stop-color:#9FD8F4;stop-opacity:0.6" offset="0"></stop>
			<stop style="stop-color:#84BCE5;stop-opacity:0.726" offset="0.315"></stop>
			<stop style="stop-color:#4478BD" offset="1"></stop>
		</linearGradient>
		<circle r="10" cy="371.8" cx="548.9" class="st8"></circle>
		<linearGradient y2="250.7819" x2="496.767" y1="226.5521" x1="505.5859" gradientUnits="userSpaceOnUse" id="SVGID_7_">
			<stop style="stop-color:#9FD8F4;stop-opacity:0.6" offset="0"></stop>
			<stop style="stop-color:#84BCE5;stop-opacity:0.726" offset="0.315"></stop>
			<stop style="stop-color:#4478BD" offset="1"></stop>
		</linearGradient>
		<circle r="12.9" cy="238.7" cx="501.2" class="st9"></circle>
		<linearGradient y2="431.013" x2="106.6207" y1="397.1227" x1="118.9557" gradientUnits="userSpaceOnUse" id="SVGID_8_">
			<stop style="stop-color:#CAE9F8" offset="0"></stop>
			<stop style="stop-color:#A8CAE9" offset="0.4085"></stop>
			<stop style="stop-color:#6F98CF" offset="1"></stop>
		</linearGradient>
		<circle r="18" cy="414.1" cx="112.8" class="st10"></circle>
	</g>
	<g id="搜索">
		
			<rect height="17.5" width="23.8" class="st11" transform="matrix(0.7071 0.7071 -0.7071 0.7071 411.4223 -174.2547)" y="400.8" x="404.2"></rect>
		<path d="M454.1,475.2l-35-35c-7.3-7.3-7.3-19.2,0-26.4l0,0c7.3-7.3,19.2-7.3,26.4,0l35,35c7.3,7.3,7.3,19.2,0,26.4
			l0,0C473.3,482.5,461.4,482.5,454.1,475.2z" class="st12"></path>
		<linearGradient y2="447.4558" x2="324.2039" y1="189.9743" x1="324.2039" gradientUnits="userSpaceOnUse" id="SVGID_9_">
			<stop style="stop-color:#BDDCF4" offset="0"></stop>
			<stop style="stop-color:#ABCCEB" offset="0.1432"></stop>
			<stop style="stop-color:#7AA3D6" offset="0.4305"></stop>
			<stop style="stop-color:#5E8ECA" offset="0.5782"></stop>
			<stop style="stop-color:#2D64AF" offset="1"></stop>
		</linearGradient>
		<path d="M452.9,318.7c0,71.1-57.6,128.7-128.7,128.7s-128.7-57.6-128.7-128.7S253.1,190,324.2,190
			S452.9,247.6,452.9,318.7z M324.2,202.4c-64.2,0-116.3,52.1-116.3,116.3S260,435,324.2,435s116.3-52.1,116.3-116.3
			S388.4,202.4,324.2,202.4z" class="st13"></path>
		<linearGradient y2="434.9836" x2="324.2039" y1="202.4465" x1="324.2039" gradientUnits="userSpaceOnUse" id="SVGID_10_">
			<stop style="stop-color:#7ECEF4;stop-opacity:0.35" offset="0"></stop>
			<stop style="stop-color:#4D8AC9" offset="0.8939"></stop>
		</linearGradient>
		<path d="M324.2,202.4c-64.2,0-116.3,52.1-116.3,116.3S260,435,324.2,435s116.3-52.1,116.3-116.3
			S388.4,202.4,324.2,202.4z M351.2,232.1c-2.5,3.8-6.2,2.4-7.5,1.7c-1.3-0.7-4.6-2.8-4.6-2.8c-2.1-1.3-2.6-4.5-0.7-7.3
			c1.6-2.2,4.3-3.8,9.1-1.3C352.9,225.2,354,228,351.2,232.1z M405.8,286.4c-2.7,2-7.4,0-8.7-2.6c-0.6-1.4-4.5-9.3-11.8-19.5
			c-7.3-10.1-16.1-16.5-16.1-16.5c-2.3-2.3-2.5-6.4,0.3-8.4s4.9-2,7.3-0.7c0,0,10.2,7,18.5,18.5c8.3,11.5,12.5,20.8,12.5,20.8
			C408.9,280.9,408.6,284.4,405.8,286.4z" class="st14"></path>
	</g>
</g>
</svg>
