<svg xml:space="preserve" style="enable-background:new 0 0 680.31 680.31;" viewBox="0 0 680.31 680.31" y="0px" x="0px" xmlns:xlink="http://www.w3.org/1999/xlink" xmlns="http://www.w3.org/2000/svg" id="图层_1" version="1.1">
<style type="text/css">
	.st0{fill:url(#SVGID_1_);}
	.st1{fill:#E6E9F5;}
	.st2{fill:#ECEEF1;}
	.st3{fill:#D6DBE3;}
	.st4{opacity:0.8;fill:url(#SVGID_2_);}
	.st5{opacity:0.8;fill:url(#SVGID_3_);}
	.st6{fill:url(#SVGID_4_);}
	.st7{fill:url(#SVGID_5_);}
	.st8{fill:url(#SVGID_6_);}
	.st9{fill:url(#SVGID_7_);}
	.st10{fill:url(#SVGID_8_);}
</style>
<g id="上传失败">
	<g id="背景_11_">
		<linearGradient y2="346.1502" x2="344.9104" y1="500.4504" x1="344.9104" gradientUnits="userSpaceOnUse" id="SVGID_1_">
			<stop style="stop-color:#F7F7F7;stop-opacity:0" offset="0"></stop>
			<stop style="stop-color:#C8C9C9;stop-opacity:0.2835" offset="1"></stop>
		</linearGradient>
		<path d="M75.83,427.34c0,0,25.58-81.77,112.42-81.18c86.85,0.59,138,38.09,179.05,36.33
			c41.04-1.76,85.06-19.89,127.89-18.44s48.49,18.15,77.42,27.08c21.95,6.77,31.18,1.73,38.91,14.62
			c7.73,12.89,8.58,47.05-30.68,53.49c-39.26,6.45-162.99,50.98-296.82,39.26C150.19,486.78,60.21,457.64,75.83,427.34z" class="st0"></path>
		<ellipse ry="36" rx="240.44" cy="448.81" cx="342.67" class="st1"></ellipse>
		<path d="M151.38,305.81c0,0-0.89,7.44,1.56,10.78c0.87,1.19,5.94,3.71,6.26,9.67c0.32,5.93-2.15,16.78-17.7,17.44
			c-14.37,0.62-33.11-4.33-27.78-25.78c3.39-11.17,14-8.9,12.92-27.92c-0.24-12.97,6.37-26.39,10.86-25.82
			c4.15,0.52,4.35,6.94,7.26,12.07C146.8,279.88,152.09,284.35,151.38,305.81z" class="st2"></path>
		<path d="M136.14,361.67c0,1.44,2.63,1.76,2.56-0.97c-0.07-2.73-0.16-10.74-0.62-14.89c-0.13-1.21-0.78-3.84-0.67-4.5
			c0.28-1.64,2.44-6.67,2.93-8.26c0.5-1.64,3.11-11.2,2.29-22.62c-0.74-10.4-1.41-10.38-2.52-10.31s-0.01,6.15,0.22,9.85
			c0.21,3.42,0.31,8.07-0.23,12.71c-0.6,5.12-1.85,10-3.42,14.68c-0.18,0.54-1.41,2.29-2.89-0.59c-1.48-2.88-8.71-13.08-4.56-22.89
			c1.27-3-0.64-2.57-2.15,0.27c-1.11,2.08-1.94,5.72-1.41,8.87c1.26,7.43,5.93,15.13,6.59,16.08c0.94,1.36,2.6,3.5,2.91,5
			C135.86,347.45,136.14,361.67,136.14,361.67z" class="st3"></path>
		<path d="M568.96,333.81c0,0-0.89,7.44,1.56,10.78c0.87,1.19,5.94,3.71,6.26,9.67c0.32,5.93-2.15,16.78-17.7,17.44
			c-14.37,0.62-33.11-4.33-27.78-25.78c3.39-11.17,14-8.9,12.92-27.92c-0.24-12.97,6.37-26.39,10.86-25.82
			c4.15,0.52,4.35,6.94,7.26,12.07C564.38,307.88,569.67,312.35,568.96,333.81z" class="st2"></path>
		<path d="M554.72,389.67c0,1.44,2.63,1.76,2.56-0.97c-0.07-2.73-0.16-10.74-0.62-14.89c-0.13-1.21-0.78-3.84-0.67-4.5
			c0.28-1.64,2.44-6.67,2.93-8.26c0.5-1.64,3.11-11.2,2.29-22.62c-0.74-10.4-1.41-10.38-2.52-10.31c-1.11,0.08-0.01,6.15,0.22,9.85
			c0.21,3.42,0.31,8.07-0.23,12.71c-0.6,5.12-1.85,10-3.42,14.68c-0.18,0.54-1.41,2.29-2.89-0.59c-1.48-2.88-8.71-13.08-4.56-22.89
			c1.27-3-0.64-2.57-2.15,0.27c-1.11,2.08-1.94,5.72-1.41,8.87c1.26,7.43,5.93,15.13,6.59,16.08c0.94,1.36,2.6,3.5,2.91,5
			C554.44,375.45,554.72,389.67,554.72,389.67z" class="st3"></path>
		<linearGradient y2="338.2968" x2="545.4699" y1="319.4456" x1="552.3312" gradientUnits="userSpaceOnUse" id="SVGID_2_">
			<stop style="stop-color:#9FD8F4;stop-opacity:0.6" offset="0"></stop>
			<stop style="stop-color:#84BCE5;stop-opacity:0.726" offset="0.315"></stop>
			<stop style="stop-color:#4478BD" offset="1"></stop>
		</linearGradient>
		<circle r="10.03" cy="328.87" cx="548.9" class="st4"></circle>
		<linearGradient y2="207.8233" x2="496.767" y1="183.5935" x1="505.5859" gradientUnits="userSpaceOnUse" id="SVGID_3_">
			<stop style="stop-color:#9FD8F4;stop-opacity:0.6" offset="0"></stop>
			<stop style="stop-color:#84BCE5;stop-opacity:0.726" offset="0.315"></stop>
			<stop style="stop-color:#4478BD" offset="1"></stop>
		</linearGradient>
		<circle r="12.89" cy="195.71" cx="501.18" class="st5"></circle>
		<linearGradient y2="388.0544" x2="106.6207" y1="354.1641" x1="118.9557" gradientUnits="userSpaceOnUse" id="SVGID_4_">
			<stop style="stop-color:#CAE9F8" offset="0"></stop>
			<stop style="stop-color:#A8CAE9" offset="0.4085"></stop>
			<stop style="stop-color:#6F98CF" offset="1"></stop>
		</linearGradient>
		<circle r="18.03" cy="371.11" cx="112.79" class="st6"></circle>
	</g>
	<g>
		
			<linearGradient gradientTransform="matrix(1 0 0 -1 0 682)" y2="399.313" x2="512.265" y1="399.313" x1="188.7792" gradientUnits="userSpaceOnUse" id="SVGID_5_">
			<stop style="stop-color:#ACD7F3" offset="0"></stop>
			<stop style="stop-color:#9BC6EA" offset="0.1798"></stop>
			<stop style="stop-color:#6F9BD2" offset="0.5425"></stop>
			<stop style="stop-color:#2C64B0" offset="1"></stop>
		</linearGradient>
		<path d="M447.71,259.07c-2.59-43.14-33.14-78.75-73.76-88.96l-15.25-0.01l-11.93,51.03l23.13,19.94l-19.94,13.83
			l9.04,22.07l-16.75-22.33l11.7-14.36l-31.11-12.77l8.77-27.12L309.3,176c-3.39,0-9.35-0.05-15.25-0.01
			c-26.78,16.99-39.69,48.66-41.74,83.14c-35.49,2.38-63.53,31.91-63.53,67.99c0,37.65,30.52,68.15,68.15,68.15h187.18
			c37.65,0,68.15-30.52,68.15-68.15C512.26,290.7,483.68,260.94,447.71,259.07z" class="st7"></path>
		
			<linearGradient gradientTransform="matrix(1 0 0 -1 0 682)" y2="399.3176" x2="497.0164" y1="399.3176" x1="173.5306" gradientUnits="userSpaceOnUse" id="SVGID_6_">
			<stop style="stop-color:#CAE3F4" offset="0.1004"></stop>
			<stop style="stop-color:#B8D4ED" offset="0.3075"></stop>
			<stop style="stop-color:#88AEDB" offset="0.7225"></stop>
			<stop style="stop-color:#6294CE" offset="1"></stop>
		</linearGradient>
		<path d="M432.46,259.06c-2.59-43.14-33.14-78.75-73.76-88.96l-14.94,14.6l-12.23,36.42l23.13,19.94l-19.94,13.83
			l9.04,22.07l-16.75-22.33l11.7-14.36l-31.11-12.77l8.77-27.12l-22.31-24.39c-32.04,14.68-54.79,46.14-56.99,83.13
			c-35.49,2.38-63.53,31.91-63.53,67.99c0,37.65,30.52,68.15,68.15,68.15h187.18c37.65,0,68.15-30.52,68.15-68.15
			C497.02,290.69,468.42,260.93,432.46,259.06z" class="st8"></path>
		
			<linearGradient gradientTransform="matrix(1 0 0 -1 0 682)" y2="315.9793" x2="392.8441" y1="315.9793" x1="288.8362" gradientUnits="userSpaceOnUse" id="SVGID_7_">
			<stop style="stop-color:#9FD8F4" offset="0"></stop>
			<stop style="stop-color:#90C9EC" offset="0.1992"></stop>
			<stop style="stop-color:#6CA2D6" offset="0.5996"></stop>
			<stop style="stop-color:#4478BD" offset="1"></stop>
		</linearGradient>
		<path d="M390.84,349.69l-47.63-45.49c-4.39-3.64-11.58-2.26-13.62-0.12l-38.75,45.62c-4.2,4.01-1.37,11.11,4.42,11.11
			h15.21v65.01c0,2.36,1.9,4.28,4.26,4.28h52.19c2.35,0,4.26-1.91,4.26-4.28v-65.01h15.21
			C392.21,360.79,395.04,353.69,390.84,349.69z" class="st9"></path>
		
			<linearGradient gradientTransform="matrix(1 0 0 -1 0 682)" y2="315.3771" x2="379.4495" y1="315.3771" x1="283.2577" gradientUnits="userSpaceOnUse" id="SVGID_8_">
			<stop style="stop-color:#EAF6FD" offset="0.1"></stop>
			<stop style="stop-color:#8FB7E1" offset="1"></stop>
		</linearGradient>
		<path d="M377.59,349.71l-44.06-45.32c-1.22-1.26-3.14-1.26-4.37,0l-44.06,45.32c-3.88,3.99-1.27,11.07,4.09,11.07
			h14.06v64.75c0,2.35,1.76,4.26,3.94,4.26h48.27c2.17,0,3.94-1.9,3.94-4.26v-64.75h14.06
			C378.86,360.78,381.48,353.71,377.59,349.71z" class="st10"></path>
	</g>
</g>
</svg>
