<svg viewBox="0 0 240 240" xmlns:xlink="http://www.w3.org/1999/xlink" xmlns="http://www.w3.org/2000/svg"><defs><style>.ae9377a0-9826-4ea0-aad4-5d6626f47458{fill:url(#a83daae2-9963-46e7-942d-3c2722dafd11);}.afdc54d1-ca66-43ca-86e1-7c05a5d320f4{fill:url(#a4df06aa-2ab6-49db-bc51-9a7ba00d44bf);}.bd2c098c-f10a-40eb-804c-ddf8afe314ce{fill:url(#af6fda62-3570-4801-be55-21a50573b604);}.ee675ed9-7615-45c2-9afd-be5939c0b7cc{fill:url(#f56e5455-a885-409a-91a8-b6d1fdc64665);}.b6d12ac1-aa6d-4f51-8b00-61642805835f{fill:url(#a654b394-ac1d-4ad5-9fcd-9263f5912013);}.fdec6fd8-03fa-4429-af0e-642463d2117f{fill:url(#b106aff4-c120-48bb-bee6-6eb4b4f76a07);}.e887ad02-4ad5-456c-bdcb-b6305c265009{fill:url(#ba43096b-fde9-406a-b1fc-6ce80fcdbb0f);}.a6524ddd-cc1c-499d-ae86-121479b9fcc3,.be51601b-4064-43a1-87b6-97a9551882d1,.bfd78f04-f862-4823-a7d3-2038ac3773e0{fill:none;}.a6524ddd-cc1c-499d-ae86-121479b9fcc3,.bfd78f04-f862-4823-a7d3-2038ac3773e0{stroke:#f2f6fa;}.a6524ddd-cc1c-499d-ae86-121479b9fcc3,.be51601b-4064-43a1-87b6-97a9551882d1{stroke-miterlimit:10;}.bfd78f04-f862-4823-a7d3-2038ac3773e0{stroke-linecap:round;stroke-linejoin:round;stroke-width:2px;}.becc45c0-27bb-4bcf-b39c-892f446def27{fill:#f2f2f2;}.afabc808-e5cb-4382-90c6-a9193d99afe5{fill:#dfdfdf;}.be51601b-4064-43a1-87b6-97a9551882d1{stroke:#f2f2f2;}.ba5a3aac-c5a7-429c-81e3-ca4ab5f7d4f6{fill:url(#ea313c94-b546-4775-90ce-98dd9a8f506f);}.aabda8b8-ece4-4f0d-ba59-40b64399b9b5{fill:url(#ea155765-625d-4732-908b-4b756c0c27ef);}.b551ba39-a532-47d8-9cbb-5e72b66359e7{fill:url(#a5c2153b-78e1-4682-abd6-9e9523339f00);}.b419dab7-685c-4fce-9fef-f909d654d8a1{fill:url(#fe7c4653-c64f-4684-8a57-532ae3f3f514);}.ab35c040-985a-4fd3-807f-21adde23a33c{fill:url(#ac60ab83-d209-43ef-b5db-6dd2d8943749);}.f36ccdb0-705b-4397-a783-0f58136df47c{fill:url(#a372a2e7-18bd-4043-9ba4-5ca8a2cda408);}.a6df2d00-97b1-47ed-b20c-f757ecdcfbf6{fill:url(#abbd4904-c14a-482f-b631-2dd9628adc1c);}.b449f790-b2d6-422d-bb0e-72c94de500dd{fill:url(#f341be67-4e65-4e12-a239-7e447bd2a69a);}.a13a3478-aba1-4df8-a0b7-c45dff000908{fill-rule:evenodd;fill:url(#f5f1721d-8771-4842-9f91-70fc54bb3da4);}.a950f4d0-f086-448c-8c85-8a95caea48da{fill:#fef2e3;}.f83194a7-d364-48b3-8812-374ee6b963f8{fill:#313162;}.b99e9373-42cc-4e30-a4e2-cff43069f7fe{fill:#769bdd;}.a8ae26a3-5389-4f12-ae10-5eab7512231b{fill:#8faded;}.b06db68e-2114-4302-910a-a66f7f8b37f1{fill:#45487a;}.fe29f940-bb62-4398-b1b5-ecbca53db464{fill:#cc8672;}.efc25ec4-1f4d-4c8c-9512-d5d7515aebea{fill:url(#fe4193bb-eb95-4fc7-941a-34187fc66010);}</style><linearGradient gradientUnits="userSpaceOnUse" y2="74.21" x2="90.28" y1="74.21" x1="27.54" id="a83daae2-9963-46e7-942d-3c2722dafd11"><stop stop-opacity="0" stop-color="#f2f6fa" offset="0"></stop><stop stop-opacity="0.5" stop-color="#e6e6e6" offset="0.7"></stop></linearGradient><linearGradient xlink:href="#a83daae2-9963-46e7-942d-3c2722dafd11" gradientTransform="translate(206.16 -705.86) rotate(-42.67)" y2="517.53" x2="-684.76" y1="517.53" x1="-705.7" id="a4df06aa-2ab6-49db-bc51-9a7ba00d44bf"></linearGradient><linearGradient xlink:href="#a83daae2-9963-46e7-942d-3c2722dafd11" y2="138.7" x2="222.23" y1="138.7" x1="186.4" id="af6fda62-3570-4801-be55-21a50573b604"></linearGradient><linearGradient gradientUnits="userSpaceOnUse" y2="63.01" x2="120" y1="298.01" x1="120" id="f56e5455-a885-409a-91a8-b6d1fdc64665"><stop stop-opacity="0.9" stop-color="#f4f4f4" offset="0.01"></stop><stop stop-opacity="0.7" stop-color="#dfdfdf" offset="0.78"></stop></linearGradient><linearGradient gradientUnits="userSpaceOnUse" gradientTransform="matrix(1.16, 0, 0, 1.22, -2.95, 124.15)" y2="42.7" x2="150.07" y1="9.96" x1="91.27" id="a654b394-ac1d-4ad5-9fcd-9263f5912013"><stop stop-opacity="0.5" stop-color="#ccc" offset="0"></stop><stop stop-opacity="0" stop-color="#dfdfdf" offset="0.85"></stop></linearGradient><linearGradient xlink:href="#a83daae2-9963-46e7-942d-3c2722dafd11" y2="36.12" x2="193.02" y1="36.12" x1="156.51" id="b106aff4-c120-48bb-bee6-6eb4b4f76a07"></linearGradient><linearGradient gradientUnits="userSpaceOnUse" gradientTransform="matrix(0, 0.29, -0.29, 0, 330.02, 376.65)" y2="959.38" x2="-734.82" y1="863.99" x1="-691.96" id="ba43096b-fde9-406a-b1fc-6ce80fcdbb0f"><stop stop-opacity="0.6" stop-color="#ccc" offset="0"></stop><stop stop-opacity="0" stop-color="#dfdfdf" offset="1"></stop></linearGradient><linearGradient gradientUnits="userSpaceOnUse" gradientTransform="translate(22.94 -21.35) rotate(10.24)" y2="131.91" x2="158.49" y1="66.22" x1="51.49" id="ea313c94-b546-4775-90ce-98dd9a8f506f"><stop stop-color="#e7e7e7" offset="0"></stop><stop stop-color="#e6e6e6" offset="0.68"></stop><stop stop-color="#cdcdcd" offset="1"></stop></linearGradient><linearGradient gradientUnits="userSpaceOnUse" gradientTransform="translate(239.26 -24.87) rotate(90)" y2="106.06" x2="143.51" y1="106.06" x1="118.92" id="ea155765-625d-4732-908b-4b756c0c27ef"><stop stop-color="#ccc" offset="0"></stop><stop stop-color="#e6e6e6" offset="1"></stop></linearGradient><linearGradient gradientUnits="userSpaceOnUse" gradientTransform="translate(196.41 6.43) rotate(90)" y2="102.27" x2="88.27" y1="109.94" x1="99.83" id="a5c2153b-78e1-4682-abd6-9e9523339f00"><stop stop-color="#e6e6e6" offset="0.45"></stop><stop stop-color="#ccc" offset="1"></stop></linearGradient><linearGradient xlink:href="#ea155765-625d-4732-908b-4b756c0c27ef" gradientTransform="translate(22.94 -21.35) rotate(10.24)" y2="151.08" x2="117.2" y1="142.13" x1="100.83" id="fe7c4653-c64f-4684-8a57-532ae3f3f514"></linearGradient><linearGradient gradientUnits="userSpaceOnUse" gradientTransform="translate(22.94 -21.35) rotate(10.24)" y2="110.75" x2="203.66" y1="110.75" x1="46.35" id="ac60ab83-d209-43ef-b5db-6dd2d8943749"><stop stop-color="#ccc" offset="0.2"></stop><stop stop-opacity="0.8" stop-color="#f4f4f4" offset="0.84"></stop></linearGradient><linearGradient xlink:href="#ea155765-625d-4732-908b-4b756c0c27ef" gradientTransform="translate(246.49 -62.91) rotate(90)" y2="86.91" x2="158.64" y1="86.91" x1="150.46" id="a372a2e7-18bd-4043-9ba4-5ca8a2cda408"></linearGradient><linearGradient xlink:href="#a5c2153b-78e1-4682-abd6-9e9523339f00" gradientTransform="translate(22.94 -21.35) rotate(10.24)" y2="73.06" x2="105.95" y1="74.55" x1="134.7" id="abbd4904-c14a-482f-b631-2dd9628adc1c"></linearGradient><linearGradient gradientUnits="userSpaceOnUse" gradientTransform="translate(22.94 -21.35) rotate(10.24)" y2="150.56" x2="166.05" y1="137.05" x1="151.76" id="f341be67-4e65-4e12-a239-7e447bd2a69a"><stop stop-color="#b3b3b3" offset="0"></stop><stop stop-color="#e6e6e6" offset="0.58"></stop></linearGradient><linearGradient gradientUnits="userSpaceOnUse" y2="60.37" x2="164.22" y1="42.08" x1="131.36" id="f5f1721d-8771-4842-9f91-70fc54bb3da4"><stop stop-color="#fff" offset="0"></stop><stop stop-color="#94c4ff" offset="1"></stop></linearGradient><linearGradient gradientUnits="userSpaceOnUse" gradientTransform="matrix(-1, 0, 0, 1, 166.81, 0)" y2="60.73" x2="60.96" y1="60.73" x1="35.37" id="fe4193bb-eb95-4fc7-941a-34187fc66010"><stop stop-color="#ff9084" offset="0.21"></stop><stop stop-color="#ffc8ae" offset="0.83"></stop></linearGradient></defs><title>缺省页2号博学堂后台</title><g id="b99af575-5b1f-4cb7-8509-565472c9f1b0"><path d="M27.58,83.82c1.18-4.37,5.84-17.58,17.29-9.53,0,0,6.4-21.18,25.67-4.53,0,0,9.78-6.14,14.59,6,0,0,6,2.52,5,7.55L28.59,85A1,1,0,0,1,27.58,83.82Z" class="ae9377a0-9826-4ea0-aad4-5d6626f47458"></path><path d="M44.44,158.69c-4.32-2.87-9.82-8.88-9.94-13.14a2.53,2.53,0,0,1,1.71,1.09s9.68,12.69,5,2.19c-2.19-5-5-9.9-6.48-14.75C32,125.19,39,124.92,44,135.26c.67,1.36,4.74,12.13,6.95,11.65a.81.81,0,0,0,.52-.61c.66-1.86.12-5,2.26-5.13,1.87-.1,4.44,2.35,6.11,4.61,3.39,4.6,5.43,11.36,1.75,13.41s-11.42,3.28-17.06-.47Z" class="afdc54d1-ca66-43ca-86e1-7c05a5d320f4"></path><path d="M210,131.51S196.65,147,197.08,161.32h4.3S202.94,144.05,210,131.51Zm10.68-20.71c-2.95,3.7-4.84,8.94-3.07,13.63,1.22,3.23,4.9,3.25,4.64,7.74a14.49,14.49,0,0,1-2.25,6.29,47.68,47.68,0,0,1-7.61,10,8.76,8.76,0,0,1,3.3,8.11,14.61,14.61,0,0,1-4.17,8.11,5.76,5.76,0,0,1-2.47,1.77,6.19,6.19,0,0,1-2.84,0,49.51,49.51,0,0,1-13.27-4.23c-2.62-1.24-5.29-2.94-6.18-5.66-1-3.11.6-4.1,2.37-5.08l.46-.25a6,6,0,0,0,2.35-1.94c1.3-2.13,1.33-5,1.79-7.33.67-3.49-.32-9.85,4.06-11.22,1.69-.53,3.53-.41,5.23-.95,3.68-1.17,5.2-4.62,6.67-8.12l.27-.63a21,21,0,0,1,3-5.5C214.81,113.36,219.41,112.3,220.64,110.8Z" class="bd2c098c-f10a-40eb-804c-ddf8afe314ce"></path><path d="M237.5,191.48c-16-24-44.43-51.95-117.5-46-91.26,7.44-111.92,35-116.35,44.36A5.31,5.31,0,0,0,2.5,193c0,12.43,52.61,22.5,117.5,22.5S237.5,205.41,237.5,193a4.66,4.66,0,0,0-.27-1.5Z" class="ee675ed9-7615-45c2-9afd-be5939c0b7cc"></path><ellipse ry="12.63" rx="39.1" cy="157.61" cx="139.53" class="b6d12ac1-aa6d-4f51-8b00-61642805835f"></ellipse><path d="M156.51,41.73s3.08-8.63,8.23-5.34c0,0,5.89-11,16.73-2.88,0,0,5.1-1.48,7.81,4.49,0,0,2.68-.45,3.74,1.54Z" class="fdec6fd8-03fa-4429-af0e-642463d2117f"></path><ellipse transform="translate(-107.7 220.77) rotate(-86.89)" ry="15.26" rx="4.68" cy="167.24" cx="62.7" class="e887ad02-4ad5-456c-bdcb-b6305c265009"></ellipse><circle r="5" cy="104.74" cx="198.75" class="a6524ddd-cc1c-499d-ae86-121479b9fcc3"></circle><line y2="24.86" x2="78.96" y1="31.93" x1="71.89" class="bfd78f04-f862-4823-a7d3-2038ac3773e0"></line><line y2="24.86" x2="71.89" y1="31.93" x1="78.96" class="bfd78f04-f862-4823-a7d3-2038ac3773e0"></line><path d="M28.88,164.9s-10.47-10.31-4.58-8.68,8.51,8.14,8.51,8.14S30.19,153,36.09,153.5s1.31,10.32,1.31,10.32S34.12,172,28.88,164.9Z" class="becc45c0-27bb-4bcf-b39c-892f446def27"></path><path d="M208,160.48s4-14,6-14,5,14,5,14S215,165.48,208,160.48Z" class="afabc808-e5cb-4382-90c6-a9193d99afe5"></path><rect rx="1" height="10" width="2" y="159.48" x="212.5" class="afabc808-e5cb-4382-90c6-a9193d99afe5"></rect><path d="M217.39,174.4s2.26-7.92,3.39-7.92,2.83,7.92,2.83,7.92S221.35,177.22,217.39,174.4Z" class="afabc808-e5cb-4382-90c6-a9193d99afe5"></path><rect rx="0.57" height="5.65" width="1.13" y="173.83" x="219.93" class="afabc808-e5cb-4382-90c6-a9193d99afe5"></rect><path d="M220.88,27.11c1,8.18-7.94,12.72-9.75,8.06s8-4.18,6.11,1.92-9.68,2.68-9.68,2.68" class="be51601b-4064-43a1-87b6-97a9551882d1"></path><circle r="45.78" cy="111.33" cx="127.14" class="ba5a3aac-c5a7-429c-81e3-ca4ab5f7d4f6"></circle><ellipse transform="translate(4.87 218.52) rotate(-79.76)" ry="12.29" rx="11.39" cy="106.34" cx="133.21" class="aabda8b8-ece4-4f0d-ba59-40b64399b9b5"></ellipse><ellipse transform="translate(-18.31 170.79) rotate(-79.76)" ry="6.94" rx="6.43" cy="96.35" cx="93.05" class="b551ba39-a532-47d8-9cbb-5e72b66359e7"></ellipse><path d="M109,138.45c-5.07-.92-9.87,2.15-10.72,6.85a8.1,8.1,0,0,0-.12,1.47,45.48,45.48,0,0,0,14,7.81,8.4,8.4,0,0,0,4.52-6C117.48,143.92,114.06,139.37,109,138.45Z" class="b419dab7-685c-4fce-9fef-f909d654d8a1"></path><path d="M123.9,122.94c-20.23-3.66-39-8.34-52.95-13.2C50.21,102.5,48.5,97.82,49,94.94,50.5,86.75,75,88.33,83,88.85c.72.05,4.06.42,4.06.42s-.86,1.5-1.15,2-.92,2-.92,2-1.67-.22-2.27-.26c-23.84-1.54-29.35,1.66-29.52,2.6,0,0,.78,3.75,20.11,10.37,13.62,4.67,31.85,9.17,51.33,12.69s38.14,5.68,52.53,6.07c20.43.56,22.46-2.67,22.48-2.7.14-.82-3.81-5.56-25-12.14-.47-.15-1.78-.5-1.78-.5s-.09-1.61-.15-2.28c-.1-1.26-.3-2.41-.3-2.41l3.47,1c29.37,9.12,28.29,15.11,27.93,17.07-.52,2.89-3.75,6.68-25.72,6.2C163.37,128.78,144.12,126.59,123.9,122.94Z" class="ab35c040-985a-4fd3-807f-21adde23a33c"></path><ellipse transform="translate(41.02 232.39) rotate(-79.76)" ry="4.09" rx="3.79" cy="91.65" cx="159.58" class="f36ccdb0-705b-4397-a783-0f58136df47c"></ellipse><path d="M113.54,68.74a7.48,7.48,0,1,0,13.32-3.19,45.33,45.33,0,0,0-13,2A7.94,7.94,0,0,0,113.54,68.74Z" class="a6df2d00-97b1-47ed-b20c-f757ecdcfbf6"></path><path d="M163.37,139.31A14,14,0,0,0,142,154.63,46,46,0,0,0,163.37,139.31Z" class="b449f790-b2d6-422d-bb0e-72c94de500dd"></path><polygon points="136.71 74.62 167.5 52.67 145.54 49.3 153.42 24.52 128.08 54.93 148.35 56.62 134.78 73.83 136.71 74.62" class="a13a3478-aba1-4df8-a0b7-c45dff000908"></polygon><path d="M110.25,46.19a4.19,4.19,0,0,1,3.16-1,2.89,2.89,0,0,1,1.41-.1c2.19,1.15,3.66,4.36,3.71,4.49h0l.94.65,4,.93c-.28.82-2.48,1.91-3.6,2.48a9.21,9.21,0,0,1-1.41.55c0,.06,0,.13,0,.18-2.57,1.32-6.28.77-6.28.77l-.27-.05-.17,0a4.62,4.62,0,0,1-2.68-1.9,5.13,5.13,0,0,1-.32-.52C107.53,50.54,108.57,47.5,110.25,46.19Z" class="a950f4d0-f086-448c-8c85-8a95caea48da"></path><path d="M119.47,50.26l-.14-.1h0a3.12,3.12,0,0,1-1.09-1.35c-.49-1.2-1.61-3.35-3.42-3.69a2.89,2.89,0,0,0-1.41.1,4.19,4.19,0,0,0-3.16,1c-1.68,1.31-2.72,4.35-1.56,6.47a4.69,4.69,0,0,0,3,2.42l.17,0a3.66,3.66,0,0,0,1.52-.64,2.35,2.35,0,0,0,.74-1.73c1.93-.19,1.68-1.35,1.68-1.35A6.91,6.91,0,0,0,119.47,50.26Z" class="f83194a7-d364-48b3-8812-374ee6b963f8"></path><ellipse transform="translate(21.19 134.12) rotate(-64.74)" ry="1.54" rx="1.21" cy="50.35" cx="116.38" class="a950f4d0-f086-448c-8c85-8a95caea48da"></ellipse><path d="M112.9,60.86c-1.36,5.37-5.93,9.53-7.29,11.43a2.1,2.1,0,0,0-.37.71c-.29,1.49-.93,2.51-4,2S94.48,73,96,72.22s5.17.55,6.63-.31a2.63,2.63,0,0,0,.69-1c1.64-3.21,4.32-13,6.27-13.38a2.86,2.86,0,0,1,1.52.06A2.71,2.71,0,0,1,112.9,60.86Z" class="a950f4d0-f086-448c-8c85-8a95caea48da"></path><path d="M112.9,60.86c-1.36,5.37-5.93,9.53-7.29,11.43a21.86,21.86,0,0,1-2.31-1.36c1.64-3.21,4.32-13,6.27-13.38a2.86,2.86,0,0,1,1.52.06A2.71,2.71,0,0,1,112.9,60.86Z" class="b99e9373-42cc-4e30-a4e2-cff43069f7fe"></path><path d="M130.15,69.3s0,0,0,.15c-.15.92-1.18,5.56-6.52,4.27-5.92-1.43-9.17-8.08-9.17-8.08s-3.91,5-7,8.74c-1.36,1.66-2.42,2.92-2.64,3.08-1.46,1-7.52-1.53-8.61-3.14s6.48.53,8.84-1.93l.14-.16s6-13.84,8.77-14.25c1-.16,2.62,1,4.33,2.49,2.9,2.58,6.1,6.34,7.29,7.11A14.48,14.48,0,0,0,130.15,69.3Z" class="a8ae26a3-5389-4f12-ae10-5eab7512231b"></path><path d="M107.48,74.38c-1.36,1.66-2.42,2.92-2.64,3.08-.93.65-3.72-.15-5.9-1.23h0L98.56,76a6.9,6.9,0,0,1-2.33-1.72c-1.08-1.58,6.48.53,8.84-1.93A10.44,10.44,0,0,0,107.48,74.38Z" class="a950f4d0-f086-448c-8c85-8a95caea48da"></path><path d="M100.85,72.05A5.36,5.36,0,0,1,102,74.92c.06,1.43,1.48-.07,1.68.32s1.12,2.87,1.12,2.87L94.6,72.55c-.69-.43-.74-1.15.08-1.25a8.16,8.16,0,0,1,1.48,0A44.08,44.08,0,0,1,100.85,72.05Z" class="b06db68e-2114-4302-910a-a66f7f8b37f1"></path><path d="M106.42,75.89c-1.65,2-1,2.16-1.31,2.34C104,79,101,78.16,98.7,76.65h0l-.4-.27a7.88,7.88,0,0,1-2.43-2.32c-1.05-2,1.2.19,5.86-.22C102.21,74.56,103.84,75.65,106.42,75.89Z" class="b06db68e-2114-4302-910a-a66f7f8b37f1"></path><path d="M99.29,75.27l-.13-.08A.49.49,0,0,1,99.29,75.27Z" class="fe29f940-bb62-4398-b1b5-ecbca53db464"></path><path d="M116.76,53.35c1.44-.2,2.17,1.92,2.12,2.2a1.59,1.59,0,0,1-.65.65,1.52,1.52,0,0,1-1.41.25c-.82-.39-.92-1.42-1.71-1.22s-1-.78-1-.85h0A7.17,7.17,0,0,1,116.76,53.35Z" class="a950f4d0-f086-448c-8c85-8a95caea48da"></path><path d="M107.49,53.74a18.65,18.65,0,0,1,6.66.66l6.36-1.4c2.38-1,2.88-2,2.88-2C134.12,52.51,131,70.5,131,70.5a8.17,8.17,0,0,1-1.15-.12,15.49,15.49,0,0,1-5.05-2,19.75,19.75,0,0,1-2.58-2.49c-1.48-1.57-3.31-3.57-5.07-5.25L115.84,59h0l-2.18.23-.62.07h-.08l-.6.05h-.71a4.8,4.8,0,0,1-1.1-.14h0a2.75,2.75,0,0,1-.46-.18l0,0a2.16,2.16,0,0,1-.38-.27l0,0a1.68,1.68,0,0,1-.3-.39h-.07C105.51,58.82,104.75,54.16,107.49,53.74Z" class="efc25ec4-1f4d-4c8c-9512-d5d7515aebea"></path></g></svg>