<svg viewBox="0 0 240 240" xmlns:xlink="http://www.w3.org/1999/xlink" xmlns="http://www.w3.org/2000/svg" id="e08e7981-5dde-4d3d-944d-21219dd41c2b"><defs><style>.a6244aa2-a983-4d10-b870-bf442a7b2292{fill:url(#a19d5c02-065a-40b7-9ab3-294801042fbd);}.b7547575-6d50-4fc2-a9d7-680a1563ac85{fill:url(#b05ab6de-d287-499c-a2e6-0e2d5b3237cd);}.abc715f7-bb07-4545-adc1-630f88b15cbf{fill:url(#b3e236a4-c3ec-4d2b-a4b1-a6ee33ec789e);}.bada4324-8748-431a-8d49-4cc416afd84a{fill:url(#b2475716-1c6d-4338-9821-6e8806a34829);}.a4ccef95-22fe-4a2e-87cb-d69fda77b880{fill:url(#e2728d41-c59e-40d8-b640-c7e353dc4d3e);}.a8dc0915-3853-4450-8900-d492b18beb75{fill:url(#b225527f-50cf-42ac-bfef-d615be7165a9);}.a33f2105-b270-418c-8a1e-3a33ee8b7171,.b1e78439-8b57-40bf-a151-3dfe0a360c85,.b2ccb2c6-0dbd-4a04-a508-733e7179e564,.b7991974-5265-415f-a437-cff6166fdec8{fill:none;}.b2ccb2c6-0dbd-4a04-a508-733e7179e564,.b7991974-5265-415f-a437-cff6166fdec8{stroke:#f2f6fa;}.a33f2105-b270-418c-8a1e-3a33ee8b7171,.aaa9d327-539c-48a5-8f33-a4d5422833d8,.b2ccb2c6-0dbd-4a04-a508-733e7179e564{stroke-miterlimit:10;}.b1e78439-8b57-40bf-a151-3dfe0a360c85,.b7991974-5265-415f-a437-cff6166fdec8{stroke-linecap:round;stroke-linejoin:round;}.b7991974-5265-415f-a437-cff6166fdec8{stroke-width:2px;}.b8576445-805f-4ae1-bf2e-84a2074a746b{fill:#f2f2f2;}.ae9a4d72-176c-4e9f-b2ee-37d0b5da6fe0{fill:#dfdfdf;}.a33f2105-b270-418c-8a1e-3a33ee8b7171{stroke:#f2f2f2;}.a3fdcab3-8e82-472b-b6eb-30193b6a38af{fill:url(#bc7cbcb6-14c0-46ea-9591-807331f46d8a);}.e5b4029a-702a-4be0-93fa-873c80955ad6{fill:url(#b29f4f9a-5998-4609-88cd-be8a98b5680b);}.bd4a580e-c411-4f47-834c-299c1cc8e046{fill:#ccc;}.bd4c7fb1-2052-4bf3-9ec4-3c0be95e287e{fill:#fff;opacity:0.57;}.a894808e-871c-4fe6-b4df-c27513115170{fill:url(#ef1adb34-683a-41c8-9027-b7100f6e512e);}.fac92b6f-6cce-483a-a294-fc0d8cf18b26{fill:#45487a;}.e819638a-dfab-4d05-a0b2-912b210cf743{fill:#fbdbbe;}.ab76bc7e-babd-4cee-a532-824b9b8382cb{fill:#313162;}.a0daa807-bf54-4db9-a134-4f39b048eedd{fill:#233862;}.a15f81e5-1b6b-4268-bb0a-94a52461ec70{fill:#769bdd;}.b7e8755e-2d3d-4dd5-976d-68c13a0b6c0c{fill:#8faded;}.b7619f2c-dd1b-40d6-8447-59f6768fba98{fill:#fef2e3;}.b339cffc-5225-4a26-924a-d51519865813{fill:url(#ab15942d-f82b-42ac-b6e7-f592337f3811);}.be1b6507-19ae-406a-8ee5-76b9c2f844a6{fill:url(#e38afa23-45af-472d-8db3-ec188fb0f633);}.aaa9d327-539c-48a5-8f33-a4d5422833d8,.b1e78439-8b57-40bf-a151-3dfe0a360c85{stroke-width:3px;}.aaa9d327-539c-48a5-8f33-a4d5422833d8{fill:url(#fc5c697f-5d14-4c65-8a45-dab5baf968b0);stroke:url(#b4050810-5557-47f2-8462-7144da8acbe4);}.b1e78439-8b57-40bf-a151-3dfe0a360c85{stroke:#fff;}</style><linearGradient gradientUnits="userSpaceOnUse" y2="64.47" x2="89.72" y1="64.47" x1="26.98" id="a19d5c02-065a-40b7-9ab3-294801042fbd"><stop stop-opacity="0" stop-color="#f2f6fa" offset="0"></stop><stop stop-opacity="0.5" stop-color="#e6e6e6" offset="0.7"></stop></linearGradient><linearGradient xlink:href="#a19d5c02-065a-40b7-9ab3-294801042fbd" gradientTransform="translate(42.15 -1125.73) rotate(-42.67)" y2="937.28" x2="-848.67" y1="937.28" x1="-869.6" id="b05ab6de-d287-499c-a2e6-0e2d5b3237cd"></linearGradient><linearGradient xlink:href="#a19d5c02-065a-40b7-9ab3-294801042fbd" y2="138.53" x2="205.33" y1="138.53" x1="169.51" id="b3e236a4-c3ec-4d2b-a4b1-a6ee33ec789e"></linearGradient><linearGradient gradientUnits="userSpaceOnUse" y2="62.85" x2="120" y1="297.85" x1="120" id="b2475716-1c6d-4338-9821-6e8806a34829"><stop stop-opacity="0.9" stop-color="#f4f4f4" offset="0.01"></stop><stop stop-opacity="0.7" stop-color="#dfdfdf" offset="0.78"></stop></linearGradient><linearGradient xlink:href="#a19d5c02-065a-40b7-9ab3-294801042fbd" y2="35.95" x2="193.02" y1="35.95" x1="156.51" id="e2728d41-c59e-40d8-b640-c7e353dc4d3e"></linearGradient><linearGradient gradientUnits="userSpaceOnUse" gradientTransform="matrix(0, 0.29, -0.29, 0, 296.22, -61.19)" y2="842.98" x2="764.35" y1="747.6" x1="807.21" id="b225527f-50cf-42ac-bfef-d615be7165a9"><stop stop-opacity="0.6" stop-color="#ccc" offset="0"></stop><stop stop-opacity="0" stop-color="#dfdfdf" offset="1"></stop></linearGradient><linearGradient gradientUnits="userSpaceOnUse" y2="126.9" x2="160.63" y1="198.61" x1="151.09" id="bc7cbcb6-14c0-46ea-9591-807331f46d8a"><stop stop-opacity="0" stop-color="#dfdfdf" offset="0.2"></stop><stop stop-color="#ccc" offset="0.83"></stop></linearGradient><linearGradient gradientUnits="userSpaceOnUse" y2="113.87" x2="176.39" y1="113.87" x1="72.33" id="b29f4f9a-5998-4609-88cd-be8a98b5680b"><stop stop-color="#ccc" offset="0.2"></stop><stop stop-opacity="0.8" stop-color="#f4f4f4" offset="0.84"></stop></linearGradient><linearGradient gradientUnits="userSpaceOnUse" y2="110.79" x2="108.42" y1="110.79" x1="79.53" id="ef1adb34-683a-41c8-9027-b7100f6e512e"><stop stop-opacity="0" stop-color="#f4f4f4" offset="0"></stop><stop stop-opacity="0.7" stop-color="#dfdfdf" offset="0.69"></stop></linearGradient><linearGradient gradientUnits="userSpaceOnUse" y2="121.82" x2="88.95" y1="121.82" x1="75.7" id="ab15942d-f82b-42ac-b6e7-f592337f3811"><stop stop-color="#ff9084" offset="0.21"></stop><stop stop-color="#ffc8ae" offset="0.83"></stop></linearGradient><linearGradient gradientUnits="userSpaceOnUse" gradientTransform="translate(-236.16 -1238.97) rotate(-62.99)" y2="963.47" x2="-959.15" y1="963.47" x1="-968.79" id="e38afa23-45af-472d-8db3-ec188fb0f633"><stop stop-color="#fff" offset="0"></stop><stop stop-color="#94c4ff" offset="1"></stop></linearGradient><linearGradient gradientUnits="userSpaceOnUse" gradientTransform="translate(-599.07 -469.63) rotate(-82.01)" y2="828.24" x2="-418.13" y1="842.87" x1="-447.09" id="fc5c697f-5d14-4c65-8a45-dab5baf968b0"><stop stop-opacity="0.5" stop-color="#fff" offset="0"></stop><stop stop-opacity="0.6" stop-color="#94c4ff" offset="1"></stop></linearGradient><linearGradient xlink:href="#e38afa23-45af-472d-8db3-ec188fb0f633" gradientTransform="matrix(-0.32, -0.95, 0.95, -0.32, -1038.43, -544.4)" y2="942.6" x2="-957.55" y1="942.6" x1="-992.99" id="b4050810-5557-47f2-8462-7144da8acbe4"></linearGradient></defs><title>缺省页2号博学堂后台</title><path d="M27,74.07c1.19-4.36,5.85-17.58,17.3-9.52,0,0,6.4-21.19,25.67-4.53,0,0,9.78-6.14,14.59,6,0,0,6,2.52,5,7.55L28,75.3A1,1,0,0,1,27,74.07Z" class="a6244aa2-a983-4d10-b870-bf442a7b2292"></path><path d="M44.44,158.52c-4.32-2.87-9.82-8.88-9.94-13.13a2.48,2.48,0,0,1,1.71,1.08s9.68,12.69,5,2.19c-2.19-4.95-5-9.89-6.48-14.75C32,125,39,124.75,44,135.09c.67,1.36,4.74,12.13,6.95,11.65a.81.81,0,0,0,.52-.6c.66-1.86.12-5,2.26-5.14,1.87-.1,4.44,2.35,6.11,4.62,3.39,4.59,5.43,11.35,1.75,13.4s-11.42,3.28-17.06-.47Z" class="b7547575-6d50-4fc2-a9d7-680a1563ac85"></path><path d="M193.07,131.34s-13.32,15.49-12.89,29.81h4.31S186,143.88,193.07,131.34Zm10.68-20.71c-2.95,3.7-4.85,8.94-3.08,13.63,1.23,3.23,4.91,3.25,4.65,7.74a14.49,14.49,0,0,1-2.25,6.29,47.72,47.72,0,0,1-7.62,10,8.75,8.75,0,0,1,3.31,8.12,14.62,14.62,0,0,1-4.17,8.1,5.88,5.88,0,0,1-2.47,1.77,6.24,6.24,0,0,1-2.85,0A49.09,49.09,0,0,1,176,162c-2.63-1.24-5.3-2.94-6.19-5.66-1-3.11.6-4.1,2.38-5.08l.45-.25A6,6,0,0,0,175,149.1c1.3-2.12,1.34-5,1.8-7.33.66-3.49-.33-9.85,4-11.22,1.7-.53,3.54-.41,5.23-1,3.68-1.17,5.21-4.62,6.68-8.11l.27-.64a21,21,0,0,1,3-5.5C197.91,113.19,202.51,112.13,203.75,110.63Z" class="abc715f7-bb07-4545-adc1-630f88b15cbf"></path><path d="M237.5,191.31c-16-24-44.43-51.95-117.5-46-91.26,7.44-111.92,35-116.35,44.36a5.34,5.34,0,0,0-1.15,3.14c0,12.43,52.61,22.5,117.5,22.5s117.5-10.07,117.5-22.5a4.66,4.66,0,0,0-.27-1.5Z" class="bada4324-8748-431a-8d49-4cc416afd84a"></path><path d="M156.51,41.57s3.08-8.64,8.23-5.35c0,0,5.89-11,16.73-2.88,0,0,5.1-1.48,7.81,4.49,0,0,2.68-.45,3.74,1.54Z" class="a4ccef95-22fe-4a2e-87cb-d69fda77b880"></path><ellipse transform="translate(-107.53 220.61) rotate(-86.89)" ry="15.26" rx="4.68" cy="167.07" cx="62.7" class="a8dc0915-3853-4450-8900-d492b18beb75"></ellipse><circle r="5" cy="77.84" cx="196.29" class="b2ccb2c6-0dbd-4a04-a508-733e7179e564"></circle><line y2="24.69" x2="78.96" y1="31.76" x1="71.89" class="b7991974-5265-415f-a437-cff6166fdec8"></line><line y2="24.69" x2="71.89" y1="31.76" x1="78.96" class="b7991974-5265-415f-a437-cff6166fdec8"></line><path d="M28.88,164.74s-10.47-10.32-4.58-8.69,8.51,8.14,8.51,8.14-2.62-11.4,3.28-10.86,1.31,10.32,1.31,10.32S34.12,171.8,28.88,164.74Z" class="b8576445-805f-4ae1-bf2e-84a2074a746b"></path><path d="M208,159.19s4-14,6-14,5,14,5,14S215,164.19,208,159.19Z" class="ae9a4d72-176c-4e9f-b2ee-37d0b5da6fe0"></path><rect rx="1" height="10" width="2" y="158.19" x="212.5" class="ae9a4d72-176c-4e9f-b2ee-37d0b5da6fe0"></rect><path d="M215.25,41.58c1,8.18-7.94,12.72-9.75,8.06s8-4.18,6.11,1.93-9.69,2.67-9.69,2.67" class="a33f2105-b270-418c-8a1e-3a33ee8b7171"></path><path d="M79.37,157s22.15,23.89,90,29.75l59.6-1.47a1.51,1.51,0,0,0,.83-2.62c-7-6.19-27.74-23.51-46-28.57C138.55,141.5,79.37,157,79.37,157Z" class="a3fdcab3-8e82-472b-b6eb-30193b6a38af"></path><path d="M175.57,71.63a3.35,3.35,0,0,0-2.31-1.15L125.4,67.13a3.36,3.36,0,0,0-2.86,1.25l-9.67,12.05a3.36,3.36,0,0,0,.07,4.29l15.34,17.84L112.8,123l3.83-18.19a3.36,3.36,0,0,0-1.17-3.3L95.37,85.15,103.73,72a3.36,3.36,0,0,0-3.07-5.14L75.45,68.58a3.35,3.35,0,0,0-3.11,3.58h0l5.85,83.74a3.37,3.37,0,0,0,3.6,3.11h0l18.52-1.38a3.36,3.36,0,0,0-.5-6.7l-15.16,1.13L108,150.31l1.11,3.33a3.36,3.36,0,0,0,2.88,2.28l54.88,5a3.37,3.37,0,0,0,3.66-3v-.06l5.85-83.74A3.37,3.37,0,0,0,175.57,71.63Z" class="e5b4029a-702a-4be0-93fa-873c80955ad6"></path><path d="M165.75,137.26l-43.29-4.16a3.3,3.3,0,0,0-3.65,2.92s0,.06,0,.09a3.36,3.36,0,0,0,3,3.67h0L165.29,144l-.66,9.4-49.29-4.48-4.15-12.46,24.64-32.53a3.36,3.36,0,0,0-.14-4.22L120.41,81.9l6.83-8.51,42.77,3-4.26,60.88Z" class="bd4a580e-c411-4f47-834c-299c1cc8e046"></path><circle r="6.02" cy="95.3" cx="151.73" class="bd4c7fb1-2052-4bf3-9ec4-3c0be95e287e"></circle><path d="M82.25,75l9-.72A1.26,1.26,0,0,1,92.52,76l-4.25,9.82a1.25,1.25,0,0,0,.32,1.43L108,104.75a1.28,1.28,0,0,1,.38,1.23l-4.49,19.21a1.53,1.53,0,0,0,0,.3l.18,19.74-15.39,2.06a2.71,2.71,0,0,1-3.07-2.45l-6-66.65A2.94,2.94,0,0,1,82.25,75Z" class="a894808e-871c-4fe6-b4df-c27513115170"></path><path d="M73.44,169.41H70.61a1.68,1.68,0,0,1-.77-1.29c-.14-.91-1.16-1.41-1.38-2.15s.91-1.8.91-1.8l.19-.24.19-.25,1.88.44s.05.45.07,1,0,.89,0,1.31c0,1,.28,2.06,1.16,2.25C73.52,168.83,73.5,169.22,73.44,169.41Z" class="fac92b6f-6cce-483a-a294-fc0d8cf18b26"></path><path d="M73.2,130.77a6.06,6.06,0,0,0-.45,1.08c-.12,1.65.63,1.87-1.32,2.79,0,0-.83.31-.84-.33s.57-.66.46-1.56-.11-1.05.58-1.59l.45-.75Z" class="e819638a-dfab-4d05-a0b2-912b210cf743"></path><path d="M72.5,131.73s.44.45.47.64c.09.61.29.88.19.95s-.49-.32-.63-.73A1.89,1.89,0,0,1,72.5,131.73Z" class="e819638a-dfab-4d05-a0b2-912b210cf743"></path><path d="M101,115.31a3.61,3.61,0,0,1-1.33,1.93,2,2,0,0,0-.86.63l-.49-.29-.59-.34a1.37,1.37,0,0,0,0-.17c0-.1.08-.25.14-.41a.58.58,0,0,0,.06-.52,1.24,1.24,0,0,1,.1-1c.19-.28.37-.95.49-.93s-.14,1,0,1.14a.19.19,0,0,0,.26.09h0c.76-.34,1.69-2.16,2.11-1.91A3.7,3.7,0,0,1,101,115.31Z" class="e819638a-dfab-4d05-a0b2-912b210cf743"></path><path d="M102.13,113.22l-.56-.4h0l-.88-.62a.17.17,0,0,0-.22,0L98,115.74a.15.15,0,0,0,0,.21l.88.62h0l.56.4a.11.11,0,0,0,.16,0l2.51-3.56A.12.12,0,0,0,102.13,113.22Z" class="ab76bc7e-babd-4cee-a532-824b9b8382cb"></path><path d="M97.85,116.68l-6.1,5.38a.77.77,0,0,1-1.16-.18c-.68-1.12-1.57-3.15-2.49-4.57l-2.95,4.36c1.84,2.42,4.13,4.76,6,4.59,3.89-.34,7.79-8.61,7.79-8.61A1.43,1.43,0,0,0,97.85,116.68Z" class="e819638a-dfab-4d05-a0b2-912b210cf743"></path><path d="M84.51,111.38l-2.67,5.23a45.7,45.7,0,0,0,3.31,5.06l2.95-4.36C86.29,114.49,84.51,111.38,84.51,111.38Z" class="a0daa807-bf54-4db9-a134-4f39b048eedd"></path><path d="M89.84,169.41H83.38a4.64,4.64,0,0,1-.15-2.23c0-.09,0-.15,0-.15s2.21-1.76,2.51-.41a.56.56,0,0,0,0,.12c.38,1.27,2.09,1.84,3.08,2A1.15,1.15,0,0,1,89.84,169.41Z" class="fac92b6f-6cce-483a-a294-fc0d8cf18b26"></path><path d="M79.24,132.75S80,147,80.51,153.83l0,.33a72.15,72.15,0,0,0,2.4,13,3.45,3.45,0,0,0,3.14-.61s.45-4.41.56-7.17c.06-1.59.7-10,1.24-16.81.39-5,.73-9.21.73-9.21Z" class="a15f81e5-1b6b-4268-bb0a-94a52461ec70"></path><path d="M87.08,133.83s-6,15.14-10,22.26-5.21,9.1-5.21,9.1-2.28-.91-2.48-1.53c0,0,1.52-13.74,4.18-17.09,1.5-1.89,3.27-7.57,3.35-9.56s.54-5.91.54-5.91Z" class="b7e8755e-2d3d-4dd5-976d-68c13a0b6c0c"></path><path d="M84,110.45c.06-.33.1-.63.14-.91.12-1,.14-1.55.14-1.61.42,0,.72-.06.72-.06,1-.23.83-4.39.51-5.18s-.94-1.63-3.42-1.12-1.72,2.08-1.36,4.51a1.87,1.87,0,0,0,.37.87,5.94,5.94,0,0,1-2,3.53s4.08,2,6.44,1.27A5.71,5.71,0,0,0,84,110.45Z" class="b7619f2c-dd1b-40d6-8447-59f6768fba98"></path><rect transform="translate(-76.07 190.1) rotate(-81.89)" rx="2.08" height="12.92" width="7.95" y="132.43" x="67.55" class="ae9a4d72-176c-4e9f-b2ee-37d0b5da6fe0"></rect><path d="M76.91,136.69h0a2.07,2.07,0,0,0-1.43-1.25h0l-.2,0-1.73-.25.12-.81a.67.67,0,0,0-.13-.51.69.69,0,0,0-.45-.27l-.45-.06-1.82-.26-.33-.05a.69.69,0,0,0-.77.59l-.12.81-3-.43a2.09,2.09,0,0,0-2.36,1.77l-.54,3.81a2.08,2.08,0,0,0,1.77,2.35l8.66,1.24a2.29,2.29,0,0,0,.45,0h0a2.2,2.2,0,0,0,.67-.17,2.08,2.08,0,0,0,1.23-1.61l.54-3.81A2.11,2.11,0,0,0,76.91,136.69Zm-6.78-2.85a.27.27,0,0,1,.22-.22h.07l.39,0,1.43.21L73,134a.25.25,0,0,1,.21.29l-.11.81-3.1-.44Z" class="ae9a4d72-176c-4e9f-b2ee-37d0b5da6fe0"></path><path d="M80.71,105.85s.4-.07.33-.62-.06-1.27.39-1.14.47.49.65.28.19-1.09,1.52-1.15,1.88.4,2.5.13.65-1.21.65-1.21a1,1,0,0,1-.44.44s1-1.41-.16-2.38-2.42-.34-3.11-.3c-1.53.09-2.52.19-3,1.19S79.73,104.88,80.71,105.85Z" class="ab76bc7e-babd-4cee-a532-824b9b8382cb"></path><path d="M88.93,127.59c0-.13,0-.27,0-.4v0c0-1.31-.06-2.69-.12-4.07a46.12,46.12,0,0,0-.77-7.56,8.11,8.11,0,0,0-2.55-4.08l-.82-.72a3.86,3.86,0,0,1-2.54-.31c-.94-.46-2-1-2.12-.84a7,7,0,0,0-2.09,3.73L75.7,117l1.47,1.12c0,.65-.06,1.32,0,2s0,1.31.06,2a66,66,0,0,1-.13,8.51c0,.52-.07.94-.07,1.22s.52.55.75.65A16.35,16.35,0,0,0,83,134a38.61,38.61,0,0,0,5.66-.26.37.37,0,0,0,.25-.09C88.93,133.63,89,131,88.93,127.59Z" class="b339cffc-5225-4a26-924a-d51519865813"></path><path d="M71.49,131.25s0,.11.57.22c.74.14.74.23.74.23s3-6.87,3.25-7.48c.14-.32,1.83-2.37,3.44-4.31L75.7,117c-1.48,2.54-2.85,4.93-3.13,5.6C71.44,125.22,71.49,131.25,71.49,131.25Z" class="e819638a-dfab-4d05-a0b2-912b210cf743"></path><path d="M217.39,168.78s2.26-7.91,3.39-7.91,2.83,7.91,2.83,7.91S221.35,171.61,217.39,168.78Z" class="ae9a4d72-176c-4e9f-b2ee-37d0b5da6fe0"></path><rect rx="0.57" height="5.65" width="1.13" y="168.22" x="219.93" class="ae9a4d72-176c-4e9f-b2ee-37d0b5da6fe0"></rect><rect transform="translate(14.71 149.66) rotate(-45.82)" rx="1.81" height="4.1" width="15.94" y="55.37" x="176.44" class="be1b6507-19ae-406a-8ee5-76b9c2f844a6"></rect><circle r="16.22" cy="74.85" cx="168.29" class="aaa9d327-539c-48a5-8f33-a4d5422833d8"></circle><path d="M169.38,66.69s7.85,1.87,5.73,9" class="b1e78439-8b57-40bf-a151-3dfe0a360c85"></path></svg>