<svg viewBox="0 0 240 240" xmlns:xlink="http://www.w3.org/1999/xlink" xmlns="http://www.w3.org/2000/svg"><defs><style>.b6d9f602-8348-4733-9c32-9531cda84f25{fill:url(#f3889d3e-2d4b-4123-a4f2-57a2e6d7a7ed);}.bbf068e8-f995-4980-b889-8b9f4fbbb16d{fill:url(#e82df5f0-1a16-4054-9168-b5b866534ad4);}.f03e3c3a-9e9e-4650-9a68-498a16cf05ac{fill:url(#b030254a-2b2a-4023-8c32-a0f688c055d6);}.a8c4b3c1-9105-4824-9a43-db71bc0bde53{fill:url(#f6b592a8-3a2a-42aa-8df7-28e24a355127);}.b1b28d80-1d07-4f17-9d1d-e658d01c4daa{fill:url(#ac813699-11ef-4065-b8b2-a36c17ef5095);}.a52e6670-ebac-46aa-ba37-8787d9163e7f,.e3ef5f95-2d10-4848-a873-baccf59b6a7b,.eb80decd-bcb1-40a5-8e87-049d08e9798c{fill:none;}.e3ef5f95-2d10-4848-a873-baccf59b6a7b,.eb80decd-bcb1-40a5-8e87-049d08e9798c{stroke:#f2f6fa;}.a52e6670-ebac-46aa-ba37-8787d9163e7f,.e3ef5f95-2d10-4848-a873-baccf59b6a7b{stroke-miterlimit:10;}.eb80decd-bcb1-40a5-8e87-049d08e9798c{stroke-linecap:round;stroke-linejoin:round;stroke-width:2px;}.bc02714f-a5e3-4444-9350-2248b43caa57{fill:#f2f2f2;}.b613d84b-934e-48e0-a9da-f75553d69d54{fill:#dfdfdf;}.a52e6670-ebac-46aa-ba37-8787d9163e7f{stroke:#f2f2f2;}.eec8806b-87a7-421b-89ed-ada4f77f5303{fill:url(#e715e318-6fba-4cb4-a8af-2d8e2080c1bc);}.bbb3d2a3-8db5-4874-b624-3990a9f9e40e{fill:url(#acc30e56-fdeb-4b59-8f67-f17595173506);}.abe7c7c3-4d05-48d7-b472-766306af991c{fill:url(#a9849780-3527-42c7-832d-5263a9c0354f);}.fabc30f1-2a05-4e16-b35f-6d74459efee6{fill:url(#bb62278b-7d39-4600-8aee-0bac663d33eb);}.a60c907e-1137-43d4-8f88-503e17fb3054{fill:url(#b9275ad7-ad66-4cc6-a557-1d6ce0b90e5e);}.fefd24c8-9701-445f-96b2-af77946ebcf2{fill:url(#b7e49c2c-04d0-43b5-9e9d-41c8414bb93f);}.bd1e54dd-9b78-4507-988c-5ca1849771ab{fill:url(#f6215377-76a2-449a-8e2c-95a51abda124);}.f717d41c-fb4b-46ee-b921-b388180440c9{fill:url(#ee739bfb-0db2-4be5-96f7-13cbd4cc0006);}.b71dd676-8ee1-454d-916d-30603ee7c345{fill:url(#b8af868f-c566-47f1-b1c9-f5b083e8fe24);}.b84d85bf-b7fb-491d-877d-29c7d47aca0f{fill-rule:evenodd;fill:url(#ab6b4101-f513-43cf-99fc-ab18c38fa3b8);}.a7fcd462-b95b-4e5d-8ec7-0d3e13d03882{fill:url(#ac8cd17d-0be7-422f-975e-c79f549e7828);}.f38899eb-7eaa-474b-b211-33e003a5255a{fill:#fef2e3;}.a503967e-7a37-4b21-a084-89fe07d57e6b{fill:#313162;}.a13c419e-6ab1-4463-9e38-a7aecaafa77c{fill:#f7a491;}.b3064e93-a413-4d03-a97b-27beb8604862{fill:url(#a2462918-a789-4cbc-885d-262b7d9c62cb);}.f71e09a0-cadc-4593-8b6a-078dae397fe1{fill:#769bdd;}.a3a4e5b4-e404-451d-93bb-4c65cd88dc6e{fill:#8faded;}.a9b7fc43-029a-4fcd-a6e4-6dbb0c7ea0a1{fill:#45487a;}.e8b0308b-ae38-4c0c-9410-e60a6aeec6cd{fill:url(#a965cf75-5b11-4719-90b8-1898e7ecf982);}.f104805e-f556-4f24-9555-61473d870cfe{fill:#fff;}.f3d6dc51-6354-41b1-8b1b-12ea4a7d5b66{fill:url(#e06d62d4-e885-4e8a-b836-6ac4b7506be3);}</style><linearGradient gradientUnits="userSpaceOnUse" gradientTransform="translate(-166.2 -348.12) rotate(-42.67)" y2="508.97" x2="-166.32" y1="508.97" x1="-187.26" id="f3889d3e-2d4b-4123-a4f2-57a2e6d7a7ed"><stop stop-opacity="0" stop-color="#f2f6fa" offset="0"></stop><stop stop-opacity="0.5" stop-color="#e6e6e6" offset="0.7"></stop></linearGradient><linearGradient xlink:href="#f3889d3e-2d4b-4123-a4f2-57a2e6d7a7ed" gradientTransform="matrix(1, 0, 0, 1, 0, 0)" y2="126.8" x2="215.85" y1="126.8" x1="180.02" id="e82df5f0-1a16-4054-9168-b5b866534ad4"></linearGradient><linearGradient gradientUnits="userSpaceOnUse" y2="61.25" x2="120" y1="296.25" x1="120" id="b030254a-2b2a-4023-8c32-a0f688c055d6"><stop stop-opacity="0" stop-color="#f4f4f4" offset="0"></stop><stop stop-opacity="0.7" stop-color="#dfdfdf" offset="0.69"></stop></linearGradient><linearGradient gradientUnits="userSpaceOnUse" y2="88.49" x2="106.61" y1="88.49" x1="43.87" id="f6b592a8-3a2a-42aa-8df7-28e24a355127"><stop stop-opacity="0.5" stop-color="#e6e6e6" offset="0.14"></stop><stop stop-opacity="0" stop-color="#f2f6fa" offset="1"></stop></linearGradient><linearGradient xlink:href="#f3889d3e-2d4b-4123-a4f2-57a2e6d7a7ed" gradientTransform="matrix(1, 0, 0, 1, 0, 0)" y2="35.48" x2="162.05" y1="35.48" x1="125.54" id="ac813699-11ef-4065-b8b2-a36c17ef5095"></linearGradient><linearGradient gradientUnits="userSpaceOnUse" gradientTransform="matrix(0, 1.16, -1.22, 0, 343.15, 28.89)" y2="211.16" x2="108.2" y1="115.78" x1="151.06" id="e715e318-6fba-4cb4-a8af-2d8e2080c1bc"><stop stop-opacity="0.6" stop-color="#ccc" offset="0"></stop><stop stop-opacity="0" stop-color="#dfdfdf" offset="1"></stop></linearGradient><linearGradient xlink:href="#e715e318-6fba-4cb4-a8af-2d8e2080c1bc" gradientTransform="matrix(0, 0.29, -0.34, 0, -268.87, 565.53)" y2="-1059.84" x2="-1383.33" y1="-1155.22" x1="-1340.47" id="acc30e56-fdeb-4b59-8f67-f17595173506"></linearGradient><linearGradient gradientUnits="userSpaceOnUse" gradientTransform="translate(-11.61 15.52) rotate(-6.05)" y2="74.52" x2="184.65" y1="74.52" x1="168.63" id="a9849780-3527-42c7-832d-5263a9c0354f"><stop stop-color="#fff" offset="0"></stop><stop stop-color="#94c4ff" offset="1"></stop></linearGradient><linearGradient xlink:href="#a9849780-3527-42c7-832d-5263a9c0354f" y2="69.62" x2="194.85" y1="69.62" x1="169.01" id="bb62278b-7d39-4600-8aee-0bac663d33eb"></linearGradient><linearGradient xlink:href="#a9849780-3527-42c7-832d-5263a9c0354f" y2="64.22" x2="206.14" y1="64.22" x1="169.39" id="b9275ad7-ad66-4cc6-a557-1d6ce0b90e5e"></linearGradient><linearGradient gradientUnits="userSpaceOnUse" gradientTransform="translate(-11.61 15.52) rotate(-6.05)" y2="146.74" x2="180.43" y1="146.74" x1="98.16" id="b7e49c2c-04d0-43b5-9e9d-41c8414bb93f"><stop stop-opacity="0.4" stop-color="#cbcbcb" offset="0"></stop><stop stop-color="#ccc" offset="0.25"></stop><stop stop-opacity="0.5" stop-color="#bababa" offset="1"></stop></linearGradient><linearGradient gradientUnits="userSpaceOnUse" gradientTransform="translate(170.62 -12.62) scale(1 0.85)" y2="195.42" x2="-61.45" y1="195.42" x1="-73.87" id="f6215377-76a2-449a-8e2c-95a51abda124"><stop stop-color="#cbcbcb" offset="0"></stop><stop stop-opacity="0.4" stop-color="#ccc" offset="1"></stop><stop stop-opacity="0.5" stop-color="#bababa" offset="1"></stop></linearGradient><linearGradient gradientUnits="userSpaceOnUse" gradientTransform="matrix(1.01, -0.11, 0.11, 1, -13.1, 13.87)" y2="120.67" x2="180.67" y1="120.67" x1="80.03" id="ee739bfb-0db2-4be5-96f7-13cbd4cc0006"><stop stop-color="#cbcbcb" offset="0"></stop><stop stop-color="#ccc" offset="0.25"></stop><stop stop-color="#bababa" offset="1"></stop></linearGradient><linearGradient gradientUnits="userSpaceOnUse" gradientTransform="matrix(0.71, 0.76, -0.84, 0.65, 137.73, -60.57)" y2="82.34" x2="177.49" y1="139.55" x1="102.53" id="b8af868f-c566-47f1-b1c9-f5b083e8fe24"><stop stop-color="#fff" offset="0"></stop><stop stop-opacity="0" stop-color="#bababa" offset="0.95"></stop></linearGradient><linearGradient gradientUnits="userSpaceOnUse" gradientTransform="matrix(1.09, -0.02, 0.03, 1.2, -15.69, -15.27)" y2="99.91" x2="164.5" y1="99.91" x1="124.78" id="ab6b4101-f513-43cf-99fc-ab18c38fa3b8"><stop stop-color="#dfdfdf" offset="0.7"></stop><stop stop-color="#999" offset="1"></stop></linearGradient><linearGradient xlink:href="#a9849780-3527-42c7-832d-5263a9c0354f" y2="81.63" x2="173.15" y1="81.63" x1="164.2" id="ac8cd17d-0be7-422f-975e-c79f549e7828"></linearGradient><linearGradient gradientUnits="userSpaceOnUse" y2="143.69" x2="93.71" y1="143.69" x1="87.17" id="a2462918-a789-4cbc-885d-262b7d9c62cb"><stop stop-color="#ff9084" offset="0.21"></stop><stop stop-color="#ffc8ae" offset="0.83"></stop></linearGradient><linearGradient xlink:href="#a2462918-a789-4cbc-885d-262b7d9c62cb" y2="150.69" x2="103.4" y1="150.69" x1="86.12" id="a965cf75-5b11-4719-90b8-1898e7ecf982"></linearGradient><linearGradient xlink:href="#a2462918-a789-4cbc-885d-262b7d9c62cb" y2="142.39" x2="102.11" y1="150.09" x1="104.09" id="e06d62d4-e885-4e8a-b836-6ac4b7506be3"></linearGradient></defs><title>缺省页2号博学堂后台</title><g id="e2d38026-b908-420f-804f-17341cf1989b"><path d="M47.44,158.71c-4.32-2.87-9.81-8.88-9.94-13.14a2.55,2.55,0,0,1,1.72,1.09s9.67,12.69,5,2.19c-2.2-4.95-5-9.9-6.49-14.75C35,125.21,42,124.94,47,135.28c.66,1.36,4.74,12.13,6.94,11.65a.81.81,0,0,0,.52-.61c.66-1.86.13-5,2.26-5.13,1.87-.11,4.44,2.35,6.12,4.61,3.38,4.6,5.42,11.36,1.75,13.41s-11.43,3.28-17.07-.47Z" class="b6d9f602-8348-4733-9c32-9531cda84f25"></path><path d="M203.58,119.61s-13.32,15.49-12.88,29.81H195S196.56,132.15,203.58,119.61ZM214.26,98.9c-2.95,3.7-4.84,8.94-3.08,13.63,1.23,3.23,4.91,3.25,4.65,7.74a14.49,14.49,0,0,1-2.25,6.29,48,48,0,0,1-7.61,10,8.76,8.76,0,0,1,3.3,8.11,14.61,14.61,0,0,1-4.17,8.11,5.82,5.82,0,0,1-2.47,1.77,6.24,6.24,0,0,1-2.85,0,49.45,49.45,0,0,1-13.26-4.23c-2.62-1.24-5.3-2.94-6.19-5.66-1-3.11.61-4.1,2.38-5.08l.45-.25a6.07,6.07,0,0,0,2.36-1.94c1.29-2.13,1.33-5,1.79-7.33.67-3.49-.32-9.85,4.05-11.22,1.7-.53,3.54-.41,5.23-.95,3.68-1.17,5.21-4.62,6.68-8.12l.27-.63a21,21,0,0,1,3-5.5C208.43,101.46,213,100.4,214.26,98.9Z" class="bbf068e8-f995-4980-b889-8b9f4fbbb16d"></path><path d="M237.5,189.72c-16-24-44.43-51.95-117.5-46-91.26,7.43-111.92,35-116.35,44.35a5.34,5.34,0,0,0-1.15,3.15c0,12.43,52.61,22.5,117.5,22.5s117.5-10.07,117.5-22.5a4.66,4.66,0,0,0-.27-1.5Z" class="f03e3c3a-9e9e-4650-9a68-498a16cf05ac"></path><path d="M43.91,98.1c1.18-4.36,5.84-17.58,17.29-9.52,0,0,6.41-21.19,25.67-4.53,0,0,9.78-6.14,14.6,6,0,0,6,2.51,5,7.55L44.92,99.32A1,1,0,0,1,43.91,98.1Z" class="a8c4b3c1-9105-4824-9a43-db71bc0bde53"></path><path d="M125.54,41.1s3.08-8.64,8.22-5.35c0,0,5.9-11,16.73-2.88,0,0,5.11-1.47,7.82,4.49,0,0,2.67-.45,3.74,1.54Z" class="b1b28d80-1d07-4f17-9d1d-e658d01c4daa"></path><circle r="5" cy="87.3" cx="212.55" class="e3ef5f95-2d10-4848-a873-baccf59b6a7b"></circle><line y2="53.5" x2="62.07" y1="60.57" x1="55" class="eb80decd-bcb1-40a5-8e87-049d08e9798c"></line><line y2="53.5" x2="55" y1="60.57" x1="62.07" class="eb80decd-bcb1-40a5-8e87-049d08e9798c"></line><path d="M28.88,163.14s-10.47-10.32-4.58-8.69,8.51,8.15,8.51,8.15-2.62-11.41,3.28-10.86,1.31,10.32,1.31,10.32S34.12,170.2,28.88,163.14Z" class="bc02714f-a5e3-4444-9350-2248b43caa57"></path><path d="M208,158.72s4-14,6-14,5,14,5,14S215,163.72,208,158.72Z" class="b613d84b-934e-48e0-a9da-f75553d69d54"></path><rect rx="1" height="10" width="2" y="157.72" x="212.5" class="b613d84b-934e-48e0-a9da-f75553d69d54"></rect><path d="M217.39,172.63s2.26-7.91,3.39-7.91,2.83,7.91,2.83,7.91S221.35,175.46,217.39,172.63Z" class="b613d84b-934e-48e0-a9da-f75553d69d54"></path><rect rx="0.57" height="5.65" width="1.13" y="172.07" x="219.93" class="b613d84b-934e-48e0-a9da-f75553d69d54"></rect><path d="M208,26.28c1,8.18-7.94,12.73-9.74,8.06s8-4.18,6.1,1.93S194.7,39,194.7,39" class="a52e6670-ebac-46aa-ba37-8787d9163e7f"></path><ellipse transform="translate(-48.46 298.82) rotate(-86.89)" ry="60.75" rx="19.62" cy="174.99" cx="133.52" class="eec8806b-87a7-421b-89ed-ada4f77f5303"></ellipse><ellipse transform="translate(-71.01 258.63) rotate(-86.89)" ry="15.26" rx="5.42" cy="166.8" cx="101.03" class="bbb3d2a3-8db5-4874-b624-3990a9f9e40e"></ellipse><path d="M176.2,78.22a2.75,2.75,0,0,1-.85-1.65,9.37,9.37,0,0,0-9.44-8.25,2.56,2.56,0,1,1-.1-5.11,14.46,14.46,0,0,1,14.67,12.71,2.66,2.66,0,0,1-4.28,2.3Z" class="abe7c7c3-4d05-48d7-b472-766306af991c"></path><path d="M186.38,77.53a3,3,0,0,1-.91-1.7,19.53,19.53,0,0,0-20.18-17.64,2.61,2.61,0,0,1-.23-5.22,24.53,24.53,0,0,1,17.22,6.15,25,25,0,0,1,8.4,16.23,2.5,2.5,0,0,1-2.31,2.78A2.77,2.77,0,0,1,186.38,77.53Z" class="fabc30f1-2a05-4e16-b35f-6d74459efee6"></path><path d="M197.65,76.77a2.91,2.91,0,0,1-.9-1.7,30.66,30.66,0,0,0-10.4-20.61,31,31,0,0,0-21.77-7.61,2.55,2.55,0,1,1-.34-5.09A36,36,0,0,1,202,74.6a2.56,2.56,0,0,1-2.31,2.77,2.42,2.42,0,0,1-2-.6Z" class="a60c907e-1137-43d4-8f88-503e17fb3054"></path><path d="M180.57,142c-.56.53-1.14,1.05-1.72,1.55A8,8,0,0,0,180.57,142Z" class="fefd24c8-9701-445f-96b2-af77946ebcf2"></path><rect transform="translate(130.18 -29.2) rotate(42.16)" rx="5.1" height="28.23" width="12.42" y="140.13" x="96.75" class="bd1e54dd-9b78-4507-988c-5ca1849771ab"></rect><path d="M180.2,126.22c-6.5-9.61-19.33-22.06-33.19-31.4C119.84,76.51,92.77,72,85.55,82.57c-.6.88-2.74,3.34-3,4.39a11.11,11.11,0,0,0-.65,1.54,60.34,60.34,0,0,0,26.8,70.67,61.23,61.23,0,0,0,70.94-6.26c.67-.58,1.34-1.18,2-1.79.21-.25.41-.5.6-.77C185.74,145.18,186.42,135.45,180.2,126.22Z" class="f717d41c-fb4b-46ee-b921-b388180440c9"></path><ellipse transform="matrix(0.56, -0.83, 0.83, 0.56, -37.34, 161.36)" ry="58.6" rx="25.23" cy="115.9" cx="133.53" class="b71dd676-8ee1-454d-916d-30603ee7c345"></ellipse><path d="M166.13,77.41l-40.52,38.53a5.74,5.74,0,0,0-.13,8h0a4.7,4.7,0,0,0,7.35-.49Z" class="b84d85bf-b7fb-491d-877d-29c7d47aca0f"></path><circle r="4.48" cy="78.9" cx="164.74" class="a7fcd462-b95b-4e5d-8ec7-0d3e13d03882"></circle><path d="M88.13,146.38c0,.24-3,14.61-3,14.61l6.23-3.51-.64-11.89Z" class="f38899eb-7eaa-474b-b211-33e003a5255a"></path><path d="M98.13,126.22a10.28,10.28,0,0,0,1.11,0,5.55,5.55,0,0,1,1.25,0,2.85,2.85,0,0,1,2,1.5c.39,1.07,1.92,1,0,4.89-2.18,4.45-4.51,2.89-4.54,2.79s-1.05-3.86-1.05-3.86S95.38,133,95.4,132.9,93.69,125.92,98.13,126.22Z" class="a503967e-7a37-4b21-a084-89fe07d57e6b"></path><path d="M83,167.16c.44-.07,1.49-.84,1.87-.91l1.17-.19c.33-1.24,2-8,2.17-10,.2-2.15,1.69-11.46,1.69-11.46l3.86.72s-1.6,7.16-2.05,10.63c-.38,3-3.58,9.69-4,10.4v0c-.06,1.06-.56.7-.56.7l-.8.22s-2.86.28-3,.35S82.57,167.24,83,167.16Z" class="a13c419e-6ab1-4463-9e38-a7aecaafa77c"></path><path d="M91.07,138.45c-2.83.86-3.9,9.32-3.9,9.32s4.64,1.72,5.76,1.08c0,0,.29-10.71.78-10.45Z" class="b3064e93-a413-4d03-a97b-27beb8604862"></path><path d="M72.17,180.25a31,31,0,0,0-1.31,4.68c0,.12.16.73.14.86a7.65,7.65,0,0,1-6.14,3c1-1,2.59-2,2.67-2.38a43.26,43.26,0,0,0,1.06-6.14C69.88,180.87,70.75,180.39,72.17,180.25Z" class="f38899eb-7eaa-474b-b211-33e003a5255a"></path><path d="M95.9,155.1l3.69,10.6-8.14,1.56c-2.21.41-14.58,1-14.9,1.19s-2.78,8.61-3.93,13.26a10.6,10.6,0,0,1-4.69-.47c.64-6.66,2.94-17.22,3.68-18.36C72.81,161,95.9,155.1,95.9,155.1Z" class="f71e09a0-cadc-4593-8b6a-078dae397fe1"></path><path d="M81.51,184.9a30.33,30.33,0,0,0-.43,4.84c0,.13.29.69.3.83a7.75,7.75,0,0,1-5.49,4.11c.84-1.23,2.17-2.5,2.19-2.84A42.19,42.19,0,0,0,78,185.6C79.37,186,80.13,185.31,81.51,184.9Z" class="f38899eb-7eaa-474b-b211-33e003a5255a"></path><path d="M100.21,155.65l1.43,2.49c2.17,3.8.4,6.86-3.62,8.45l-.06,0c-2.1.83-13.57,4.07-13.83,4.35a150.83,150.83,0,0,0-1.91,15.28,10.58,10.58,0,0,1-4.69.43c-.6-6.66-.28-17.47.24-18.74C78.6,165.87,100.21,155.65,100.21,155.65Z" class="a3a4e5b4-e404-451d-93bb-4c65cd88dc6e"></path><path d="M80.9,189.81c.32-.36,1.49,1.63,1.79,2.06a1,1,0,0,1,.2.91c-.11.2-6.32,3.93-7.83,4.2a.84.84,0,0,1-.46-.12c-.59-.54,2.14-4.49,3.36-5A5.94,5.94,0,0,0,80.9,189.81Z" class="a9b7fc43-029a-4fcd-a6e4-6dbb0c7ea0a1"></path><path d="M70.67,185c.38-.3,1.17,1.89,1.38,2.36a1,1,0,0,1,0,.93c-.14.18-6.93,2.66-8.47,2.63a.79.79,0,0,1-.42-.21c-.48-.64,2.92-4,4.22-4.28A5.83,5.83,0,0,0,70.67,185Z" class="a9b7fc43-029a-4fcd-a6e4-6dbb0c7ea0a1"></path><path d="M86.13,159.47c-.48,3.51,16.58,4,17.16,3.19s-1.36-15.35-1.07-15.82l.55-8.14c-1-.3-6.25-.14-7.76-.13h0a.8.8,0,0,1-.31-.06,5.34,5.34,0,0,0-2.78.16Z" class="e8b0308b-ae38-4c0c-9410-e60a6aeec6cd"></path><path d="M99,135.52a19.63,19.63,0,0,0-.54,3.95c.11,1.12-.18,1-2.34,1.11-2,.08-1.29-.91-1-2a36.45,36.45,0,0,0,.37-4.48Z" class="f38899eb-7eaa-474b-b211-33e003a5255a"></path><path d="M99.7,128.9a3.93,3.93,0,0,1,1.57,2.16c.43,1.46,0,5.24-3,6.13s-4.25-2.1-3.65-4.44S96.54,127.46,99.7,128.9Z" class="f38899eb-7eaa-474b-b211-33e003a5255a"></path><path d="M93.8,131.89c.06.62.41,1.11.78,1.07s.61-.58.55-1.2-.41-1.11-.78-1.08S93.74,131.26,93.8,131.89Z" class="f38899eb-7eaa-474b-b211-33e003a5255a"></path><path d="M100.36,134.31c-.37.55-.36,1.2,0,1.45s1,0,1.34-.55.37-1.19,0-1.44S100.73,133.76,100.36,134.31Z" class="f38899eb-7eaa-474b-b211-33e003a5255a"></path><path d="M95.78,134.54l2.22.56a1,1,0,0,1-1.25.63C95.55,135.46,95.78,134.54,95.78,134.54Z" class="f104805e-f556-4f24-9555-61473d870cfe"></path><path d="M119.79,165.49c-.06-.09-.15-.08-.24-.06a23,23,0,0,1-2.62.28,3.11,3.11,0,0,1-.43,0,1.05,1.05,0,0,0-.72.1,1.25,1.25,0,0,1-.39.11c-.43.08-1.75-.11-2.41-.11a.38.38,0,0,1-.34-.22c-1.08-2.37-3.44-7.68-4-9.47-.65-2.3-4.18-12.54-4.18-12.54l-4.1,2s3.2,7.45,4.38,11.13c.91,2.85,4.94,8.5,6.18,10.11a1.86,1.86,0,0,0,1.93,1.08.53.53,0,0,1,.38.12,2.48,2.48,0,0,0,.63.37,1.35,1.35,0,0,1,.44.31c.23.23.44.48.66.73s.26.21.41.13a.33.33,0,0,0,.18-.43,1.8,1.8,0,0,0-.41-.8.48.48,0,0,1-.08-.62,2.26,2.26,0,0,1,.26-.42.54.54,0,0,1,.41-.24,8,8,0,0,0,1,0h.42s.49,0,.65-.06l.5-.07a4.1,4.1,0,0,0,.49-.17.6.6,0,0,0,.38-.24.15.15,0,0,0,0-.17.17.17,0,0,0-.16-.08c-.11,0-.66,0-.66,0l.82-.17a.73.73,0,0,0,.5-.34C119.79,165.66,119.84,165.59,119.79,165.49Z" class="f38899eb-7eaa-474b-b211-33e003a5255a"></path><path d="M102.83,138.68c2.16-.39,4,9.3,4,9.3s-4.81,1.34-6,.64c0,0-1.4-6.21-1.91-6Z" class="f3d6dc51-6354-41b1-8b1b-12ea4a7d5b66"></path><path d="M101.66,130.83s-1.11.27-1.52-.44-1.89-2.26-3.77-1.62,1.65-1.56,1.8-1.56h2a19,19,0,0,1,1.44,1.27c0,.12.45,1.49.45,1.49Z" class="a503967e-7a37-4b21-a084-89fe07d57e6b"></path></g></svg>