<svg viewBox="0 0 240 240" xmlns:xlink="http://www.w3.org/1999/xlink" xmlns="http://www.w3.org/2000/svg"><defs><style>.fb3f9948-8dcb-4157-a9c3-6bf4f77434bd{fill:url(#bb5a7a89-2cef-4f6a-a1a5-86a6dcbfdf25);}.a05732d7-4401-49f9-a1fe-cc18537f8461{fill:url(#a78ed4e0-7c14-4b7e-a64e-f60f6df61801);}.aa6d9edb-3aab-4b82-83b6-edae63501131{fill:url(#e2229bb8-2827-4679-9250-d04e8a26ca7a);}.f374abe8-85b5-4ce1-b2bd-f8c0cdd2e34a{fill:url(#b09499d3-7153-4f05-81b8-8675bdf8a49f);}.f130fe4b-668b-474a-8ecd-865688c5548e{fill:url(#bd68ad01-37b2-4cde-9193-ce1fba9b65c6);}.ff543e00-2010-4beb-bc69-8e088de89902{fill:url(#a3b434a4-6b04-4d4b-859a-af8857df6da3);}.bdcca4cf-2183-4935-95e1-4669cbf364bf,.fa0256a4-a1b8-4555-9872-bad23354f44f,.fa0a5664-7930-4808-9ba1-5ce15c810ab1{fill:none;}.fa0256a4-a1b8-4555-9872-bad23354f44f,.fa0a5664-7930-4808-9ba1-5ce15c810ab1{stroke:#f2f6fa;}.bdcca4cf-2183-4935-95e1-4669cbf364bf,.fa0a5664-7930-4808-9ba1-5ce15c810ab1{stroke-miterlimit:10;}.fa0256a4-a1b8-4555-9872-bad23354f44f{stroke-linecap:round;stroke-linejoin:round;stroke-width:2px;}.acd8d692-4af8-4857-809b-311114bece50{fill:#f2f2f2;}.b4a80018-1b1c-4f96-bb63-34bb00dcf1e5{fill:#dfdfdf;}.bdcca4cf-2183-4935-95e1-4669cbf364bf{stroke:#f2f2f2;}.ace7d9ca-b1c0-4b8d-82df-b2bf6f3267b8{fill:url(#a17b8c84-694c-4caf-854d-d3186a3be0af);}.eeeb03ed-e207-4f7a-ae26-1666187d3812{fill:#fff;}.bee64fd4-9114-4499-8748-4d016ffe6e71{fill:url(#ba86937e-9732-480c-b9a9-1aedc319c3a4);}.a4e06643-45dc-4d23-bbe8-3f009a718119{fill:url(#a6251c11-23be-499c-b7e6-c874cc3955d0);}.e0d6cd01-ef26-474b-aefe-c885df5f8568{fill:url(#e105b1a3-2e76-4bd9-add0-b320bd904ded);}.b247977f-3eef-45cb-a21d-05708bd0d112{fill:url(#ad81a586-054a-4594-b83c-6d2aa7a3dd1d);}.f814184e-0dec-4e84-826d-3b5c48b92ae0{fill:url(#aaca5b7a-bdeb-4176-9e25-dfa743893005);}.e3923764-bf7f-4a96-a791-4e49c0353d49{fill:#fbdbbe;}.a2d109d8-76a8-436b-9ab0-8a3eaab63815{fill:#769bdd;}.eab86080-5eea-4ee3-9d6e-6ded1ce0e756{fill:#45487a;}.af9fb8c6-b32e-4b01-ad4f-78d9e2d72839{fill:#8faded;}.ad4a1dc6-a266-4c59-9493-d8923d428c2a{fill:url(#bad59212-3e17-4fe2-81dd-52d2707d9105);}.be478571-23da-48b5-96f3-fb6eed5ed741{fill:#313162;}.fe30905b-85d8-438b-959c-8ffc935e1736{fill:#fdecdb;}.b0838491-7442-40d7-9d5f-5a773d066f1b{fill:#fef2e3;}</style><linearGradient gradientUnits="userSpaceOnUse" gradientTransform="translate(58.74 -431.15) rotate(-42.67)" y2="419.4" x2="-389.69" y1="419.4" x1="-410.63" id="bb5a7a89-2cef-4f6a-a1a5-86a6dcbfdf25"><stop stop-opacity="0" stop-color="#f2f6fa" offset="0"></stop><stop stop-opacity="0.5" stop-color="#e6e6e6" offset="0.7"></stop></linearGradient><linearGradient xlink:href="#bb5a7a89-2cef-4f6a-a1a5-86a6dcbfdf25" gradientTransform="matrix(1, 0, 0, 1, 0, 0)" y2="129.33" x2="215.85" y1="129.33" x1="180.02" id="a78ed4e0-7c14-4b7e-a64e-f60f6df61801"></linearGradient><linearGradient gradientUnits="userSpaceOnUse" y2="63.79" x2="120" y1="298.79" x1="120" id="e2229bb8-2827-4679-9250-d04e8a26ca7a"><stop stop-opacity="0" stop-color="#f4f4f4" offset="0"></stop><stop stop-opacity="0.7" stop-color="#dfdfdf" offset="0.69"></stop></linearGradient><linearGradient gradientUnits="userSpaceOnUse" y2="127.39" x2="143.5" y1="219.61" x1="159.52" id="b09499d3-7153-4f05-81b8-8675bdf8a49f"><stop stop-opacity="0" stop-color="#dfdfdf" offset="0.2"></stop><stop stop-color="#ccc" offset="0.83"></stop></linearGradient><linearGradient gradientUnits="userSpaceOnUse" y2="65.89" x2="116.35" y1="65.89" x1="34.13" id="bd68ad01-37b2-4cde-9193-ce1fba9b65c6"><stop stop-opacity="0.5" stop-color="#e6e6e6" offset="0.14"></stop><stop stop-opacity="0" stop-color="#f2f6fa" offset="1"></stop></linearGradient><linearGradient xlink:href="#bb5a7a89-2cef-4f6a-a1a5-86a6dcbfdf25" gradientTransform="matrix(1, 0, 0, 1, 0, 0)" y2="49.58" x2="194.26" y1="49.58" x1="157.75" id="a3b434a4-6b04-4d4b-859a-af8857df6da3"></linearGradient><linearGradient gradientUnits="userSpaceOnUse" y2="115.34" x2="168.96" y1="115.34" x1="80.27" id="a17b8c84-694c-4caf-854d-d3186a3be0af"><stop stop-color="#e2e2e2" offset="0.2"></stop><stop stop-color="#f4f4f4" offset="0.84"></stop></linearGradient><linearGradient gradientUnits="userSpaceOnUse" y2="98.32" x2="87.35" y1="98.32" x1="71.04" id="ba86937e-9732-480c-b9a9-1aedc319c3a4"><stop stop-color="#fff" offset="0"></stop><stop stop-color="#94c4ff" offset="1"></stop></linearGradient><linearGradient xlink:href="#ba86937e-9732-480c-b9a9-1aedc319c3a4" y2="115.34" x2="87.35" y1="115.34" x1="71.04" id="a6251c11-23be-499c-b7e6-c874cc3955d0"></linearGradient><linearGradient xlink:href="#ba86937e-9732-480c-b9a9-1aedc319c3a4" y2="132.36" x2="87.35" y1="132.36" x1="71.04" id="e105b1a3-2e76-4bd9-add0-b320bd904ded"></linearGradient><linearGradient gradientUnits="userSpaceOnUse" y2="47.63" x2="126.05" y1="53.52" x1="126.94" id="ad81a586-054a-4594-b83c-6d2aa7a3dd1d"><stop stop-color="#ff9084" offset="0.21"></stop><stop stop-color="#ffc8ae" offset="0.83"></stop></linearGradient><linearGradient xlink:href="#ad81a586-054a-4594-b83c-6d2aa7a3dd1d" y2="44.34" x2="115.83" y1="57.96" x1="119.17" id="aaca5b7a-bdeb-4176-9e25-dfa743893005"></linearGradient><linearGradient xlink:href="#ad81a586-054a-4594-b83c-6d2aa7a3dd1d" y2="45.01" x2="111.55" y1="56.67" x1="112.27" id="bad59212-3e17-4fe2-81dd-52d2707d9105"></linearGradient></defs><title>缺省页2号博学堂后台</title><g id="aa5a12c2-6ace-4f3c-8685-453e6fc1204b"><path d="M47.44,161.24c-4.32-2.87-9.81-8.87-9.94-13.13a2.53,2.53,0,0,1,1.72,1.08s9.67,12.69,5,2.2c-2.2-5-5-9.9-6.49-14.76C35,127.75,42,127.47,47,137.81c.66,1.36,4.74,12.13,6.94,11.65a.78.78,0,0,0,.52-.6c.66-1.86.13-5,2.26-5.14,1.87-.1,4.44,2.35,6.12,4.62,3.38,4.6,5.42,11.35,1.75,13.4s-11.43,3.28-17.07-.47Z" class="fb3f9948-8dcb-4157-a9c3-6bf4f77434bd"></path><path d="M203.58,122.14S190.26,137.63,190.7,152H195S196.56,134.68,203.58,122.14Zm10.68-20.71c-2.95,3.7-4.84,8.94-3.08,13.63,1.23,3.23,4.91,3.26,4.65,7.75a14.54,14.54,0,0,1-2.25,6.29,48,48,0,0,1-7.61,10,8.78,8.78,0,0,1,3.3,8.12,14.62,14.62,0,0,1-4.17,8.1,5.93,5.93,0,0,1-2.47,1.78,6.53,6.53,0,0,1-2.85,0,49.81,49.81,0,0,1-13.26-4.23c-2.62-1.25-5.3-3-6.19-5.66-1-3.12.61-4.11,2.38-5.08l.45-.25a6.09,6.09,0,0,0,2.36-1.95c1.29-2.12,1.33-5,1.79-7.33.67-3.49-.32-9.85,4.05-11.22,1.7-.53,3.54-.41,5.23-.95,3.68-1.17,5.21-4.62,6.68-8.11l.27-.64a20.89,20.89,0,0,1,3-5.49C208.43,104,213,102.94,214.26,101.43Z" class="a05732d7-4401-49f9-a1fe-cc18537f8461"></path><path d="M237.5,192.25c-16-24-44.43-51.95-117.5-46-91.26,7.44-111.92,35-116.35,44.36a5.34,5.34,0,0,0-1.15,3.14c0,12.43,52.61,22.5,117.5,22.5s117.5-10.07,117.5-22.5a4.66,4.66,0,0,0-.27-1.5Z" class="aa6d9edb-3aab-4b82-83b6-edae63501131"></path><path d="M83.69,160.06s15.39,37.17,88.38,45.74l47-20.59S189.46,161,173.41,157.06C145.75,150.26,83.69,160.06,83.69,160.06Z" class="f374abe8-85b5-4ce1-b2bd-f8c0cdd2e34a"></path><path d="M34.18,78.48c1.55-5.72,7.66-23,22.66-12.48,0,0,8.39-27.76,33.64-5.93,0,0,12.81-8,19.13,7.91,0,0,7.91,3.3,6.59,9.89L35.51,80.08A1.27,1.27,0,0,1,34.18,78.48Z" class="f130fe4b-668b-474a-8ecd-865688c5548e"></path><path d="M157.75,55.2s3.08-8.64,8.22-5.35c0,0,5.9-11,16.73-2.88,0,0,5.11-1.48,7.82,4.49,0,0,2.67-.45,3.74,1.54Z" class="ff543e00-2010-4beb-bc69-8e088de89902"></path><circle r="5" cy="83.29" cx="181.36" class="fa0a5664-7930-4808-9ba1-5ce15c810ab1"></circle><line y2="40.83" x2="45.18" y1="47.9" x1="38.11" class="fa0256a4-a1b8-4555-9872-bad23354f44f"></line><line y2="40.83" x2="38.11" y1="47.9" x1="45.18" class="fa0256a4-a1b8-4555-9872-bad23354f44f"></line><path d="M28.88,165.68S18.41,155.36,24.3,157s8.51,8.14,8.51,8.14-2.62-11.4,3.28-10.86,1.31,10.32,1.31,10.32S34.12,172.73,28.88,165.68Z" class="acd8d692-4af8-4857-809b-311114bece50"></path><path d="M207.16,161.25s4-14,6-14,5,14,5,14S214.16,166.25,207.16,161.25Z" class="b4a80018-1b1c-4f96-bb63-34bb00dcf1e5"></path><rect rx="1" height="10" width="2" y="160.25" x="211.66" class="b4a80018-1b1c-4f96-bb63-34bb00dcf1e5"></rect><path d="M217.39,175.17s2.26-7.92,3.39-7.92,2.83,7.92,2.83,7.92S221.35,178,217.39,175.17Z" class="b4a80018-1b1c-4f96-bb63-34bb00dcf1e5"></path><rect rx="0.57" height="5.65" width="1.13" y="174.6" x="219.93" class="b4a80018-1b1c-4f96-bb63-34bb00dcf1e5"></rect><path d="M206.71,23.75c1,8.18-7.94,12.72-9.75,8.06s8-4.18,6.11,1.92-9.69,2.68-9.69,2.68" class="bdcca4cf-2183-4935-95e1-4669cbf364bf"></path><path d="M162.59,66.78H90a9.76,9.76,0,0,0-9.75,9.75v77.63A9.75,9.75,0,0,0,90,163.9h72.59a6.36,6.36,0,0,0,6.35-6.36V73.15A6.38,6.38,0,0,0,162.59,66.78Z" class="ace7d9ca-b1c0-4b8d-82df-b2bf6f3267b8"></path><path d="M153.91,68.49H137.66v32.37a2.26,2.26,0,0,0,1,1.91,1.54,1.54,0,0,0,.82.25,1.61,1.61,0,0,0,1-.37l6.91-5.73,7.36,5.76a1.52,1.52,0,0,0,1.81.09,2.28,2.28,0,0,0,.93-1.9V68.49Z" class="eeeb03ed-e207-4f7a-ae26-1666187d3812"></path><rect rx="4.63" height="10.14" width="16.31" y="93.25" x="71.04" class="bee64fd4-9114-4499-8748-4d016ffe6e71"></rect><rect rx="4.63" height="10.14" width="16.31" y="110.27" x="71.04" class="a4e06643-45dc-4d23-bbe8-3f009a718119"></rect><rect rx="4.63" height="10.14" width="16.31" y="127.29" x="71.04" class="e0d6cd01-ef26-474b-aefe-c885df5f8568"></rect><rect rx="1.58" height="3.63" width="44.01" y="131.02" x="113.45" class="eeeb03ed-e207-4f7a-ae26-1666187d3812"></rect><rect rx="1.58" height="3.63" width="44.01" y="141.1" x="113.45" class="eeeb03ed-e207-4f7a-ae26-1666187d3812"></rect><path d="M182.42,110.69a1.5,1.5,0,0,0,0-3,1.5,1.5,0,0,0,0,3Z" class="eeeb03ed-e207-4f7a-ae26-1666187d3812"></path><path d="M125.47,44.33c.19,0,.74.19,1.54,1.69a57.67,57.67,0,0,1,2.5,7.74l-4.44,1.65-.57-1.21-.94-9.34S125.41,44.32,125.47,44.33Z" class="b247977f-3eef-45cb-a21d-05708bd0d112"></path><path d="M119.59,43.49a26.88,26.88,0,0,1,5.88.84s1.07,9.2-1,16.2c-.46,1.57.38,6.49.38,6.49l-13.16-.17s1.56-11.91,1-13.83-.6-8.63-.6-8.63l3-.51A30,30,0,0,1,119.59,43.49Z" class="f814184e-0dec-4e84-826d-3b5c48b92ae0"></path><path d="M118.06,84.11s.29,3.36.83,4.29,0,2.52-.06,2.73-1.13.53-2.87.34-1.72-.59-1.58-1.24,1.07-1.49,1.13-2.11a16.67,16.67,0,0,0-.54-2.85Z" class="e3923764-bf7f-4a96-a791-4e49c0353d49"></path><path d="M123.39,64.25s9.09-.5,11.11.72-1.44,7.26-1.44,7.26-6.32-.29-18.7.43c-2.93.16-3.18-7.65-2.63-8.3S123.39,64.25,123.39,64.25Z" class="a2d109d8-76a8-436b-9ab0-8a3eaab63815"></path><path d="M115.74,91.73c-1.8-.19-1.58-1.07-1.43-1.74.09-.42.61-.92.91-1.38a3.19,3.19,0,0,0,1.21.58,4.47,4.47,0,0,0,2.63-.53A9,9,0,0,1,119.3,91,5.21,5.21,0,0,1,115.74,91.73Z" class="eab86080-5eea-4ee3-9d6e-6ded1ce0e756"></path><path d="M116.73,70.75c.37,2.74,2.16,16.42,2.16,16.42l-4.17.51s-5.12-17.84-4.86-20.57,2.18-3,2.18-3S115.77,63.48,116.73,70.75Z" class="af9fb8c6-b32e-4b01-ad4f-78d9e2d72839"></path><path d="M112,45.41c1.23-.46,1.83,10.63,2,15.19a53.84,53.84,0,0,0,6.93-.07c.44,0,1.47-.41,1.91-.47a4.33,4.33,0,0,1,1.09-.05,20.27,20.27,0,0,1,2.54,1.15c.24.25.89.89.78,1.16s-1.25-.77-1.25-.77l-.56-.31c.7.68,2,1.58,1.83,1.9s-1.38-.59-2.23-1.21c.73.66,1.64,1.84,1.43,2s-1.22-1.2-2.33-1.6c-.41-.14-.81.26-1.14.31a2.33,2.33,0,0,1-.83,0l-1.2-.34c-.4,0-.41.27-.82.36s-1.27.21-1.87.36c-3.51.85-4.67,1.25-5.75,1.25C109.23,64.35,109,46.5,112,45.41Z" class="e3923764-bf7f-4a96-a791-4e49c0353d49"></path><path d="M109.61,55.82c-.23-4.67-.2-10.43,2.42-11.42,1-.39,2.86,2,2.53,11.51A19.61,19.61,0,0,1,109.61,55.82Z" class="ad4a1dc6-a266-4c59-9493-d8923d428c2a"></path><path d="M130.25,87a2.29,2.29,0,0,0,.29,1.94c.65.77,3.36,1.52,3.71,1.94a1.15,1.15,0,0,1,.33.77l-7.59-.2.08-2.3.35-1.65Z" class="e3923764-bf7f-4a96-a791-4e49c0353d49"></path><path d="M131,89.31s-1.95.79-2.89.32-.92-.6-1.19-.42-.37,2.32-.37,2.32l8.54.26c.6,0,.9-.46.41-.83a6,6,0,0,0-.93-.55A25.53,25.53,0,0,0,131,89.31Z" class="eab86080-5eea-4ee3-9d6e-6ded1ce0e756"></path><path d="M130,66.4c.58-1.23,1.92-2.84,4.27-1.87s2.84,3.19,2.13,5.52-5.36,16-5.52,17.88l-3.72,0s.68-10.82.84-13.44A25.29,25.29,0,0,1,130,66.4Z" class="af9fb8c6-b32e-4b01-ad4f-78d9e2d72839"></path><path d="M136,53.81H123.58a.8.8,0,0,0-.75.51L119,63.68h-6.85a.35.35,0,0,0-.35.34h0a.35.35,0,0,0,.35.35h19.49a1.36,1.36,0,0,0,1.25-.8L136.74,55A.82.82,0,0,0,136,53.81Z" class="b4a80018-1b1c-4f96-bb63-34bb00dcf1e5"></path><path d="M129.31,59.26A.68.68,0,1,1,128,59a.68.68,0,1,1,1.33.26Z" class="eeeb03ed-e207-4f7a-ae26-1666187d3812"></path><path d="M122.55,32.24a8.14,8.14,0,0,1-1.1-.44,5.77,5.77,0,0,0-1.25-.47,3,3,0,0,0-2.55.68c-.82.89-2.27.16-2,4.82.33,5.26,3.26,4.69,3.33,4.6s2.62-3.37,2.62-3.37.89,1.94.89,1.87S127.05,33.76,122.55,32.24Z" class="be478571-23da-48b5-96f3-fb6eed5ed741"></path><path d="M120.58,43.7l0-.29h0l-.22-1.59-2.76-3-.25,4.77s2.37,3.84,3.1,3.32S120.58,43.7,120.58,43.7Z" class="fe30905b-85d8-438b-959c-8ffc935e1736"></path><path d="M120.17,33.66a4,4,0,0,0-3,3.11h0a.9.9,0,0,0-.3,1.73H117a4.67,4.67,0,0,0,3,4c1,.17,2.47-1.74,2.8-3.92a17.73,17.73,0,0,0,.21-2.41A2.5,2.5,0,0,0,120.17,33.66Z" class="b0838491-7442-40d7-9d5f-5a773d066f1b"></path><path d="M117.17,36.77s1.18.3,1.62-.47,2-2.4,4-1.72-1.76-1.66-1.92-1.66H118.8a19.27,19.27,0,0,0-1.53,1.35c0,.13-.48,1.59-.48,1.59Z" class="be478571-23da-48b5-96f3-fb6eed5ed741"></path><path d="M119.33,40l2.16.42a1,1,0,0,1-1.16.65C119.17,40.84,119.33,40,119.33,40Z" class="eeeb03ed-e207-4f7a-ae26-1666187d3812"></path></g></svg>