<svg viewBox="0 0 240 240" xmlns:xlink="http://www.w3.org/1999/xlink" xmlns="http://www.w3.org/2000/svg"><defs><style>.aa0560bf-ba18-4b75-bd9c-d5d4aafbd561,.b7bcd00d-0cef-4b5e-b93e-efa83d212e9d,.f1cc633c-7210-401b-be2b-e6403aa9eae5,.f5d133b6-f706-45ed-9676-dd204991a01d{fill:none;}.aa0560bf-ba18-4b75-bd9c-d5d4aafbd561{stroke:#b9d8ff;stroke-width:3px;fill-rule:evenodd;}.aa0560bf-ba18-4b75-bd9c-d5d4aafbd561,.b7bcd00d-0cef-4b5e-b93e-efa83d212e9d,.f1cc633c-7210-401b-be2b-e6403aa9eae5{stroke-miterlimit:10;}.a6edfe75-6cb0-4095-85ae-bfeb082e19ac{fill:#ccc;}.f35c311d-952a-497e-9d59-bea93eb09c2f{fill:url(#ea9c4c1f-f214-425b-815e-1e0363424dfb);}.b26b2875-32eb-4782-9fe9-af14c1153258{fill:url(#aa74c8e0-19f7-42c0-ac19-541b8d3178b7);}.aead2014-3d69-4421-990f-dc7e49e8e19b{fill:url(#f1f4480e-b16f-4f94-add7-bcc4a88e48ae);}.e3c16a5f-bee3-4401-acc9-ffff5638dfb0{fill:url(#a9f6f5f2-fe88-4b95-8953-f8505ec49514);}.a28cf62b-3241-4c1d-82bc-099cac766161{fill:url(#a773750f-3d8b-4c13-a278-dd91038fba81);}.e51f3d59-958c-46d0-aecd-a887f838b632{fill:url(#b1498784-5d40-4dcc-be6d-d23397be03dd);}.b7bcd00d-0cef-4b5e-b93e-efa83d212e9d,.f5d133b6-f706-45ed-9676-dd204991a01d{stroke:#f2f6fa;}.f5d133b6-f706-45ed-9676-dd204991a01d{stroke-linecap:round;stroke-linejoin:round;stroke-width:2px;}.f5bab60e-f3bc-408b-8a38-9ca55330605c{fill:#f2f2f2;}.e1d87052-529f-493c-94f9-a581a98e9382{fill:#dfdfdf;}.f1cc633c-7210-401b-be2b-e6403aa9eae5{stroke:#f2f2f2;}.e436a7be-e209-46e7-82f9-27a9f31ac486{fill:url(#e7f6ae29-231c-44d7-b0d2-399d377943a8);}.a36354a3-e631-4e99-8a54-87450c9a98c8{fill:url(#f27ce4c5-ad5e-4f5f-8f27-d674e29a52fb);}.e34ddafd-9bb7-48a1-bd75-03c030c56037{fill:url(#be42590c-60b7-4985-b6d6-43ac235c4722);}.a150772d-dc26-443e-aa43-e60c0c5868f3,.aaf3249f-ee66-49be-bd1a-c2ce597d7fa9{fill:#fff;}.aaf3249f-ee66-49be-bd1a-c2ce597d7fa9{opacity:0.76;}.ad9652af-0d83-4a63-b794-501071c3ac7d{fill:url(#f688604a-8b30-48d2-b30f-aa69eb51ca55);}.a66e238c-ae78-4731-b7a3-1f388163f0ff{fill:#fef2e3;}.b9ae2c0a-144c-439b-ad92-b42b74f2d0e8{fill:#313162;}.f8fa7d3d-ce35-41f9-a9c4-7f9702b02f98{fill:url(#f300da0a-4637-4bc7-bbaf-65f0e7b73a80);}.b045f8b0-d199-4c35-9fb4-a8ad93ba26b5{fill:#fbdbbe;}.a128aded-29c1-41b3-b777-6df8692ce3bf{fill:#769bdd;}.b6539a7f-44df-4429-bf71-672ae25e24f3{fill:#8faded;}.f7828a98-5e34-44a7-9a91-d86f05664294{fill:url(#ffa24019-aa9e-4d5f-b49e-7f4256846e00);}.abf33f3a-1b1b-483c-8386-d9fa1b93a03d{fill:#45487a;}.b061b611-fb6c-4ec2-b2f5-87fd1dba6661{fill:url(#ff8f9690-a5ae-44cd-92b1-06fe8dfdeea2);}</style><linearGradient gradientUnits="userSpaceOnUse" gradientTransform="translate(-105.25 -854.34) rotate(-42.67)" y2="839.83" x2="-554.26" y1="839.83" x1="-575.19" id="ea9c4c1f-f214-425b-815e-1e0363424dfb"><stop stop-opacity="0" stop-color="#f2f6fa" offset="0"></stop><stop stop-opacity="0.5" stop-color="#e6e6e6" offset="0.7"></stop></linearGradient><linearGradient xlink:href="#ea9c4c1f-f214-425b-815e-1e0363424dfb" gradientTransform="matrix(1, 0, 0, 1, 0, 0)" y2="126.8" x2="215.85" y1="126.8" x1="180.02" id="aa74c8e0-19f7-42c0-ac19-541b8d3178b7"></linearGradient><linearGradient gradientUnits="userSpaceOnUse" y2="61.25" x2="120" y1="296.25" x1="120" id="f1f4480e-b16f-4f94-add7-bcc4a88e48ae"><stop stop-opacity="0" stop-color="#f4f4f4" offset="0"></stop><stop stop-opacity="0.7" stop-color="#dfdfdf" offset="0.69"></stop></linearGradient><linearGradient gradientUnits="userSpaceOnUse" gradientTransform="matrix(0, 0.22, -0.21, 0, 85.02, 168.5)" y2="65.38" x2="16.09" y1="-30" x1="58.95" id="a9f6f5f2-fe88-4b95-8953-f8505ec49514"><stop stop-opacity="0.6" stop-color="#ccc" offset="0"></stop><stop stop-opacity="0" stop-color="#dfdfdf" offset="1"></stop></linearGradient><linearGradient gradientUnits="userSpaceOnUse" y2="88.49" x2="106.61" y1="88.49" x1="43.87" id="a773750f-3d8b-4c13-a278-dd91038fba81"><stop stop-opacity="0.5" stop-color="#e6e6e6" offset="0.14"></stop><stop stop-opacity="0" stop-color="#f2f6fa" offset="1"></stop></linearGradient><linearGradient xlink:href="#ea9c4c1f-f214-425b-815e-1e0363424dfb" gradientTransform="matrix(1, 0, 0, 1, 0, 0)" y2="35.48" x2="181.19" y1="35.48" x1="144.68" id="b1498784-5d40-4dcc-be6d-d23397be03dd"></linearGradient><linearGradient gradientUnits="userSpaceOnUse" gradientTransform="translate(19.87 -51.46) rotate(-6.05)" y2="210.02" x2="142.06" y1="210.02" x1="59.79" id="e7f6ae29-231c-44d7-b0d2-399d377943a8"><stop stop-opacity="0.4" stop-color="#cbcbcb" offset="0"></stop><stop stop-color="#ccc" offset="0.25"></stop><stop stop-opacity="0.5" stop-color="#bababa" offset="1"></stop></linearGradient><linearGradient gradientUnits="userSpaceOnUse" y2="123.36" x2="138.48" y1="191.36" x1="150.29" id="f27ce4c5-ad5e-4f5f-8f27-d674e29a52fb"><stop stop-opacity="0" stop-color="#dfdfdf" offset="0.2"></stop><stop stop-color="#ccc" offset="0.83"></stop></linearGradient><linearGradient gradientUnits="userSpaceOnUse" y2="87.13" x2="178.75" y1="132.12" x1="76.7" id="be42590c-60b7-4985-b6d6-43ac235c4722"><stop stop-color="#ccc" offset="0.28"></stop><stop stop-color="#eaeaea" offset="1"></stop></linearGradient><linearGradient gradientUnits="userSpaceOnUse" y2="98.41" x2="123.03" y1="135.74" x1="124.05" id="f688604a-8b30-48d2-b30f-aa69eb51ca55"><stop stop-color="#fff" offset="0"></stop><stop stop-color="#94c4ff" offset="1"></stop></linearGradient><linearGradient gradientUnits="userSpaceOnUse" y2="119.22" x2="87.77" y1="119.22" x1="82.48" id="f300da0a-4637-4bc7-bbaf-65f0e7b73a80"><stop stop-color="#ff9084" offset="0.21"></stop><stop stop-color="#ffc8ae" offset="0.83"></stop></linearGradient><linearGradient xlink:href="#f300da0a-4637-4bc7-bbaf-65f0e7b73a80" y2="123.95" x2="85.49" y1="123.95" x1="73.42" id="ffa24019-aa9e-4d5f-b49e-7f4256846e00"></linearGradient><linearGradient xlink:href="#f300da0a-4637-4bc7-bbaf-65f0e7b73a80" y2="118.65" x2="78.25" y1="118.65" x1="72.41" id="ff8f9690-a5ae-44cd-92b1-06fe8dfdeea2"></linearGradient></defs><title>缺省页2号博学堂后台</title><g id="a1310f01-c351-4c21-87c7-372649323af7"><path d="M103.4,78.22l20-22.14a1.8,1.8,0,0,1,2.7,0L143.38,76" class="aa0560bf-ba18-4b75-bd9c-d5d4aafbd561"></path><circle r="4.14" cy="55.82" cx="124.56" class="a6edfe75-6cb0-4095-85ae-bfeb082e19ac"></circle><path d="M47.44,158.71c-4.32-2.87-9.81-8.88-9.94-13.14a2.55,2.55,0,0,1,1.72,1.09s9.67,12.69,5,2.19c-2.2-4.95-5-9.9-6.49-14.75C35,125.21,42,124.94,47,135.28c.66,1.36,4.74,12.13,6.94,11.65a.81.81,0,0,0,.52-.61c.66-1.86.13-5,2.26-5.13,1.87-.11,4.44,2.35,6.12,4.61,3.38,4.6,5.42,11.36,1.75,13.41s-11.43,3.28-17.07-.47Z" class="f35c311d-952a-497e-9d59-bea93eb09c2f"></path><path d="M203.58,119.61s-13.32,15.49-12.88,29.81H195S196.56,132.15,203.58,119.61ZM214.26,98.9c-2.95,3.7-4.84,8.94-3.08,13.63,1.23,3.23,4.91,3.25,4.65,7.74a14.49,14.49,0,0,1-2.25,6.29,48,48,0,0,1-7.61,10,8.76,8.76,0,0,1,3.3,8.11,14.61,14.61,0,0,1-4.17,8.11,5.82,5.82,0,0,1-2.47,1.77,6.24,6.24,0,0,1-2.85,0,49.45,49.45,0,0,1-13.26-4.23c-2.62-1.24-5.3-2.94-6.19-5.66-1-3.11.61-4.1,2.38-5.08l.45-.25a6.07,6.07,0,0,0,2.36-1.94c1.29-2.13,1.33-5,1.79-7.33.67-3.49-.32-9.85,4.05-11.22,1.7-.53,3.54-.41,5.23-.95,3.68-1.17,5.21-4.62,6.68-8.12l.27-.63a21,21,0,0,1,3-5.5C208.43,101.46,213,100.4,214.26,98.9Z" class="b26b2875-32eb-4782-9fe9-af14c1153258"></path><path d="M237.5,189.72c-16-24-44.43-51.95-117.5-46-91.26,7.43-111.92,35-116.35,44.35a5.34,5.34,0,0,0-1.15,3.15c0,12.43,52.61,22.5,117.5,22.5s117.5-10.07,117.5-22.5a4.66,4.66,0,0,0-.27-1.5Z" class="aead2014-3d69-4421-990f-dc7e49e8e19b"></path><ellipse transform="translate(-100.3 245.72) rotate(-86.89)" ry="11.37" rx="3.33" cy="175.81" cx="79.57" class="e3c16a5f-bee3-4401-acc9-ffff5638dfb0"></ellipse><path d="M43.91,98.1c1.18-4.36,5.84-17.58,17.29-9.52,0,0,6.41-21.19,25.67-4.53,0,0,9.78-6.14,14.6,6,0,0,6,2.51,5,7.55L44.92,99.32A1,1,0,0,1,43.91,98.1Z" class="a28cf62b-3241-4c1d-82bc-099cac766161"></path><path d="M144.68,41.1s3.09-8.64,8.23-5.35c0,0,5.9-11,16.73-2.88,0,0,5.11-1.47,7.82,4.49,0,0,2.67-.45,3.73,1.54Z" class="e51f3d59-958c-46d0-aecd-a887f838b632"></path><circle r="5" cy="87.3" cx="212.55" class="b7bcd00d-0cef-4b5e-b93e-efa83d212e9d"></circle><line y2="53.5" x2="62.07" y1="60.57" x1="55" class="f5d133b6-f706-45ed-9676-dd204991a01d"></line><line y2="53.5" x2="55" y1="60.57" x1="62.07" class="f5d133b6-f706-45ed-9676-dd204991a01d"></line><path d="M28.88,163.14s-10.47-10.32-4.58-8.69,8.51,8.15,8.51,8.15-2.62-11.41,3.28-10.86,1.31,10.32,1.31,10.32S34.12,170.2,28.88,163.14Z" class="f5bab60e-f3bc-408b-8a38-9ca55330605c"></path><path d="M208,158.72s4-14,6-14,5,14,5,14S215,163.72,208,158.72Z" class="e1d87052-529f-493c-94f9-a581a98e9382"></path><rect rx="1" height="10" width="2" y="157.72" x="212.5" class="e1d87052-529f-493c-94f9-a581a98e9382"></rect><path d="M217.39,172.63s2.26-7.91,3.39-7.91,2.83,7.91,2.83,7.91S221.35,175.46,217.39,172.63Z" class="e1d87052-529f-493c-94f9-a581a98e9382"></path><rect rx="0.57" height="5.65" width="1.13" y="172.07" x="219.93" class="e1d87052-529f-493c-94f9-a581a98e9382"></rect><path d="M208,26.28c1,8.18-7.94,12.73-9.74,8.06s8-4.18,6.1,1.93S194.7,39,194.7,39" class="f1cc633c-7210-401b-be2b-e6403aa9eae5"></path><path d="M180.57,142c-.56.53-1.14,1.05-1.72,1.55A8,8,0,0,0,180.57,142Z" class="e436a7be-e209-46e7-82f9-27a9f31ac486"></path><path d="M72.91,151.18s-7.71,24.28,71.71,28.68l73.18-8.81s-24.34-18.61-40.88-22.25C139.79,140.64,72.91,151.18,72.91,151.18Z" class="a36354a3-e631-4e99-8a54-87450c9a98c8"></path><rect rx="4.26" height="86.16" width="111.52" y="68.46" x="67.63" class="e34ddafd-9bb7-48a1-bd75-03c030c56037"></rect><rect rx="3.48" height="66.78" width="96.22" y="78.15" x="75.28" class="aaf3249f-ee66-49be-bd1a-c2ce597d7fa9"></rect><path d="M107.4,113.28h7.42v13.87a3.23,3.23,0,0,0,3.23,3.23h10.67a3.23,3.23,0,0,0,3.23-3.23V113.28h7.42a1.64,1.64,0,0,0,1.21-2.75l-16-17.3a1.65,1.65,0,0,0-2.41,0l-16,17.3A1.64,1.64,0,0,0,107.4,113.28Z" class="ad9652af-0d83-4a63-b794-501071c3ac7d"></path><polygon points="87.05 122.54 85.01 132.21 79.98 128.19 87.05 122.54" class="a66e238c-ae78-4731-b7a3-1f388163f0ff"></polygon><path d="M83.24,102.8a9.4,9.4,0,0,1-.95-.48,4.91,4.91,0,0,0-1.09-.53,2.73,2.73,0,0,0-2.34.41c-.81.73-2.06,0-2.17,4.17-.13,4.77,2.56,4.48,2.63,4.41L81.94,108s.64,1.83.65,1.76S87.17,104.52,83.24,102.8Z" class="b9ae2c0a-144c-439b-ad92-b42b74f2d0e8"></path><path d="M86.43,118.83c-.84-6-4-5.09-4-5.09l1.81,11c1.06-.29,2.43-.93,3.48-1.23C87.42,121.9,86.62,120.16,86.43,118.83Z" class="f8fa7d3d-ce35-41f9-a9c4-7f9702b02f98"></path><path d="M67.91,167.75a11.25,11.25,0,0,1-1,3.53,6.78,6.78,0,0,0-.89,1.18,3.44,3.44,0,0,0,.12,2.7c.15.34,0,.34.34.45a2.19,2.19,0,0,0,2.64-1.24,6.45,6.45,0,0,0,.52-2.28,8.24,8.24,0,0,1,.86-3.66Z" class="b045f8b0-d199-4c35-9fb4-a8ad93ba26b5"></path><path d="M79.49,169a25.7,25.7,0,0,1,0,4c-.1.53-.68,1.61-.41,2.1a1.29,1.29,0,0,0,.56.62l6.83.11c.38,0,.13-.23-.17-.45A13,13,0,0,0,83.88,174c-.1-.05-.47-.28-.61-.37a4.32,4.32,0,0,1-1-.86c-.49-.55-.54-3.2-.54-3.2Z" class="b045f8b0-d199-4c35-9fb4-a8ad93ba26b5"></path><path d="M84.76,131.82s1,5.2.33,8.61-2.74,29.51-2.74,29.51l-3.38.18s-.71-13.19-.58-15a27.26,27.26,0,0,0-.67-5.43l.52-4.66,4.27-14Z" class="a128aded-29c1-41b3-b777-6df8692ce3bf"></path><path d="M74.64,132.81s-.69,4.08-1.26,7-1.24,6.11-2.32,10a68.52,68.52,0,0,0-1.86,8.57c-.34,2.72-1.67,9.83-1.67,9.83l3,.6,7-17.77,4.54-10.59,1.41-8.27Z" class="b6539a7f-44df-4429-bf71-672ae25e24f3"></path><path d="M78.46,113s-3.15-.2-4.39,1.16-.35,11.41-.12,13.14a48.49,48.49,0,0,1-.47,7.07s9.8,1.43,11.91,0c0,0,.23-12.43,0-13.66s-1-6.24-1.45-6.73S78.46,113,78.46,113Z" class="f7828a98-5e34-44a7-9a91-d86f05664294"></path><path d="M69.27,173.84a3.37,3.37,0,0,1-3.3-1.39,3.62,3.62,0,0,0-.31,2.71c.27.59,1.06.57,1.68.6a1.63,1.63,0,0,0,1.49-.92A5,5,0,0,0,69.27,173.84Z" class="abf33f3a-1b1b-483c-8386-d9fa1b93a03d"></path><path d="M83.27,173.6a6.16,6.16,0,0,1-3.89-.15,3.13,3.13,0,0,0-.31,1.63c.17.49.4.59.61.6,1.65,0,6,.1,7.31.12a.21.21,0,0,0,.16-.34A35.28,35.28,0,0,0,83.27,173.6Z" class="abf33f3a-1b1b-483c-8386-d9fa1b93a03d"></path><path d="M84.19,107.49a.44.44,0,0,0-.46.05c.13-1.86-.21-3.67-2.7-3.6a2.52,2.52,0,0,0-2.16.92,5.27,5.27,0,0,0-.82,2.06.5.5,0,0,0-.41-.12c-.36.08-.57.59-.47,1.16s.48,1,.84.88h0a3.72,3.72,0,0,0,1,2,6.64,6.64,0,0,1-.62,2.06c-.44.84.45,1.9,2.32,1.57.56-.09.59-.84.64-1.09.1-.48.23-1.13.36-1.79h0c.07-.37.15-.75.22-1.11,0-.19-.3,1.23-.26,1.06a3.67,3.67,0,0,0,1.79-2.32,1,1,0,0,0,.74-.63C84.47,108.15,84.45,107.64,84.19,107.49Z" class="a66e238c-ae78-4731-b7a3-1f388163f0ff"></path><path d="M80.54,109.63l1.6.08a.7.7,0,0,1-.77.59C80.51,110.29,80.54,109.63,80.54,109.63Z" class="a150772d-dc26-443e-aa43-e60c0c5868f3"></path><path d="M89.72,121.29c.11-.32-1.46-.58-1.54-.91s2-.35,2.06-.64c.13-.53-2.27-.11-2.23-.36s2.51-.8,2.25-1.23-2.49.84-2.56.55,2.17-1,2.13-1.62c0-.34-3.68,1.69-4.1,1.5s.45-1.77.12-2-1.31,3.22-1.54,3.34-5.18,2.94-6.94,3.38c-.21-.59-.67-1.38-.86-1.94-1,.71-1.72,1.06-2.74,1.7.74,1.85,1.79,3.87,2.3,4.1,1.57.71,7.62-4.31,8.83-5.17s1.9-.58,2.72-.85S89.61,121.61,89.72,121.29Z" class="a66e238c-ae78-4731-b7a3-1f388163f0ff"></path><path d="M73.56,124s-1.35-6-1.12-7.72,2.3-3.36,3.73-2.76,2.08,9,2.08,9Z" class="b061b611-fb6c-4ec2-b2f5-87fd1dba6661"></path><path d="M78.18,106.49s1.07.26,1.47-.42a3.23,3.23,0,0,1,3.63-1.56c1.8.61-1.59-1.5-1.74-1.5H79.66s-1.33,1.1-1.38,1.22-.43,1.44-.43,1.44Z" class="b9ae2c0a-144c-439b-ad92-b42b74f2d0e8"></path></g></svg>