<svg xml:space="preserve" style="enable-background:new 0 0 680.31 680.31;" viewBox="0 0 680.31 680.31" y="0px" x="0px" xmlns:xlink="http://www.w3.org/1999/xlink" xmlns="http://www.w3.org/2000/svg" id="图层_1" version="1.1">
<style type="text/css">
	.st0{fill:url(#SVGID_1_);}
	.st1{opacity:0.9;fill:#E7EBF6;}
	.st2{fill:#ECEEF1;}
	.st3{fill:#D6DBE3;}
	.st4{opacity:0.8;fill:url(#SVGID_2_);}
	.st5{opacity:0.8;fill:url(#SVGID_3_);}
	.st6{fill:url(#SVGID_4_);}
	.st7{fill:url(#SVGID_5_);}
	.st8{fill:url(#SVGID_6_);}
</style>
<g id="暂无问答">
	<g id="背景_13_">
		<linearGradient y2="370.6889" x2="344.753" y1="524.9891" x1="344.753" gradientUnits="userSpaceOnUse" id="SVGID_1_">
			<stop style="stop-color:#F7F7F7;stop-opacity:0" offset="0"></stop>
			<stop style="stop-color:#C8C9C9;stop-opacity:0.2835" offset="1"></stop>
		</linearGradient>
		<path d="M75.68,451.87c0,0,25.58-81.77,112.42-81.18c86.85,0.59,138,38.09,179.05,36.33
			c41.04-1.76,85.06-19.89,127.89-18.44s48.49,18.15,77.42,27.08c21.95,6.77,31.18,1.73,38.91,14.62
			c7.73,12.89,8.58,47.05-30.68,53.49s-162.99,50.98-296.82,39.26C150.03,511.32,60.05,482.18,75.68,451.87z" class="st0"></path>
		<ellipse ry="36" rx="240.44" cy="473.35" cx="342.51" class="st1"></ellipse>
		<path d="M151.23,330.35c0,0-0.89,7.44,1.56,10.78c0.87,1.19,5.94,3.71,6.26,9.67c0.32,5.93-2.15,16.78-17.7,17.44
			c-14.37,0.62-33.11-4.33-27.78-25.78c3.39-11.17,14-8.9,12.92-27.92c-0.24-12.97,6.37-26.39,10.86-25.82
			c4.15,0.52,4.35,6.94,7.26,12.07C146.65,304.41,151.93,308.89,151.23,330.35z" class="st2"></path>
		<path d="M135.98,386.21c0,1.44,2.63,1.76,2.56-0.97c-0.07-2.73-0.16-10.74-0.62-14.89c-0.13-1.21-0.78-3.84-0.67-4.5
			c0.28-1.64,2.44-6.67,2.93-8.26c0.5-1.64,3.11-11.2,2.29-22.62c-0.74-10.4-1.41-10.38-2.52-10.31c-1.11,0.08-0.01,6.15,0.22,9.85
			c0.21,3.42,0.31,8.07-0.23,12.71c-0.6,5.12-1.85,10-3.42,14.68c-0.18,0.54-1.41,2.29-2.89-0.59c-1.48-2.88-8.71-13.08-4.56-22.89
			c1.27-3-0.64-2.57-2.15,0.27c-1.11,2.08-1.94,5.72-1.41,8.87c1.26,7.43,5.93,15.13,6.59,16.08c0.94,1.36,2.6,3.5,2.91,5
			C135.7,371.99,135.98,386.21,135.98,386.21z" class="st3"></path>
		<path d="M568.81,358.35c0,0-0.89,7.44,1.56,10.78c0.87,1.19,5.94,3.71,6.26,9.67c0.32,5.93-2.15,16.78-17.7,17.44
			c-14.37,0.62-33.11-4.33-27.78-25.78c3.39-11.17,14-8.9,12.92-27.92c-0.24-12.97,6.37-26.39,10.86-25.82
			c4.15,0.52,4.35,6.94,7.26,12.07C564.23,332.41,569.51,336.89,568.81,358.35z" class="st2"></path>
		<path d="M554.56,414.21c0,1.44,2.63,1.76,2.56-0.97c-0.07-2.73-0.16-10.74-0.62-14.89c-0.13-1.21-0.78-3.84-0.67-4.5
			c0.28-1.64,2.44-6.67,2.93-8.26c0.5-1.64,3.11-11.2,2.29-22.62c-0.74-10.4-1.41-10.38-2.52-10.31c-1.11,0.08-0.01,6.15,0.22,9.85
			c0.21,3.42,0.31,8.07-0.23,12.71c-0.6,5.12-1.85,10-3.42,14.68c-0.18,0.54-1.41,2.29-2.89-0.59c-1.48-2.88-8.71-13.08-4.56-22.89
			c1.27-3-0.64-2.57-2.15,0.27c-1.11,2.08-1.94,5.72-1.41,8.87c1.26,7.43,5.93,15.13,6.59,16.08c0.94,1.36,2.6,3.5,2.91,5
			C554.28,399.99,554.56,414.21,554.56,414.21z" class="st3"></path>
		<linearGradient y2="232.362" x2="140.876" y1="208.1322" x1="149.6949" gradientUnits="userSpaceOnUse" id="SVGID_2_">
			<stop style="stop-color:#9FD8F4;stop-opacity:0.6" offset="0"></stop>
			<stop style="stop-color:#84BCE5;stop-opacity:0.726" offset="0.315"></stop>
			<stop style="stop-color:#4478BD" offset="1"></stop>
		</linearGradient>
		<circle r="12.89" cy="220.25" cx="145.29" class="st4"></circle>
		<linearGradient y2="362.8355" x2="94.942" y1="343.9843" x1="101.8033" gradientUnits="userSpaceOnUse" id="SVGID_3_">
			<stop style="stop-color:#9FD8F4;stop-opacity:0.6" offset="0"></stop>
			<stop style="stop-color:#84BCE5;stop-opacity:0.726" offset="0.315"></stop>
			<stop style="stop-color:#4478BD" offset="1"></stop>
		</linearGradient>
		<circle r="10.03" cy="353.41" cx="98.37" class="st5"></circle>
		<linearGradient y2="412.5931" x2="528.3598" y1="378.7028" x1="540.6949" gradientUnits="userSpaceOnUse" id="SVGID_4_">
			<stop style="stop-color:#CAE9F8" offset="0"></stop>
			<stop style="stop-color:#A8CAE9" offset="0.4085"></stop>
			<stop style="stop-color:#6F98CF" offset="1"></stop>
		</linearGradient>
		<circle r="18.03" cy="395.65" cx="534.53" class="st6"></circle>
	</g>
	<g>
		<linearGradient y2="231.2286" x2="512.6029" y1="231.2286" x1="345.123" gradientUnits="userSpaceOnUse" id="SVGID_5_">
			<stop style="stop-color:#9FD8F4" offset="0"></stop>
			<stop style="stop-color:#84BCE5" offset="0.2611"></stop>
			<stop style="stop-color:#4477BC" offset="0.8357"></stop>
			<stop style="stop-color:#2E65B0" offset="1"></stop>
		</linearGradient>
		<path d="M486.43,297.44c0.22-5.09,6.06-13.26,6.06-13.26c12.53-14.64,20.11-33.65,20.11-54.44
			c0-46.25-37.49-83.74-83.74-83.74s-83.74,37.49-83.74,83.74c0,36.41,23.24,67.38,55.67,78.92c38.2,15.64,96.25,3.82,107.31-1.49
			C494.83,307.39,486.21,302.53,486.43,297.44z M433.84,271.34h-9.94v-12.39h9.94V271.34z M451.33,226.56
			c-2.7,6.11-7.38,10.12-13.58,14.25c-3.14,2.12-3.79,5.32-3.79,9.48h-9.94c0-3.35,0-12.25,8.24-17.74
			c5.76-3.84,8.47-6.54,9.99-9.97c0.47-1.28,1.4-8.85-2.14-13.97c-2.24-3.24-5.88-4.82-11.13-4.82c-4.91,0-8.61,1.31-11.01,3.89
			c-4,4.3-3.63,11.01-3.62,11.07l-9.91,0.73c-0.03-0.45-0.73-11.05,6.25-18.57c4.35-4.69,10.51-7.06,18.28-7.06
			c11.06,0,16.78,5.21,19.62,9.58C453.98,211.71,453.01,222.75,451.33,226.56z" class="st7"></path>
		<linearGradient y2="334.0166" x2="419.623" y1="334.0166" x1="170.903" gradientUnits="userSpaceOnUse" id="SVGID_6_">
			<stop style="stop-color:#EAF6FD" offset="0"></stop>
			<stop style="stop-color:#E2F1FB" offset="0"></stop>
			<stop style="stop-color:#DEEEFA" offset="0"></stop>
			<stop style="stop-color:#8CB6E1" offset="0.9"></stop>
		</linearGradient>
		<path d="M295.26,207.45c-68.68,0-124.36,55.68-124.36,124.36c0,30.87,11.25,59.1,29.87,80.84v0.01
			c0,0,8.67,12.13,9,19.68c0.33,7.55-12.48,14.78-32.18,14.45c16.42,7.88,102.62,25.44,159.35,2.21
			c48.17-17.13,82.68-63.12,82.68-117.19C419.62,263.13,363.94,207.45,295.26,207.45z M302.71,391.85h-14.92v-17.24h14.92V391.85z
			 M329.51,325.93c-4.06,9.18-11.09,15.19-20.4,21.4c-4.76,3.17-5.73,7.98-5.73,14.23h-14.92c0-5.03,0-18.4,12.38-26.65
			c8.65-5.77,12.72-9.83,15.01-14.97c0.71-1.92,2.1-13.29-3.21-20.98c-3.36-4.87-8.83-7.23-16.71-7.23
			c-7.37,0-12.93,1.96-16.53,5.84c-6.01,6.46-5.45,16.53-5.44,16.63l-14.89,1.09c-0.05-0.67-1.09-16.6,9.39-27.88
			c6.54-7.04,15.78-10.6,27.46-10.6c16.61,0,25.2,7.83,29.47,14.39C333.49,303.63,332.03,320.21,329.51,325.93z" class="st8"></path>
	</g>
</g>
</svg>
