<svg xml:space="preserve" style="enable-background:new 0 0 680.3 680.3;" viewBox="0 0 680.3 680.3" y="0px" x="0px" xmlns:xlink="http://www.w3.org/1999/xlink" xmlns="http://www.w3.org/2000/svg" id="图层_1" version="1.1">
<style type="text/css">
	.st0{fill:url(#SVGID_1_);}
	.st1{fill:#E7EBF6;}
	.st2{fill:#ECEEF1;}
	.st3{fill:#D6DBE3;}
	.st4{opacity:0.8;fill:url(#SVGID_2_);}
	.st5{opacity:0.8;fill:url(#SVGID_3_);}
	.st6{fill:url(#SVGID_4_);}
	.st7{fill:url(#SVGID_5_);}
	.st8{fill:url(#SVGID_6_);}
	.st9{fill:#A0B8E0;}
</style>
<g id="没有关注_x2F_收藏">
	<g id="背景_7_">
		<linearGradient y2="376.3272" x2="344.9104" y1="530.6274" x1="344.9104" gradientUnits="userSpaceOnUse" id="SVGID_1_">
			<stop style="stop-color:#F7F7F7;stop-opacity:0" offset="0"></stop>
			<stop style="stop-color:#C8C9C9;stop-opacity:0.2835" offset="1"></stop>
		</linearGradient>
		<path d="M75.8,457.5c0,0,25.6-81.8,112.4-81.2c52.9,0.4,85.6,24.4,117.8,35c20.6,6.8,45.2,2.1,61.3,1.4
			c41-1.8,85.1-19.9,127.9-18.4c42.8,1.4,48.5,18.2,77.4,27.1c22,6.8,31.2,1.7,38.9,14.6c7.7,12.9,8.6,47-30.7,53.5
			c-39.3,6.4-163,51-296.8,39.3S60.2,487.8,75.8,457.5z" class="st0"></path>
		<ellipse ry="36" rx="240.4" cy="479" cx="342.7" class="st1"></ellipse>
		<path d="M151.4,336c0,0-0.9,7.4,1.6,10.8c0.9,1.2,5.9,3.7,6.3,9.7c0.3,5.9-2.1,16.8-17.7,17.4
			c-14.4,0.6-33.1-4.3-27.8-25.8c3.4-11.2,14-8.9,12.9-27.9c-0.2-13,6.4-26.4,10.9-25.8c4.1,0.5,4.4,6.9,7.3,12.1
			C146.8,310.1,152.1,314.5,151.4,336z" class="st2"></path>
		<path d="M136.1,391.8c0,1.4,2.6,1.8,2.6-1c-0.1-2.7-0.2-10.7-0.6-14.9c-0.1-1.2-0.8-3.8-0.7-4.5
			c0.3-1.6,2.4-6.7,2.9-8.3c0.5-1.6,3.1-11.2,2.3-22.6c-0.7-10.4-1.4-10.4-2.5-10.3s0,6.1,0.2,9.9c0.2,3.4,0.3,8.1-0.2,12.7
			c-0.6,5.1-1.9,10-3.4,14.7c-0.2,0.5-1.4,2.3-2.9-0.6c-1.5-2.9-8.7-13.1-4.6-22.9c1.3-3-0.6-2.6-2.1,0.3c-1.1,2.1-1.9,5.7-1.4,8.9
			c1.3,7.4,5.9,15.1,6.6,16.1c0.9,1.4,2.6,3.5,2.9,5C135.9,377.6,136.1,391.8,136.1,391.8z" class="st3"></path>
		<path d="M569,364c0,0-0.9,7.4,1.6,10.8c0.9,1.2,5.9,3.7,6.3,9.7c0.3,5.9-2.1,16.8-17.7,17.4
			c-14.4,0.6-33.1-4.3-27.8-25.8c3.4-11.2,14-8.9,12.9-27.9c-0.2-13,6.4-26.4,10.9-25.8c4.1,0.5,4.4,6.9,7.3,12.1
			C564.4,338.1,569.7,342.5,569,364z" class="st2"></path>
		<path d="M554.7,419.8c0,1.4,2.6,1.8,2.6-1c-0.1-2.7-0.2-10.7-0.6-14.9c-0.1-1.2-0.8-3.8-0.7-4.5
			c0.3-1.6,2.4-6.7,2.9-8.3c0.5-1.6,3.1-11.2,2.3-22.6c-0.7-10.4-1.4-10.4-2.5-10.3c-1.1,0.1,0,6.1,0.2,9.9
			c0.2,3.4,0.3,8.1-0.2,12.7c-0.6,5.1-1.9,10-3.4,14.7c-0.2,0.5-1.4,2.3-2.9-0.6c-1.5-2.9-8.7-13.1-4.6-22.9c1.3-3-0.6-2.6-2.1,0.3
			c-1.1,2.1-1.9,5.7-1.4,8.9c1.3,7.4,5.9,15.1,6.6,16.1c0.9,1.4,2.6,3.5,2.9,5C554.4,405.6,554.7,419.8,554.7,419.8z" class="st3"></path>
		<linearGradient y2="238.0003" x2="141.0335" y1="213.7705" x1="149.8524" gradientUnits="userSpaceOnUse" id="SVGID_2_">
			<stop style="stop-color:#9FD8F4;stop-opacity:0.6" offset="0"></stop>
			<stop style="stop-color:#84BCE5;stop-opacity:0.726" offset="0.315"></stop>
			<stop style="stop-color:#4478BD" offset="1"></stop>
		</linearGradient>
		<circle r="12.9" cy="225.9" cx="145.4" class="st4"></circle>
		<linearGradient y2="368.4738" x2="95.0995" y1="349.6226" x1="101.9608" gradientUnits="userSpaceOnUse" id="SVGID_3_">
			<stop style="stop-color:#9FD8F4;stop-opacity:0.6" offset="0"></stop>
			<stop style="stop-color:#84BCE5;stop-opacity:0.726" offset="0.315"></stop>
			<stop style="stop-color:#4478BD" offset="1"></stop>
		</linearGradient>
		<circle r="10" cy="359" cx="98.5" class="st5"></circle>
		<linearGradient y2="418.2314" x2="528.5173" y1="384.3411" x1="540.8524" gradientUnits="userSpaceOnUse" id="SVGID_4_">
			<stop style="stop-color:#CAE9F8" offset="0"></stop>
			<stop style="stop-color:#A8CAE9" offset="0.4085"></stop>
			<stop style="stop-color:#6F98CF" offset="1"></stop>
		</linearGradient>
		<circle r="18" cy="401.3" cx="534.7" class="st6"></circle>
	</g>
	<g>
		<linearGradient y2="459.9046" x2="350.5678" y1="163.8" x1="350.5678" gradientUnits="userSpaceOnUse" id="SVGID_5_">
			<stop style="stop-color:#BDE4F7" offset="0"></stop>
			<stop style="stop-color:#ABD3EF" offset="0.2584"></stop>
			<stop style="stop-color:#79A7D9" offset="0.7767"></stop>
			<stop style="stop-color:#6294CE" offset="1"></stop>
		</linearGradient>
		<path d="M487.6,310.1l-75.4-44c-2.2-1.3-3.6-3.6-3.8-6.1l-6-86.4c0-10.1-15.2-12.7-21.7-6.1l-66,60.3l-88.3-21.9
			c-3-0.8-7.6-0.9-13.3,5c-4.4,4.5-2.9,8.4-1.6,11.4l35.3,80.6c1,2.3,0.8,5-0.5,7.1l-35.4,68.7c-3.3,5.4,1,12.3,7.3,11.6l71.7-8.1
			c2.5-0.3,5,0.7,6.6,2.7l61.5,73.6c4.1,4.9,23-3.1,24.3-9.3l19.2-87.9c0.5-2.5,2.3-4.5,4.6-5.5l80.4-32
			C492.5,321.4,493.1,313.3,487.6,310.1z M457.8,323.5l-69.4,28.8c-2,0.8-3.5,2.7-4,4.8l-17.2,77.5c-1.2,5.5-17.5,12.6-21,8.4
			l-52.3-64.2c-1.4-1.7-3.5-2.6-5.7-2.3l-61.7,7.7c-5.4,0.6-9.1-5.4-6.2-10.2l31-60.7c1.2-1.9,1.3-4.2,0.5-6.2l-29.7-70.6
			c-1.1-2.7-2.4-6,1.5-10.1c5-5.2,9-5.2,11.5-4.5l75.7,18.6l57.2-53.5c5.7-5.8,18.7-3.7,18.6,5.2l4.5,75.9c0.1,2.2,1.3,4.2,3.2,5.3
			l64.5,38.1C463.5,314.2,462.9,321.4,457.8,323.5z" class="st7"></path>
		<linearGradient y2="461.1446" x2="337.0769" y1="170.4417" x1="337.0769" gradientUnits="userSpaceOnUse" id="SVGID_6_">
			<stop style="stop-color:#9FD8F4" offset="0"></stop>
			<stop style="stop-color:#84BCE5" offset="0.2611"></stop>
			<stop style="stop-color:#4477BC" offset="0.8357"></stop>
			<stop style="stop-color:#2E65B0" offset="1"></stop>
		</linearGradient>
		<path d="M474.1,316.1l-75.4-44c-2.2-1.3-3.6-3.6-3.8-6.1l-6-88.4c-0.4-6.4-8-9.4-12.7-5.1l-66,59.5
			c-1.9,1.7-4.5,2.4-7,1.7l-85.3-21.9c-6.2-1.6-11.4,4.6-8.9,10.5l35.3,80.6c1,2.3,0.8,5-0.5,7.1l-46.4,74.7
			c-3.3,5.4,1,12.3,7.3,11.6l86.7-9.1c2.5-0.3,5,0.7,6.6,2.7l57.5,68.6c4.1,4.9,12,2.9,13.3-3.3l19.2-87.9c0.5-2.5,2.3-4.5,4.6-5.5
			l80.4-32C479,327.4,479.6,319.3,474.1,316.1z M370.7,208.1c-0.1-3.3,2.5-6.1,5.8-6.2c3.3-0.1,6.1,2.5,6.2,5.8l0.1,3.8
			c0.1,3.3-2.5,6.1-5.8,6.2c-3.3,0.1-6.1-2.5-6.2-5.8L370.7,208.1z M378.5,264.1c-3.3,0.1-6.1-2.5-6.2-5.8l-0.9-27.5
			c-0.1-3.3,2.5-6.1,5.8-6.2c3.3-0.1,6.1,2.5,6.2,5.8l0.9,27.5C384.4,261.2,381.8,264,378.5,264.1z" class="st8"></path>
		<path d="M348.9,139.9c0,0-2.9,14.1-12.9,15.7c0,0,7.4,7.6,5.9,19.3c0,0,4.7-12.5,13.6-15.1
			C355.4,159.8,346.6,151.9,348.9,139.9z" class="st9"></path>
		<path d="M442.6,184.5c0,0-6.2,26.9-25.4,29.5c0,0,13.9,14.8,10.5,37.3c0,0,9.4-23.8,26.6-28.4
			C454.3,222.8,437.7,207.4,442.6,184.5z" class="st9"></path>
	</g>
</g>
</svg>
