<svg xml:space="preserve" style="enable-background:new 0 0 680.3 680.3;" viewBox="0 0 680.3 680.3" y="0px" x="0px" xmlns:xlink="http://www.w3.org/1999/xlink" xmlns="http://www.w3.org/2000/svg" id="图层_1" version="1.1">
<style type="text/css">
	.st0{fill:url(#SVGID_1_);}
	.st1{fill:#E6E9F5;}
	.st2{fill:#ECEEF1;}
	.st3{fill:#D6DBE3;}
	.st4{opacity:0.8;fill:url(#SVGID_2_);}
	.st5{opacity:0.8;fill:url(#SVGID_3_);}
	.st6{fill:url(#SVGID_4_);}
	.st7{fill:url(#SVGID_5_);}
	.st8{fill:url(#SVGID_6_);}
	.st9{fill:url(#SVGID_7_);}
	.st10{fill:url(#SVGID_8_);}
	.st11{fill:url(#SVGID_9_);}
	.st12{fill:url(#SVGID_10_);}
	.st13{fill:url(#SVGID_11_);}
	.st14{fill:url(#SVGID_12_);}
	.st15{fill:url(#SVGID_13_);}
	.st16{fill:url(#SVGID_14_);}
	.st17{fill:url(#SVGID_15_);}
</style>
<g id="没有视频">
	<g id="图形_1_">
		<g id="背景_1_">
			<linearGradient y2="358.9299" x2="344.9104" y1="513.2301" x1="344.9104" gradientUnits="userSpaceOnUse" id="SVGID_1_">
				<stop style="stop-color:#F7F7F7;stop-opacity:0" offset="0"></stop>
				<stop style="stop-color:#C8C9C9;stop-opacity:0.2835" offset="1"></stop>
			</linearGradient>
			<path d="M75.8,440.1c0,0,25.6-81.8,112.4-81.2c47.6,0.3,84.5,21.7,114.9,31.7c25,8.2,45.6,5.4,64.1,4.6
				c41-1.8,85.1-19.9,127.9-18.4c42.8,1.4,48.5,18.2,77.4,27.1c22,6.8,31.2,1.7,38.9,14.6c7.7,12.9,8.6,47-30.7,53.5
				c-39.3,6.4-163,51-296.8,39.3C150.2,499.6,60.2,470.4,75.8,440.1z" class="st0"></path>
			<ellipse ry="36" rx="240.4" cy="461.6" cx="342.7" class="st1"></ellipse>
			<path d="M151.4,318.6c0,0-0.9,7.4,1.6,10.8c0.9,1.2,5.9,3.7,6.3,9.7c0.3,5.9-2.1,16.8-17.7,17.4
				c-14.4,0.6-33.1-4.3-27.8-25.8c3.4-11.2,14-8.9,12.9-27.9c-0.2-13,6.4-26.4,10.9-25.8c4.1,0.5,4.4,6.9,7.3,12.1
				C146.8,292.7,152.1,297.1,151.4,318.6z" class="st2"></path>
			<path d="M136.1,374.4c0,1.4,2.6,1.8,2.6-1c-0.1-2.7-0.2-10.7-0.6-14.9c-0.1-1.2-0.8-3.8-0.7-4.5
				c0.3-1.6,2.4-6.7,2.9-8.3c0.5-1.6,3.1-11.2,2.3-22.6c-0.7-10.4-1.4-10.4-2.5-10.3s0,6.1,0.2,9.9c0.2,3.4,0.3,8.1-0.2,12.7
				c-0.6,5.1-1.9,10-3.4,14.7c-0.2,0.5-1.4,2.3-2.9-0.6c-1.5-2.9-8.7-13.1-4.6-22.9c1.3-3-0.6-2.6-2.1,0.3c-1.1,2.1-1.9,5.7-1.4,8.9
				c1.3,7.4,5.9,15.1,6.6,16.1c0.9,1.4,2.6,3.5,2.9,5C135.9,360.2,136.1,374.4,136.1,374.4z" class="st3"></path>
			<path d="M569,346.6c0,0-0.9,7.4,1.6,10.8c0.9,1.2,5.9,3.7,6.3,9.7c0.3,5.9-2.1,16.8-17.7,17.4
				c-14.4,0.6-33.1-4.3-27.8-25.8c3.4-11.2,14-8.9,12.9-27.9c-0.2-13,6.4-26.4,10.9-25.8c4.1,0.5,4.4,6.9,7.3,12.1
				C564.4,320.7,569.7,325.1,569,346.6z" class="st2"></path>
			<path d="M554.7,402.4c0,1.4,2.6,1.8,2.6-1c-0.1-2.7-0.2-10.7-0.6-14.9c-0.1-1.2-0.8-3.8-0.7-4.5
				c0.3-1.6,2.4-6.7,2.9-8.3c0.5-1.6,3.1-11.2,2.3-22.6c-0.7-10.4-1.4-10.4-2.5-10.3c-1.1,0.1,0,6.1,0.2,9.9
				c0.2,3.4,0.3,8.1-0.2,12.7c-0.6,5.1-1.9,10-3.4,14.7c-0.2,0.5-1.4,2.3-2.9-0.6c-1.5-2.9-8.7-13.1-4.6-22.9c1.3-3-0.6-2.6-2.1,0.3
				c-1.1,2.1-1.9,5.7-1.4,8.9c1.3,7.4,5.9,15.1,6.6,16.1c0.9,1.4,2.6,3.5,2.9,5C554.4,388.2,554.7,402.4,554.7,402.4z" class="st3"></path>
			<linearGradient y2="220.603" x2="141.0335" y1="196.3732" x1="149.8524" gradientUnits="userSpaceOnUse" id="SVGID_2_">
				<stop style="stop-color:#9FD8F4;stop-opacity:0.6" offset="0"></stop>
				<stop style="stop-color:#84BCE5;stop-opacity:0.726" offset="0.315"></stop>
				<stop style="stop-color:#4478BD" offset="1"></stop>
			</linearGradient>
			<circle r="12.9" cy="208.5" cx="145.4" class="st4"></circle>
			<linearGradient y2="351.0765" x2="95.0995" y1="332.2253" x1="101.9608" gradientUnits="userSpaceOnUse" id="SVGID_3_">
				<stop style="stop-color:#9FD8F4;stop-opacity:0.6" offset="0"></stop>
				<stop style="stop-color:#84BCE5;stop-opacity:0.726" offset="0.315"></stop>
				<stop style="stop-color:#4478BD" offset="1"></stop>
			</linearGradient>
			<circle r="10" cy="341.7" cx="98.5" class="st5"></circle>
			<linearGradient y2="400.8341" x2="528.5173" y1="366.9438" x1="540.8524" gradientUnits="userSpaceOnUse" id="SVGID_4_">
				<stop style="stop-color:#CAE9F8" offset="0"></stop>
				<stop style="stop-color:#A8CAE9" offset="0.4085"></stop>
				<stop style="stop-color:#6F98CF" offset="1"></stop>
			</linearGradient>
			<circle r="18" cy="383.9" cx="534.7" class="st6"></circle>
		</g>
		<g>
			<linearGradient y2="257.0261" x2="450.2926" y1="209.1516" x1="450.2926" gradientUnits="userSpaceOnUse" id="SVGID_5_">
				<stop style="stop-color:#F1F7FD;stop-opacity:0.2" offset="0"></stop>
				<stop style="stop-color:#EFF6FC" offset="1"></stop>
			</linearGradient>
			<path d="M459.9,257l21.5-0.2l-0.3-29.3c-0.1-10.2-8.5-18.4-18.7-18.3l-43.2,0.4L459.9,257z" class="st7"></path>
			<linearGradient y2="258.1842" x2="343.0781" y1="210.292" x1="343.0781" gradientUnits="userSpaceOnUse" id="SVGID_6_">
				<stop style="stop-color:#F1F7FD;stop-opacity:0.2" offset="0"></stop>
				<stop style="stop-color:#EFF6FC" offset="1"></stop>
			</linearGradient>
			<polygon points="345.3,210.3 300.2,210.7 340.9,258.2 385.9,257.7" class="st8"></polygon>
			<linearGradient y2="259.4803" x2="237.153" y1="211.4502" x1="237.153" gradientUnits="userSpaceOnUse" id="SVGID_7_">
				<stop style="stop-color:#F1F7FD;stop-opacity:0.2" offset="0"></stop>
				<stop style="stop-color:#EFF6FC" offset="1"></stop>
			</linearGradient>
			<path d="M226.3,211.5l-0.6,0c-10.2,0.1-18.4,8.5-18.3,18.7l0.3,29.3l59.3-0.6L226.3,211.5z" class="st9"></path>
			<linearGradient y2="257.6107" x2="402.5847" y1="209.7074" x1="402.5847" gradientUnits="userSpaceOnUse" id="SVGID_8_">
				<stop style="stop-color:#F1F7FD;stop-opacity:0.2" offset="0"></stop>
				<stop style="stop-color:#EFF6FC" offset="1"></stop>
			</linearGradient>
			<polygon points="405.4,209.7 359.2,210.2 399.8,257.6 446,257.2" class="st10"></polygon>
			<linearGradient y2="258.7689" x2="283.57" y1="210.8656" x1="283.57" gradientUnits="userSpaceOnUse" id="SVGID_9_">
				<stop style="stop-color:#F1F7FD;stop-opacity:0.2" offset="0"></stop>
				<stop style="stop-color:#EFF6FC" offset="1"></stop>
			</linearGradient>
			<polygon points="280.8,258.8 327,258.3 286.4,210.9 240.1,211.3" class="st11"></polygon>
		</g>
		<g>
			<linearGradient y2="206.8713" x2="440.1888" y1="159.0443" x1="440.1888" gradientUnits="userSpaceOnUse" id="SVGID_10_">
				<stop style="stop-color:#98CBEE" offset="0"></stop>
				<stop style="stop-color:#5E9DD5" offset="1"></stop>
			</linearGradient>
			<path d="M454.3,206.9l21-4.5l-6.1-28.7c-2.1-10-12-16.4-22-14.2l-42.2,9L454.3,206.9z" class="st12"></path>
			<linearGradient y2="231.7509" x2="335.3381" y1="183.9352" x1="335.3381" gradientUnits="userSpaceOnUse" id="SVGID_11_">
				<stop style="stop-color:#98CBEE" offset="0"></stop>
				<stop style="stop-color:#5E9DD5" offset="1"></stop>
			</linearGradient>
			<polygon points="332.7,183.9 288.6,193.4 337.9,231.8 382,222.3" class="st13"></polygon>
			<linearGradient y2="259.5943" x2="233.3883" y1="208.8155" x1="233.3883" gradientUnits="userSpaceOnUse" id="SVGID_12_">
				<stop style="stop-color:#98CBEE" offset="0"></stop>
				<stop style="stop-color:#5E9DD5" offset="1"></stop>
			</linearGradient>
			<path d="M216.3,208.8l-0.6,0.1c-10,2.1-16.4,12-14.2,22l6.1,28.7l58-12.4L216.3,208.8z" class="st14"></path>
			<linearGradient y2="219.4297" x2="393.5327" y1="171.3769" x1="393.5327" gradientUnits="userSpaceOnUse" id="SVGID_13_">
				<stop style="stop-color:#98CBEE" offset="0"></stop>
				<stop style="stop-color:#5E9DD5" offset="1"></stop>
			</linearGradient>
			<polygon points="391.5,171.4 346.3,181 395.6,219.4 440.8,209.8" class="st15"></polygon>
			<linearGradient y2="244.3099" x2="277.1419" y1="196.2564" x1="277.1419" gradientUnits="userSpaceOnUse" id="SVGID_14_">
				<stop style="stop-color:#98CBEE" offset="0"></stop>
				<stop style="stop-color:#5E9DD5" offset="1"></stop>
			</linearGradient>
			<polygon points="279.2,244.3 324.4,234.6 275.1,196.3 229.9,205.9" class="st16"></polygon>
		</g>
		<linearGradient y2="437.9633" x2="344.8241" y1="259.9633" x1="344.8241" gradientUnits="userSpaceOnUse" id="SVGID_15_">
			<stop style="stop-color:#9FD8F4" offset="0"></stop>
			<stop style="stop-color:#84BCE5" offset="0.2611"></stop>
			<stop style="stop-color:#4477BC" offset="0.8357"></stop>
			<stop style="stop-color:#2E65B0" offset="1"></stop>
		</linearGradient>
		<path d="M464.4,438H219.2c-6.4,0-11.5-5.1-11.5-11.5V260h274.2v160.5C481.9,430.1,474.1,438,464.4,438z M308.9,309.5
			l0.4,69.5c0.1,12.3,13.4,19.9,24,13.8l58.6-34.4c10.3-6.1,10.3-21.1-0.1-27.3l-59-35.1C322.1,289.7,308.8,297.2,308.9,309.5z" class="st17"></path>
	</g>
</g>
</svg>
