<svg xml:space="preserve" style="enable-background:new 0 0 680.3 680.3;" viewBox="0 0 680.3 680.3" y="0px" x="0px" xmlns:xlink="http://www.w3.org/1999/xlink" xmlns="http://www.w3.org/2000/svg" id="图层_1" version="1.1">
<style type="text/css">
	.st0{fill:url(#SVGID_1_);}
	.st1{opacity:0.9;fill:#E6E9F5;}
	.st2{fill:#ECEEF1;}
	.st3{fill:#D6DBE3;}
	.st4{opacity:0.8;fill:url(#SVGID_2_);}
	.st5{opacity:0.8;fill:url(#SVGID_3_);}
	.st6{fill:url(#SVGID_4_);}
	.st7{fill:#A0B8E0;}
	.st8{fill:url(#SVGID_5_);}
</style>
<g id="没有消息">
	<g id="背景_3_">
		<linearGradient y2="339.9459" x2="344.9104" y1="494.2461" x1="344.9104" gradientUnits="userSpaceOnUse" id="SVGID_1_">
			<stop style="stop-color:#F7F7F7;stop-opacity:0" offset="0"></stop>
			<stop style="stop-color:#C8C9C9;stop-opacity:0.2835" offset="1"></stop>
		</linearGradient>
		<path d="M75.8,421.1c0,0,25.6-81.8,112.4-81.2s138,38.1,179,36.3c41-1.8,85.1-19.9,127.9-18.4
			c42.8,1.4,48.5,18.2,77.4,27.1c22,6.8,31.2,1.7,38.9,14.6c7.7,12.9,8.6,47-30.7,53.5c-39.3,6.4-163,51-296.8,39.3
			C150.2,480.6,60.2,451.4,75.8,421.1z" class="st0"></path>
		<ellipse ry="36" rx="240.4" cy="442.6" cx="342.7" class="st1"></ellipse>
		<path d="M151.4,299.6c0,0-0.9,7.4,1.6,10.8c0.9,1.2,5.9,3.7,6.3,9.7c0.3,5.9-2.1,16.8-17.7,17.4
			c-14.4,0.6-33.1-4.3-27.8-25.8c3.4-11.2,14-8.9,12.9-27.9c-0.2-13,6.4-26.4,10.9-25.8c4.1,0.5,4.4,6.9,7.3,12.1
			C146.8,273.7,152.1,278.1,151.4,299.6z" class="st2"></path>
		<path d="M136.1,355.5c0,1.4,2.6,1.8,2.6-1c-0.1-2.7-0.2-10.7-0.6-14.9c-0.1-1.2-0.8-3.8-0.7-4.5
			c0.3-1.6,2.4-6.7,2.9-8.3c0.5-1.6,3.1-11.2,2.3-22.6c-0.7-10.4-1.4-10.4-2.5-10.3c-1.1,0.1,0,6.1,0.2,9.9
			c0.2,3.4,0.3,8.1-0.2,12.7c-0.6,5.1-1.9,10-3.4,14.7c-0.2,0.5-1.4,2.3-2.9-0.6c-1.5-2.9-8.7-13.1-4.6-22.9c1.3-3-0.6-2.6-2.1,0.3
			c-1.1,2.1-1.9,5.7-1.4,8.9c1.3,7.4,5.9,15.1,6.6,16.1c0.9,1.4,2.6,3.5,2.9,5C135.9,341.2,136.1,355.5,136.1,355.5z" class="st3"></path>
		<path d="M569,327.6c0,0-0.9,7.4,1.6,10.8c0.9,1.2,5.9,3.7,6.3,9.7c0.3,5.9-2.1,16.8-17.7,17.4
			c-14.4,0.6-33.1-4.3-27.8-25.8c3.4-11.2,14-8.9,12.9-27.9c-0.2-13,6.4-26.4,10.9-25.8c4.1,0.5,4.4,6.9,7.3,12.1
			C564.4,301.7,569.7,306.1,569,327.6z" class="st2"></path>
		<path d="M554.7,383.5c0,1.4,2.6,1.8,2.6-1c-0.1-2.7-0.2-10.7-0.6-14.9c-0.1-1.2-0.8-3.8-0.7-4.5
			c0.3-1.6,2.4-6.7,2.9-8.3c0.5-1.6,3.1-11.2,2.3-22.6c-0.7-10.4-1.4-10.4-2.5-10.3c-1.1,0.1,0,6.1,0.2,9.9
			c0.2,3.4,0.3,8.1-0.2,12.7c-0.6,5.1-1.9,10-3.4,14.7c-0.2,0.5-1.4,2.3-2.9-0.6c-1.5-2.9-8.7-13.1-4.6-22.9c1.3-3-0.6-2.6-2.1,0.3
			c-1.1,2.1-1.9,5.7-1.4,8.9c1.3,7.4,5.9,15.1,6.6,16.1c0.9,1.4,2.6,3.5,2.9,5C554.4,369.2,554.7,383.5,554.7,383.5z" class="st3"></path>
		<linearGradient y2="332.0925" x2="559.4699" y1="313.2413" x1="566.3312" gradientUnits="userSpaceOnUse" id="SVGID_2_">
			<stop style="stop-color:#9FD8F4;stop-opacity:0.6" offset="0"></stop>
			<stop style="stop-color:#84BCE5;stop-opacity:0.726" offset="0.315"></stop>
			<stop style="stop-color:#4478BD" offset="1"></stop>
		</linearGradient>
		<circle r="10" cy="322.7" cx="562.9" class="st4"></circle>
		<linearGradient y2="201.619" x2="507.767" y1="177.3892" x1="516.5859" gradientUnits="userSpaceOnUse" id="SVGID_3_">
			<stop style="stop-color:#9FD8F4;stop-opacity:0.6" offset="0"></stop>
			<stop style="stop-color:#84BCE5;stop-opacity:0.726" offset="0.315"></stop>
			<stop style="stop-color:#4478BD" offset="1"></stop>
		</linearGradient>
		<circle r="12.9" cy="189.5" cx="512.2" class="st5"></circle>
		<linearGradient y2="382.8501" x2="116.6207" y1="348.9597" x1="128.9557" gradientUnits="userSpaceOnUse" id="SVGID_4_">
			<stop style="stop-color:#CAE9F8" offset="0"></stop>
			<stop style="stop-color:#A8CAE9" offset="0.4085"></stop>
			<stop style="stop-color:#6F98CF" offset="1"></stop>
		</linearGradient>
		<circle r="18" cy="365.9" cx="122.8" class="st6"></circle>
	</g>
	<path d="M167.7,187.2v31.8c0,6,5,10.9,11,10.9h10.5v5.4c0,4.3,5,6.7,8.4,4.1l12.7-9.5h22.1c6.1,0,11-4.9,11-10.9v-31.8
		c0-6-5-10.9-11-10.9h-53.7C172.7,176.3,167.7,181.2,167.7,187.2z M216.3,203c0-3,2.4-5.4,5.5-5.4c3,0,5.5,2.4,5.5,5.4
		c0,3-2.4,5.4-5.5,5.4C218.8,208.3,216.3,205.9,216.3,203z M200.1,203c0-3,2.4-5.4,5.5-5.4c3,0,5.5,2.4,5.5,5.4c0,3-2.4,5.4-5.5,5.4
		C202.5,208.3,200.1,205.9,200.1,203z M183.9,203c0-3,2.4-5.4,5.5-5.4c3,0,5.5,2.4,5.5,5.4c0,3-2.4,5.4-5.5,5.4
		C186.3,208.3,183.9,205.9,183.9,203z" class="st7"></path>
	<linearGradient y2="383.4362" x2="258.1374" y1="187.0996" x1="454.4739" gradientUnits="userSpaceOnUse" id="SVGID_5_">
		<stop style="stop-color:#ACD7F3" offset="0"></stop>
		<stop style="stop-color:#9BC6EA" offset="0.1798"></stop>
		<stop style="stop-color:#6F9BD2" offset="0.5425"></stop>
		<stop style="stop-color:#2C64B0" offset="1"></stop>
	</linearGradient>
	<path d="M446.4,194.3H266.2c-20.4,0-37,16.7-37,37v107.9c0,20.4,16.6,37,37,37h74.1l42.7,32.4
		c11.6,8.8,28.3,0.5,28.3-14v-18.3h35.2c20.4,0,37-16.6,37-37V231.3C483.4,211,466.8,194.3,446.4,194.3z M302,303.2
		c-10.1,0-18.3-8.2-18.3-18.3c0-10.1,8.2-18.3,18.3-18.3c10.1,0,18.3,8.2,18.3,18.3C320.3,295,312.1,303.2,302,303.2z M356.5,303.2
		c-10.1,0-18.3-8.2-18.3-18.3c0-10.1,8.2-18.3,18.3-18.3c10.1,0,18.3,8.2,18.3,18.3C374.8,295,366.6,303.2,356.5,303.2z
		 M410.9,303.2c-10.1,0-18.3-8.2-18.3-18.3c0-10.1,8.2-18.3,18.3-18.3c10.1,0,18.3,8.2,18.3,18.3C429.2,295,421,303.2,410.9,303.2z" class="st8"></path>
</g>
</svg>
